<svg width="314" height="126" viewBox="0 0 314 126" fill="none" xmlns="http://www.w3.org/2000/svg">
<path d="M146.877 1.04008C150.81 1.0094 154.743 0.986308 158.677 0.972147C160.503 0.965397 162.33 0.956199 164.156 0.94117C165.919 0.92667 167.682 0.919083 169.445 0.915686C170.117 0.913266 170.789 0.90854 171.462 0.901457C172.404 0.891922 173.346 0.89063 174.289 0.891237C174.566 0.886523 174.843 0.88181 175.129 0.876953C176.877 0.88912 178.084 1.18601 179.421 2.35115C180.492 3.72188 180.766 4.69423 180.776 6.40805C180.777 6.57913 180.779 6.7502 180.78 6.92647C180.784 7.49225 180.786 8.05802 180.787 8.62381C180.789 9.01806 180.79 9.4123 180.792 9.80655C180.794 10.6336 180.796 11.4606 180.797 12.2876C180.798 13.3442 180.805 14.4007 180.812 15.4572C180.817 16.272 180.818 17.0868 180.819 17.9016C180.819 18.2909 180.822 18.6802 180.825 19.0695C180.83 19.6161 180.829 20.1624 180.827 20.709C180.829 21.1744 180.829 21.1744 180.83 21.6493C180.659 23.2293 180.012 24.5417 178.897 25.6882C177.322 26.4749 177.322 26.4749 169.448 26.4749C169.448 32.2724 169.448 38.07 169.448 44.0433C170.921 44.0433 172.393 44.0433 173.91 44.0433C173.91 44.822 173.91 45.6008 173.91 46.4032C164.989 46.4032 156.068 46.4032 146.877 46.4032C146.877 45.6244 146.877 44.8456 146.877 44.0433C148.349 44.0433 149.822 44.0433 151.339 44.0433C151.339 40.1494 151.339 36.2555 151.339 32.2436C148.221 32.2436 145.103 32.2436 141.89 32.2436C141.63 33.1089 141.371 33.9742 141.103 34.8657C140.886 35.4495 140.66 36.0301 140.422 36.606C140.298 36.9087 140.174 37.2114 140.046 37.5232C139.918 37.8306 139.791 38.1381 139.659 38.4548C139.532 38.7653 139.404 39.0757 139.273 39.3956C138.669 40.8623 138.06 42.326 137.429 43.781C138.555 43.8676 139.68 43.9541 140.84 44.0433C140.84 44.822 140.84 45.6008 140.84 46.4032C137.549 46.4032 134.258 46.4032 130.867 46.4032C130.867 45.6244 130.867 44.8456 130.867 44.0433C132.08 44.0433 133.292 44.0433 134.542 44.0433C134.651 43.6645 134.76 43.2858 134.873 42.8956C135.292 41.5044 135.79 40.1575 136.321 38.8061C136.465 38.4366 136.465 38.4366 136.612 38.0595C136.927 37.2513 137.243 36.4437 137.56 35.636C137.783 35.063 138.007 34.49 138.23 33.9169C138.694 32.7268 139.159 31.5368 139.623 30.3469C140.281 28.6632 140.935 26.9783 141.588 25.2929C141.691 25.0277 141.793 24.7625 141.899 24.4893C142.105 23.9571 142.312 23.4249 142.518 22.8928C144.324 18.233 146.138 13.5767 147.96 8.9229C148.063 8.65825 148.167 8.3936 148.273 8.12093C148.563 7.3806 148.853 6.64041 149.143 5.90026C149.229 5.67996 149.315 5.45966 149.404 5.23268C149.996 3.72258 149.996 3.72258 150.289 3.13779C149.163 3.13779 148.037 3.13779 146.877 3.13779C146.877 2.44555 146.877 1.7533 146.877 1.04008ZM157.9 3.13779C157.9 16.6366 157.9 30.1354 157.9 44.0433C159.546 44.0433 161.191 44.0433 162.887 44.0433C162.887 30.5445 162.887 17.0456 162.887 3.13779C161.241 3.13779 159.596 3.13779 157.9 3.13779ZM169.448 3.13779C169.448 10.1468 169.448 17.1558 169.448 24.3772C172.545 24.6923 172.545 24.6923 173.647 23.8527C173.727 23.1966 173.755 22.605 173.749 21.9481C173.751 21.6539 173.751 21.6539 173.753 21.3537C173.757 20.7035 173.755 20.0535 173.752 19.4033C173.753 18.9526 173.753 18.5019 173.754 18.0513C173.755 17.106 173.754 16.1609 173.75 15.2157C173.746 14.0023 173.748 12.789 173.753 11.5757C173.756 10.6449 173.755 9.71406 173.753 8.78324C173.752 8.33578 173.753 7.88831 173.755 7.44084C173.757 6.8161 173.754 6.19159 173.749 5.56686C173.751 5.38077 173.753 5.19469 173.754 5.00296C173.756 4.43477 173.756 4.43477 173.647 3.66222C172.545 2.82265 172.545 2.82265 169.448 3.13779ZM151.076 7.85765C151.008 8.03524 150.94 8.21282 150.87 8.39578C150.525 9.29843 150.177 10.2006 149.83 11.1026C149.763 11.2741 149.697 11.4456 149.629 11.6223C148.622 14.2316 147.592 16.8314 146.549 19.4268C146.43 19.7226 146.311 20.0183 146.189 20.323C145.589 21.816 144.988 23.3083 144.385 24.8001C144.162 25.3546 143.938 25.9091 143.715 26.4636C143.61 26.7219 143.506 26.9802 143.398 27.2464C143.255 27.6011 143.255 27.6011 143.11 27.963C143.026 28.1702 142.942 28.3774 142.856 28.5909C142.649 29.0901 142.649 29.0901 142.678 29.6215C145.536 29.6215 148.394 29.6215 151.339 29.6215C151.339 22.4394 151.339 15.2573 151.339 7.85765C151.252 7.85765 151.165 7.85765 151.076 7.85765Z" fill="#8B8B8B"/>
<path d="M93.3398 62.1309C96.2846 62.1309 99.2293 62.1309 102.263 62.1309C103.192 65.3361 104.092 68.5478 104.959 71.7703C105.031 72.04 105.031 72.04 105.105 72.3151C105.506 73.8045 105.906 75.2942 106.305 76.784C106.607 77.908 106.909 79.0319 107.211 80.1556C107.351 80.677 107.491 81.1985 107.63 81.72C107.714 82.033 107.799 82.3459 107.885 82.6683C107.959 82.944 108.033 83.2197 108.109 83.5037C108.276 84.1493 108.276 84.1493 108.562 84.6813C108.625 84.4645 108.688 84.2478 108.753 84.0244C109.351 81.9613 109.949 79.8983 110.547 77.8352C110.855 76.7751 111.162 75.715 111.47 74.6549C111.767 73.6279 112.065 72.601 112.363 71.5741C112.476 71.1863 112.588 70.7984 112.701 70.4105C113.501 67.6485 114.31 64.8891 115.124 62.1309C117.982 62.1309 120.84 62.1309 123.785 62.1309C123.785 62.5635 123.785 62.9962 123.785 63.4419C123.584 63.5068 123.384 63.5717 123.178 63.6386C122.392 64.0036 122.12 64.2772 121.685 65.0152C121.458 65.758 121.389 66.4266 121.386 67.2014C121.384 67.4271 121.383 67.6527 121.381 67.8852C121.381 68.1307 121.381 68.3762 121.38 68.6291C121.379 68.8893 121.378 69.1495 121.376 69.4176C121.373 70.2787 121.371 71.1397 121.369 72.0008C121.368 72.5998 121.366 73.1988 121.365 73.7978C121.362 75.0542 121.36 76.3106 121.36 77.5671C121.358 79.1747 121.352 80.7823 121.344 82.39C121.339 83.6277 121.338 84.8653 121.338 86.103C121.337 86.6956 121.335 87.2881 121.331 87.8806C121.327 88.7109 121.327 89.5411 121.329 90.3714C121.327 90.6148 121.324 90.8581 121.322 91.1089C121.331 92.6368 121.543 93.7857 122.21 95.1699C123.002 95.7086 123.002 95.7086 123.785 95.9565C123.785 96.3892 123.785 96.8218 123.785 97.2676C120.147 97.2676 116.509 97.2676 112.762 97.2676C112.762 96.8349 112.762 96.4023 112.762 95.9565C113.005 95.8592 113.249 95.7618 113.5 95.6615C114.525 95.0592 114.702 94.698 115.124 93.5966C115.229 92.7971 115.223 92.0089 115.213 91.2035C115.213 90.968 115.213 90.7325 115.213 90.4898C115.213 89.7151 115.207 88.9406 115.201 88.1659C115.199 87.6273 115.198 87.0887 115.197 86.5501C115.194 85.1353 115.186 83.7205 115.178 82.3057C115.17 80.8609 115.166 79.4161 115.162 77.9713C115.154 75.1384 115.14 72.3057 115.124 69.4729C114.353 72.1878 113.582 74.9029 112.811 77.6179C112.726 77.9178 112.726 77.9178 112.639 78.2237C110.837 84.5701 109.039 90.9175 107.25 97.2676C106.817 97.1811 106.384 97.0945 105.938 97.0054C105.881 96.7964 105.824 96.5874 105.766 96.3721C105.219 94.3529 104.671 92.3339 104.123 90.3149C103.842 89.2782 103.561 88.2414 103.28 87.2046C101.652 81.2 100 75.2026 98.3265 69.2107C98.3082 72.2856 98.2943 75.3605 98.2857 78.4354C98.2816 79.8634 98.276 81.2913 98.2671 82.7192C98.2585 84.098 98.2538 85.4768 98.2518 86.8557C98.2503 87.3809 98.2475 87.9061 98.2433 88.4313C98.2375 89.1688 98.2367 89.9061 98.2371 90.6436C98.2343 90.8592 98.2315 91.0748 98.2285 91.2969C98.2363 92.754 98.4871 93.8465 99.1139 95.1699C99.906 95.7086 99.906 95.7086 100.689 95.9565C100.689 96.3892 100.689 96.8218 100.689 97.2676C98.3501 97.2676 96.0116 97.2676 93.6023 97.2676C93.6023 96.8349 93.6023 96.4023 93.6023 95.9565C94.0636 95.7944 94.525 95.6322 94.9863 95.47C95.6651 95.0205 95.7323 94.6463 95.9644 93.8588C96.0415 92.9416 96.0361 92.0271 96.0323 91.1071C96.0332 90.8302 96.0342 90.5534 96.0351 90.2681C96.0374 89.3536 96.0359 88.4392 96.0341 87.5247C96.0345 86.8889 96.035 86.2531 96.0356 85.6173C96.0364 84.2851 96.0353 82.9529 96.0328 81.6206C96.0298 79.9127 96.0316 78.2048 96.0347 76.4968C96.0366 75.184 96.036 73.8713 96.0346 72.5585C96.0343 71.9287 96.0347 71.2989 96.0359 70.6691C96.0373 69.7891 96.0352 68.9092 96.0323 68.0291C96.0334 67.7687 96.0344 67.5082 96.0355 67.2398C96.0405 65.538 96.0405 65.538 95.4395 63.9664C94.9343 63.6985 94.9343 63.6985 94.3569 63.6222C94.0212 63.5627 93.6856 63.5032 93.3398 63.4419C93.3398 63.0093 93.3398 62.5766 93.3398 62.1309Z" fill="#8B8B8B"/>
<path d="M195.173 54.7961C197.507 54.7717 199.84 54.7531 202.175 54.7417C203.258 54.7362 204.342 54.7288 205.426 54.7169C206.473 54.7055 207.519 54.6993 208.566 54.6965C208.964 54.6946 209.363 54.6908 209.762 54.6852C210.322 54.6775 210.881 54.6765 211.441 54.677C211.759 54.6747 212.077 54.6723 212.405 54.6699C213.767 54.8658 214.57 55.5199 215.464 56.5332C216.19 57.5545 216.206 58.1417 216.22 59.3958C216.223 59.66 216.223 59.66 216.226 59.9296C216.233 60.5138 216.237 61.098 216.241 61.6823C216.242 61.882 216.244 62.0817 216.245 62.2875C216.252 63.3454 216.257 64.4033 216.261 65.4613C216.264 66.3355 216.272 67.2095 216.282 68.0837C216.295 69.1401 216.302 70.1964 216.304 71.2529C216.306 71.6547 216.31 72.0564 216.316 72.4581C216.368 75.9897 216.368 75.9897 215.636 77.1486C212.64 79.9274 210.366 78.9198 205.933 78.9198C205.933 84.3712 205.933 89.8227 205.933 95.4393C207.319 95.4393 208.705 95.4393 210.133 95.4393C210.133 96.2181 210.133 96.9969 210.133 97.7992C205.109 97.7992 200.086 97.7992 194.91 97.7992C194.91 97.0205 194.91 96.2417 194.91 95.4393C196.296 95.3528 197.682 95.2662 199.109 95.1771C199.109 94.7052 199.108 94.2333 199.108 93.7471C199.102 89.3097 199.098 84.8723 199.096 80.4348C199.094 78.1532 199.093 75.8717 199.09 73.5901C199.087 71.602 199.085 69.614 199.085 67.6259C199.084 66.5728 199.084 65.5196 199.082 64.4664C199.08 63.476 199.079 62.4856 199.08 61.4951C199.08 61.1308 199.079 60.7666 199.078 60.4023C199.077 59.9065 199.077 59.4106 199.078 58.9147C199.078 58.6368 199.077 58.3588 199.077 58.0724C199.109 57.4182 199.109 57.4182 199.372 56.8938C197.986 56.8938 196.6 56.8938 195.173 56.8938C195.173 56.2015 195.173 55.5093 195.173 54.7961ZM205.933 56.8938C205.933 63.4701 205.933 70.0464 205.933 76.8221C207.059 76.8221 208.185 76.8221 209.345 76.8221C210.095 76.0734 209.938 75.5621 209.942 74.5134C209.944 74.33 209.945 74.1466 209.946 73.9577C209.95 73.3501 209.95 72.7426 209.949 72.135C209.95 71.7137 209.951 71.2924 209.952 70.8712C209.954 69.9877 209.954 69.1042 209.953 68.2207C209.951 67.0867 209.956 65.9528 209.962 64.8188C209.966 63.9487 209.966 63.0787 209.965 62.2086C209.965 61.7904 209.967 61.3722 209.969 60.954C209.973 60.3701 209.971 59.7864 209.968 59.2025C209.968 58.8698 209.968 58.5372 209.968 58.1945C209.936 57.9383 209.904 57.6821 209.87 57.4182C208.804 56.6029 208.804 56.6029 205.933 56.8938Z" fill="#8B8B8B"/>
<path d="M16.1755 54.7973C17.5815 54.7908 18.9874 54.786 20.3934 54.7829C20.8717 54.7816 21.3501 54.7798 21.8284 54.7775C22.5157 54.7743 23.203 54.7728 23.8903 54.7717C24.2114 54.7696 24.2114 54.7696 24.5391 54.7676C25.4061 54.7675 26.1077 54.7836 26.9362 55.0595C26.9362 68.2987 26.9362 81.5379 26.9362 95.1783C28.2354 95.2649 29.5345 95.3514 30.8731 95.4405C30.8731 96.2193 30.8731 96.9981 30.8731 97.8005C25.9363 97.8005 20.9995 97.8005 15.9131 97.8005C15.9131 97.0217 15.9131 96.2429 15.9131 95.4405C17.2989 95.4405 18.6846 95.4405 20.1124 95.4405C20.1124 91.7197 20.1124 87.9989 20.1124 84.1653C17.1676 84.1653 14.2229 84.1653 11.1889 84.1653C10.9291 85.0306 10.6692 85.8959 10.4015 86.7875C10.1363 87.4911 9.86627 88.1852 9.57827 88.879C9.50366 89.0616 9.42904 89.2441 9.35216 89.4322C9.11803 90.0042 8.88223 90.5755 8.64635 91.1468C8.48545 91.539 8.32466 91.9313 8.16399 92.3237C7.77381 93.2757 7.38213 94.2272 6.9896 95.1783C8.11554 95.2649 9.24147 95.3514 10.4015 95.4405C10.4015 96.2193 10.4015 96.9981 10.4015 97.8005C7.28355 97.8005 4.16558 97.8005 0.953125 97.8005C0.953125 97.0217 0.953125 96.2429 0.953125 95.4405C2.16567 95.4405 3.37821 95.4405 4.6275 95.4405C4.71411 95.0079 4.80072 94.5752 4.88996 94.1295C5.01702 93.7435 5.15354 93.3606 5.29838 92.981C5.3823 92.7596 5.46622 92.5382 5.55268 92.31C5.64456 92.0708 5.73644 91.8316 5.83111 91.5852C5.97618 91.204 5.97618 91.204 6.12418 90.8151C6.44439 89.9747 6.76616 89.1349 7.08802 88.2952C7.31355 87.7047 7.53903 87.1143 7.76447 86.5238C10.0065 80.6575 12.2778 74.8025 14.5589 68.9512C14.8679 68.1584 15.1767 67.3655 15.4854 66.5726C15.9827 65.2957 16.4803 64.019 16.9782 62.7424C17.1634 62.2675 17.3486 61.7925 17.5337 61.3176C17.7868 60.6685 18.0401 60.0196 18.2936 59.3707C18.3683 59.1791 18.4429 58.9874 18.5199 58.79C19.0324 57.4796 19.0324 57.4796 19.325 56.895C18.2857 56.895 17.2464 56.895 16.1755 56.895C16.1755 56.2028 16.1755 55.5105 16.1755 54.7973ZM19.8499 62.1393C19.7971 62.2774 19.7444 62.4155 19.69 62.5578C19.0166 64.3195 18.3426 66.081 17.6683 67.8425C17.5611 68.1226 17.4539 68.4027 17.3434 68.6913C15.21 74.2645 15.21 74.2645 14.1692 76.8981C14.1003 77.0725 14.0314 77.2468 13.9604 77.4265C13.6505 78.2095 13.3389 78.9918 13.0258 79.7735C12.9196 80.0401 12.8135 80.3067 12.7042 80.5814C12.5678 80.921 12.5678 80.921 12.4288 81.2674C12.2096 81.7927 12.2096 81.7927 12.2387 82.3298C14.837 82.3298 17.4353 82.3298 20.1124 82.3298C20.1124 75.6669 20.1124 69.0041 20.1124 62.1393C20.0258 62.1393 19.9392 62.1393 19.8499 62.1393Z" fill="#8B8B8B"/>
<path d="M147.93 62.1404C149.559 62.1143 151.188 62.0954 152.817 62.0828C153.37 62.0776 153.923 62.0705 154.476 62.0613C161.614 61.9465 161.614 61.9465 164.072 64.2843C166.14 66.8032 166.588 69.9989 166.302 73.1535C165.8 75.7699 164.77 78.0586 162.512 79.5941C162.29 79.7185 162.068 79.8429 161.84 79.971C162.398 81.7377 163.063 83.4446 163.776 85.1539C163.885 85.4151 163.993 85.6764 164.105 85.9456C164.448 86.7732 164.792 87.6003 165.137 88.4274C165.482 89.2584 165.827 90.0895 166.172 90.9205C166.386 91.4357 166.6 91.9508 166.814 92.4658C166.912 92.6996 167.009 92.9333 167.109 93.1742C167.237 93.4806 167.237 93.4806 167.367 93.7931C167.545 94.2258 167.707 94.6654 167.859 95.1081C167.951 95.3047 168.044 95.5013 168.139 95.7039C168.399 95.7904 168.658 95.877 168.926 95.9661C168.926 96.3988 168.926 96.8314 168.926 97.2772C166.761 97.2772 164.596 97.2772 162.365 97.2772C161.582 95.3079 160.799 93.3386 160.017 91.3691C159.654 90.4547 159.291 89.5402 158.927 88.6258C158.576 87.7435 158.226 86.8611 157.875 85.9787C157.742 85.6419 157.608 85.3052 157.474 84.9685C157.286 84.4971 157.099 84.0256 156.912 83.5541C156.806 83.2857 156.699 83.0173 156.589 82.7407C156.402 82.2592 156.229 81.7721 156.066 81.2821C155.893 81.1956 155.719 81.109 155.541 81.0199C155.559 82.6994 155.582 84.3787 155.61 86.058C155.618 86.6287 155.626 87.1994 155.632 87.7701C155.641 88.593 155.654 89.4156 155.669 90.2384C155.671 90.4914 155.672 90.7444 155.674 91.0051C155.708 92.566 155.914 93.7634 156.591 95.1795C157.023 95.4505 157.459 95.7145 157.903 95.9661C157.903 96.3988 157.903 96.8314 157.903 97.2772C154.698 97.2772 151.494 97.2772 148.192 97.2772C148.192 96.8445 148.192 96.4119 148.192 95.9661C148.398 95.9174 148.604 95.8688 148.815 95.8186C149.578 95.4973 149.578 95.4973 149.805 94.671C150.122 93.4149 150.105 92.1639 150.101 90.8755C150.103 90.607 150.104 90.3386 150.105 90.0621C150.109 89.1785 150.109 88.295 150.108 87.4114C150.109 86.7952 150.11 86.1791 150.112 85.5629C150.114 84.2731 150.114 82.9832 150.112 81.6933C150.111 80.0419 150.115 78.3905 150.121 76.739C150.125 75.4672 150.125 74.1953 150.124 72.9235C150.125 72.3146 150.126 71.7057 150.129 71.0969C150.132 70.2453 150.13 69.3938 150.127 68.5422C150.129 68.2917 150.131 68.0413 150.133 67.7833C150.122 66.318 149.964 65.2641 149.242 63.9759C148.574 63.5814 148.574 63.5814 147.93 63.4515C147.93 63.0189 147.93 62.5862 147.93 62.1404ZM155.803 64.5004C155.541 65.288 155.509 65.8055 155.511 66.628C155.511 66.9009 155.511 67.1738 155.511 67.455C155.513 67.7492 155.514 68.0434 155.515 68.3465C155.516 68.6481 155.516 68.9496 155.516 69.2603C155.518 70.2248 155.521 71.1893 155.524 72.1538C155.526 72.8071 155.527 73.4604 155.528 74.1137C155.531 75.7165 155.535 77.3194 155.541 78.9222C155.96 78.932 156.379 78.9389 156.798 78.9447C157.148 78.951 157.148 78.951 157.505 78.9574C158.548 78.9018 159.005 78.6076 159.74 77.8733C161.56 74.8799 161.295 70.7368 160.642 67.4216C160.279 66.0271 159.852 65.1609 158.69 64.2382C157.624 63.7056 156.766 63.8594 155.803 64.5004Z" fill="#8B8B8B"/>
<path d="M52.1328 62.1408C53.7619 62.1146 55.3909 62.0957 57.0202 62.0831C57.5733 62.0779 58.1265 62.0708 58.6795 62.0616C65.7077 61.9486 65.7077 61.9486 68.077 64.1074C71.7753 67.7033 72.825 73.3806 72.9411 78.341C72.9984 83.8888 72.3314 90.2439 68.361 94.4751C66.7314 95.9995 64.8384 97.3139 62.5314 97.3073C62.3003 97.3072 62.0691 97.3072 61.831 97.3072C61.5824 97.3059 61.3339 97.3045 61.0778 97.3031C60.8226 97.3027 60.5674 97.3024 60.3045 97.302C59.4889 97.3005 58.6732 97.2972 57.8576 97.2939C57.3049 97.2926 56.7521 97.2914 56.1993 97.2903C54.8438 97.2874 53.4883 97.2829 52.1328 97.2775C52.1328 96.8448 52.1328 96.4122 52.1328 95.9664C52.3764 95.8745 52.62 95.7825 52.871 95.6878C53.8895 95.0693 54.1894 94.4558 54.4949 93.3443C54.6022 92.4501 54.6026 91.5657 54.5968 90.6659C54.5982 90.403 54.5996 90.1401 54.601 89.8693C54.6044 89.0039 54.6021 88.1387 54.5995 87.2734C54.6 86.6696 54.6008 86.0659 54.6018 85.4621C54.6029 84.198 54.6012 82.934 54.5976 81.6699C54.5931 80.0526 54.5957 78.4353 54.6004 76.818C54.6032 75.5715 54.6023 74.3251 54.6003 73.0786C54.5998 72.4824 54.6004 71.8862 54.6022 71.29C54.6042 70.4554 54.6012 69.6209 54.5968 68.7863C54.5984 68.5417 54.6 68.2972 54.6016 68.0452C54.5869 66.518 54.3796 65.3581 53.7075 63.9763C52.9096 63.5567 52.9096 63.5567 52.1328 63.4518C52.1328 63.0192 52.1328 62.5865 52.1328 62.1408ZM60.0065 64.5007C59.8886 65.0585 59.8886 65.0585 59.91 65.715C59.9086 65.9709 59.9071 66.2268 59.9056 66.4904C59.908 66.7721 59.9104 67.0538 59.9129 67.3441C59.9124 67.64 59.9119 67.9359 59.9113 68.2408C59.9105 69.2229 59.9154 70.205 59.9204 71.1872C59.9212 71.8671 59.9217 72.5471 59.9218 73.227C59.9231 74.6537 59.9268 76.0803 59.9327 77.5069C59.9402 79.3393 59.943 81.1717 59.9441 83.0041C59.9451 84.4086 59.9478 85.8131 59.9509 87.2176C59.9524 87.8934 59.9537 88.5693 59.9547 89.2451C59.9565 90.1881 59.96 91.1311 59.9642 92.0742C59.9645 92.3559 59.9648 92.6376 59.9651 92.9279C59.9666 93.1837 59.9681 93.4396 59.9696 93.7033C59.9704 93.9264 59.9712 94.1496 59.972 94.3795C59.9725 94.9347 59.9725 94.9347 60.2689 95.442C61.9435 95.5285 63.012 95.43 64.3534 94.3143C67.9489 90.6952 67.4258 83.0905 67.4211 78.3988C67.3964 73.8118 67.2073 68.5138 64.2058 64.7629C63.3975 64.2246 63.0444 64.1367 62.1061 64.0418C61.8788 64.0161 61.6514 63.9904 61.4172 63.964C60.7226 63.9218 60.7226 63.9218 60.0065 64.5007Z" fill="#8B8B8B"/>
<path d="M73.1289 62.1309C79.0184 62.1309 84.9079 62.1309 90.9759 62.1309C90.9759 65.6786 90.9759 69.2264 90.9759 72.8817C90.6294 72.8817 90.283 72.8817 89.9261 72.8817C89.8655 72.5494 89.8049 72.2171 89.7425 71.8748C89.086 67.9736 89.086 67.9736 86.793 64.8841C84.9349 63.9749 83.4251 64.2286 81.265 64.2286C81.1784 68.8147 81.0918 73.4008 81.0026 78.1259C82.89 77.9284 82.89 77.9284 84.152 76.8149C85.0576 74.9647 85.325 72.7851 85.7268 70.7839C85.9866 70.7839 86.2464 70.7839 86.5141 70.7839C86.5141 76.495 86.5141 82.206 86.5141 88.0901C86.2543 88.0901 85.9945 88.0901 85.7268 88.0901C85.6632 87.7926 85.5996 87.4952 85.534 87.1887C84.9586 84.208 84.9586 84.208 83.6271 81.5347C82.7951 81.0545 81.9686 80.7481 81.0026 80.7481C81.0267 82.7177 81.0549 84.6873 81.0859 86.6569C81.0959 87.3273 81.1051 87.9978 81.1133 88.6683C81.1252 89.6303 81.1405 90.5922 81.1564 91.5542C81.1594 91.8555 81.1624 92.1568 81.1655 92.4672C81.1708 92.7454 81.176 93.0236 81.1813 93.3102C81.1848 93.5559 81.1883 93.8016 81.1919 94.0548C81.21 94.698 81.21 94.698 81.7899 95.1699C83.7855 95.4127 85.6677 95.3743 87.3015 94.121C89.5583 92.201 90.4695 88.9395 91.5008 86.2546C91.7606 86.2546 92.0205 86.2546 92.2882 86.2546C92.2882 89.9422 91.6961 93.6085 91.2383 97.2676C85.2622 97.2676 79.2861 97.2676 73.1289 97.2676C73.1289 96.8349 73.1289 96.4023 73.1289 95.9565C73.5024 95.8024 73.5024 95.8024 73.8835 95.6452C74.7263 95.2489 74.7263 95.2489 75.0481 94.5635C75.4579 92.9632 75.53 91.447 75.5291 89.8054C75.53 89.5604 75.5309 89.3155 75.5318 89.0631C75.5343 88.256 75.5348 87.4489 75.5351 86.6418C75.5359 86.0788 75.5368 85.5158 75.5377 84.9528C75.5393 83.7736 75.5398 82.5944 75.5396 81.4151C75.5396 79.9069 75.5432 78.3986 75.5477 76.8904C75.5506 75.7278 75.5512 74.5652 75.551 73.4027C75.5513 72.8467 75.5525 72.2908 75.5545 71.7348C75.5571 70.9561 75.5563 70.1775 75.5548 69.3987C75.557 69.057 75.557 69.057 75.5592 68.7084C75.5509 67.0885 75.418 65.5534 74.6052 64.1139C74.1192 63.6469 73.7902 63.5331 73.1289 63.4419C73.1289 63.0093 73.1289 62.5766 73.1289 62.1309Z" fill="#8B8B8B"/>
<path d="M275.484 62.1309C281.287 62.1309 287.09 62.1309 293.069 62.1309C293.069 65.6786 293.069 69.2264 293.069 72.8817C292.809 72.8817 292.549 72.8817 292.282 72.8817C292.24 72.5903 292.198 72.2989 292.155 71.9987C291.761 69.4186 291.244 67.3171 289.723 65.1463C288.298 64.1974 286.583 64.1672 284.918 64.2357C284.408 64.2286 284.408 64.2286 283.62 63.9664C283.534 68.7256 283.447 73.4847 283.358 78.3882C285.582 77.8545 285.582 77.8545 286.356 76.9275C286.883 75.7832 287.134 74.673 287.36 73.4389C287.406 73.2083 287.451 72.9778 287.498 72.7403C287.608 72.1761 287.716 71.6115 287.82 71.0462C288.339 70.9164 288.339 70.9164 288.87 70.7839C288.87 76.495 288.87 82.206 288.87 88.0901C288.523 88.0901 288.177 88.0901 287.82 88.0901C287.775 87.8146 287.73 87.5391 287.684 87.2553C287.228 84.2614 287.228 84.2614 285.983 81.5347C285.121 80.9605 284.354 80.7486 283.358 80.4859C283.376 82.4929 283.399 84.4998 283.427 86.5067C283.436 87.1899 283.443 87.8731 283.449 88.5563C283.458 89.5365 283.471 90.5166 283.486 91.4968C283.488 91.8039 283.49 92.1109 283.491 92.4272C283.499 92.8524 283.499 92.8524 283.507 93.2861C283.51 93.5365 283.513 93.7869 283.516 94.0448C283.568 94.3421 283.568 94.3421 283.62 94.6455C284.855 95.4679 286.112 95.313 287.557 95.1699C289.026 94.7854 289.984 93.9607 290.835 92.726C291.985 90.6885 292.886 88.4816 293.594 86.2546C294.027 86.2546 294.46 86.2546 294.906 86.2546C294.63 88.8816 294.323 91.503 293.971 94.121C293.938 94.3731 293.905 94.6251 293.87 94.8848C293.822 95.2368 293.822 95.2368 293.773 95.596C293.745 95.8049 293.717 96.0138 293.688 96.229C293.594 96.7432 293.594 96.7432 293.331 97.2676C287.442 97.2676 281.552 97.2676 275.484 97.2676C275.484 96.8349 275.484 96.4023 275.484 95.9565C275.728 95.87 275.972 95.7835 276.223 95.6943C277.303 95.0168 277.55 94.2628 277.846 93.0722C277.951 92.1742 277.954 91.2871 277.948 90.3839C277.95 90.1231 277.951 89.8623 277.953 89.5936C277.956 88.737 277.954 87.8805 277.951 87.0238C277.952 86.4257 277.952 85.8276 277.953 85.2294C277.954 83.9781 277.953 82.7269 277.949 81.4756C277.945 79.8739 277.947 78.2722 277.952 76.6704C277.955 75.4361 277.954 74.2018 277.952 72.9675C277.951 72.3769 277.952 71.7864 277.954 71.1958C277.956 70.37 277.953 69.5443 277.948 68.7184C277.95 68.4758 277.952 68.2331 277.953 67.9831C277.937 66.3255 277.761 64.9302 276.534 63.7041C275.991 63.5357 275.991 63.5357 275.484 63.4419C275.484 63.0093 275.484 62.5766 275.484 62.1309Z" fill="#8B8B8B"/>
<path d="M246.219 63.3967C246.913 63.783 246.913 63.783 247.925 63.708C248.099 63.1023 248.272 62.4966 248.45 61.8725C249.1 61.7427 249.1 61.7427 249.763 61.6103C249.763 65.7638 249.763 69.9173 249.763 74.1966C249.329 74.1101 248.896 74.0236 248.45 73.9344C248.377 73.6491 248.303 73.3638 248.228 73.0699C247.563 70.5948 246.767 68.4652 245.301 66.3302C245.19 66.1666 245.08 66.003 244.966 65.8344C244.157 64.7576 243.111 63.9902 241.889 63.4458C240.908 63.313 240.295 63.3649 239.363 63.6753C236.27 66.4402 236.12 72.1982 235.889 76.0599C235.252 86.2379 235.252 86.2379 238.889 95.3633C239.788 96.1657 240.415 96.3222 241.609 96.2892C242.445 96.1866 243.03 95.8993 243.726 95.436C244.379 94.502 244.331 93.5151 244.33 92.4174C244.331 92.2266 244.332 92.0358 244.333 91.8393C244.335 91.4357 244.335 91.0322 244.334 90.6286C244.333 90.018 244.339 89.4077 244.346 88.7971C244.355 86.7887 244.347 84.9596 243.464 83.1119C242.669 82.6713 242.669 82.6713 241.889 82.5875C241.889 82.1548 241.889 81.7222 241.889 81.2764C245.353 81.2764 248.818 81.2764 252.387 81.2764C252.387 81.7091 252.387 82.1417 252.387 82.5875C251.926 82.7497 251.464 82.9118 251.003 83.074C250.332 83.5184 250.258 83.9124 250.025 84.6852C249.953 85.4998 249.959 86.3108 249.962 87.1281C249.958 87.609 249.954 88.0899 249.95 88.5708C249.945 89.3258 249.943 90.0806 249.945 90.8356C249.946 91.5666 249.938 92.2971 249.93 93.0279C249.932 93.2536 249.935 93.4792 249.938 93.7117C249.912 95.2782 249.912 95.2782 249.145 96.0877C246.431 97.639 242.761 98.9279 239.625 98.1493C236.323 97.0817 234.137 94.9042 232.539 91.8961C229.23 85.1511 229.373 76.656 231.687 69.6253C232.92 66.4332 234.993 63.4391 238.198 62.0036C241.227 60.9639 243.49 61.9847 246.219 63.3967Z" fill="#8B8B8B"/>
<path d="M181.46 62.6335C182.325 62.9265 182.976 62.975 183.882 62.9203C184.055 62.4876 184.228 62.055 184.407 61.6092C184.753 61.6092 185.1 61.6092 185.457 61.6092C185.457 65.4166 185.457 69.2239 185.457 73.1467C185.11 73.1467 184.764 73.1467 184.407 73.1467C184.333 72.8644 184.26 72.5822 184.184 72.2914C183.047 67.9271 183.047 67.9271 180.371 64.4116C179.207 63.8701 178.318 63.6851 177.058 63.9692C175.815 64.7789 175.448 65.8345 175.092 67.2171C174.697 69.2483 174.92 70.8379 176.008 72.6222C177.026 74.0475 178.174 74.8046 179.683 75.6705C183.263 77.7613 185.731 80.2144 186.965 84.2805C187.761 87.6721 187.493 91.4238 185.801 94.5008C184.515 96.4597 182.662 97.6385 180.395 98.2076C178.337 98.5457 176.632 97.9696 174.7 97.3298C173.738 97.0163 172.814 96.859 171.809 96.746C171.722 97.2652 171.636 97.7843 171.546 98.3193C171.2 98.3193 170.854 98.3193 170.497 98.3193C170.497 94.0792 170.497 89.8392 170.497 85.4707C170.843 85.4707 171.189 85.4707 171.546 85.4707C171.579 85.6238 171.612 85.7769 171.646 85.9346C172.723 91.4551 172.723 91.4551 176.189 95.6807C177.414 96.0733 178.439 95.9948 179.683 95.6971C181.083 94.967 181.531 93.7112 182.045 92.2883C182.487 90.7766 182.553 89.2585 181.897 87.8143C180.721 85.7695 178.82 84.4493 176.927 83.1108C173.683 80.8169 171.332 78.4704 170.382 74.4741C169.837 70.7944 170.059 66.7921 172.334 63.7069C175.001 60.8652 178.062 61.2285 181.46 62.6335Z" fill="#8B8B8B"/>
<path d="M29.0352 62.1309C32.413 62.1309 35.7908 62.1309 39.2709 62.1309C39.2709 62.5635 39.2709 62.9962 39.2709 63.4419C39.0706 63.5068 38.8703 63.5717 38.664 63.6386C37.8786 64.0036 37.6058 64.2772 37.1713 65.0152C36.8507 66.0839 36.8681 67.1364 36.8665 68.2431C36.8652 68.4624 36.8639 68.6817 36.8626 68.9077C36.8587 69.6335 36.857 70.3593 36.8555 71.0851C36.854 71.5921 36.8525 72.0992 36.851 72.6062C36.8482 73.6709 36.8467 74.7355 36.8458 75.8002C36.8443 77.1555 36.838 78.5107 36.8306 79.866C36.8256 80.9148 36.8243 81.9636 36.8239 83.0124C36.8231 83.5115 36.821 84.0105 36.8176 84.5095C36.6591 89.8881 36.6591 89.8881 38.746 94.6455C39.8496 95.2861 40.942 95.5497 42.2071 95.3338C43.4258 94.9336 44.1296 94.1506 44.7825 93.0722C45.1205 92.3004 45.3689 91.5298 45.5699 90.7122C45.6152 90.5317 45.6606 90.3511 45.7073 90.1651C45.8758 89.1354 45.8732 88.1286 45.8746 87.0869C45.8759 86.8565 45.8772 86.6261 45.8785 86.3887C45.8824 85.6287 45.8842 84.8687 45.8856 84.1087C45.8871 83.5794 45.8886 83.0501 45.8902 82.5207C45.8929 81.4118 45.8944 80.3029 45.8954 79.1939C45.8968 77.7741 45.9031 76.3543 45.9106 74.9344C45.9155 73.8414 45.9168 72.7484 45.9172 71.6553C45.918 71.1319 45.9201 70.6084 45.9236 70.085C45.9281 69.3526 45.9276 68.6203 45.9259 67.8879C45.9283 67.6725 45.9307 67.4571 45.9332 67.2351C45.9239 65.9573 45.7637 65.0687 45.0449 63.9664C44.3738 63.5926 44.3738 63.5926 43.7327 63.4419C43.7327 63.0093 43.7327 62.5766 43.7327 62.1309C45.8979 62.1309 48.0632 62.1309 50.2941 62.1309C50.2074 62.5635 50.1208 62.9962 50.0316 63.4419C49.723 63.5393 49.723 63.5393 49.4083 63.6386C48.6978 63.8904 48.6978 63.8904 48.4834 64.4336C48.0109 65.8652 47.8188 67.1269 47.831 68.6301C47.8296 68.847 47.8281 69.064 47.8267 69.2875C47.8241 69.7545 47.8234 70.2214 47.8242 70.6884C47.8253 71.431 47.8216 72.1733 47.8167 72.9159C47.8071 74.4941 47.8035 76.0724 47.8007 77.6507C47.7975 79.477 47.7918 81.3033 47.7797 83.1296C47.7762 83.8549 47.7773 84.5801 47.7785 85.3054C47.7664 89.2672 47.5265 93.4082 44.6841 96.4646C42.9657 98.027 41.0149 98.3609 38.746 98.3165C36.7708 97.9979 35.1223 96.9485 33.8403 95.4311C32.0384 92.9088 31.3598 90.1716 31.3559 87.1151C31.3545 86.8877 31.3532 86.6603 31.3518 86.426C31.349 85.9334 31.3468 85.4408 31.345 84.9482C31.3419 84.1677 31.3368 83.3873 31.331 82.6068C31.3149 80.3882 31.3007 78.1697 31.2919 75.951C31.2864 74.5927 31.2771 73.2345 31.2655 71.8763C31.2618 71.3596 31.2595 70.843 31.2586 70.3264C31.2573 69.6028 31.2513 68.8793 31.2441 68.1558C31.2453 67.8378 31.2453 67.8378 31.2465 67.5133C31.2265 66.1465 31.0032 65.1749 30.3474 63.9664C29.6798 63.5719 29.6798 63.5719 29.0352 63.4419C29.0352 63.0093 29.0352 62.5766 29.0352 62.1309Z" fill="#8B8B8B"/>
<path d="M252.125 62.1309C255.503 62.1309 258.881 62.1309 262.361 62.1309C262.361 62.5635 262.361 62.9962 262.361 63.4419C262.16 63.5068 261.96 63.5717 261.754 63.6386C260.968 64.0036 260.696 64.2772 260.261 65.0152C259.942 66.0795 259.96 67.1253 259.961 68.2273C259.96 68.4449 259.959 68.6626 259.958 68.8868C259.955 69.6066 259.955 70.3263 259.955 71.0462C259.954 71.5486 259.953 72.051 259.952 72.5534C259.95 73.608 259.95 74.6625 259.95 75.717C259.95 77.0611 259.946 78.4053 259.942 79.7494C259.939 80.7883 259.939 81.8272 259.939 82.8661C259.938 83.3612 259.937 83.8562 259.935 84.3513C259.76 89.7883 259.76 89.7883 261.836 94.6455C262.917 95.3604 264.025 95.5431 265.297 95.3338C266.515 94.9361 267.205 94.1366 267.872 93.0722C268.826 91.1406 268.961 89.1822 268.96 87.0613C268.961 86.8313 268.962 86.6012 268.963 86.3643C268.965 85.6069 268.966 84.8497 268.966 84.0923C268.967 83.564 268.968 83.0357 268.969 82.5073C268.97 81.4011 268.971 80.2948 268.971 79.1886C268.971 77.7731 268.974 76.3578 268.979 74.9424C268.982 73.8516 268.982 72.7608 268.982 71.67C268.982 71.1482 268.984 70.6264 268.986 70.1047C268.988 69.3743 268.987 68.6439 268.986 67.9135C268.987 67.6994 268.989 67.4854 268.99 67.2648C268.983 65.9802 268.807 64.9234 268.397 63.7041C267.878 63.6176 267.358 63.5311 266.823 63.4419C266.823 63.0093 266.823 62.5766 266.823 62.1309C268.988 62.1309 271.153 62.1309 273.384 62.1309C273.297 62.5635 273.211 62.9962 273.121 63.4419C272.813 63.5393 272.813 63.5393 272.498 63.6386C271.788 63.8904 271.788 63.8904 271.573 64.4331C271.098 65.8709 270.91 67.136 270.925 68.6458C270.924 68.8645 270.923 69.0832 270.922 69.3085C270.92 69.7793 270.92 70.2501 270.922 70.7209C270.924 71.4702 270.922 72.2194 270.918 72.9686C270.907 75.0976 270.907 77.2266 270.907 79.3556C270.907 80.6625 270.902 81.9692 270.894 83.2759C270.892 84.0068 270.895 84.7374 270.898 85.4682C270.89 89.2305 270.675 93.3771 267.893 96.2075C266.05 97.907 264.333 98.3355 261.836 98.3165C259.862 98.0021 258.21 96.9464 256.93 95.4311C255.12 92.897 254.45 90.1471 254.446 87.0869C254.444 86.8565 254.443 86.6261 254.442 86.3887C254.439 85.8897 254.437 85.3906 254.435 84.8916C254.432 84.1013 254.427 83.311 254.421 82.5207C254.405 80.2742 254.391 78.0276 254.382 75.7811C254.376 74.4058 254.367 73.0306 254.355 71.6553C254.352 71.1319 254.349 70.6084 254.348 70.085C254.347 69.3525 254.341 68.6203 254.334 67.8879C254.335 67.6725 254.336 67.457 254.336 67.2351C254.318 65.96 254.153 65.0666 253.437 63.9664C252.766 63.5926 252.766 63.5926 252.125 63.4419C252.125 63.0093 252.125 62.5766 252.125 62.1309Z" fill="#8B8B8B"/>
<path d="M295.168 62.1309C301.317 62.1309 307.467 62.1309 313.802 62.1309C313.802 65.5921 313.802 69.0533 313.802 72.6194C313.542 72.6194 313.283 72.6194 313.015 72.6194C312.957 72.3122 312.9 72.0049 312.841 71.6884C312.118 67.5885 312.118 67.5885 309.603 64.458C308.817 64.2291 308.048 64.0941 307.241 63.9664C307.257 67.798 307.277 71.6296 307.303 75.4612C307.315 77.2404 307.325 79.0195 307.332 80.7987C307.339 82.5159 307.349 84.2331 307.362 85.9502C307.367 86.6052 307.37 87.2602 307.372 87.9151C307.374 88.8329 307.381 89.7505 307.39 90.6683C307.39 90.9387 307.389 91.2092 307.389 91.4879C307.408 92.997 307.539 94.1086 308.291 95.4321C308.958 95.8266 308.958 95.8266 309.603 95.9565C309.603 96.3892 309.603 96.8218 309.603 97.2676C306.225 97.2676 302.847 97.2676 299.367 97.2676C299.367 96.8349 299.367 96.4023 299.367 95.9565C299.611 95.8754 299.854 95.7943 300.105 95.7107C301.277 94.9535 301.433 94.1365 301.729 92.81C301.835 91.8366 301.844 90.8728 301.843 89.8943C301.846 89.6126 301.848 89.3309 301.851 89.0407C301.859 88.1171 301.861 87.1936 301.864 86.27C301.868 85.6266 301.873 84.9833 301.878 84.34C301.89 82.6524 301.898 80.9648 301.905 79.2771C301.913 77.5528 301.925 75.8285 301.937 74.1041C301.96 70.7249 301.977 67.3456 301.992 63.9664C301.613 64.0446 301.234 64.1245 300.856 64.205C300.645 64.2493 300.434 64.2936 300.217 64.3393C299.104 64.6265 298.567 65.1296 297.975 66.102C296.923 68.1761 296.569 70.3455 296.218 72.6194C295.871 72.6194 295.525 72.6194 295.168 72.6194C295.168 69.1582 295.168 65.697 295.168 62.1309Z" fill="#8B8B8B"/>
<path d="M135.332 62.1309C135.678 62.1309 136.025 62.1309 136.382 62.1309C137.349 65.5216 138.231 68.93 139.08 72.352C139.302 73.243 139.524 74.1337 139.746 75.0244C140.216 76.9103 140.686 78.7964 141.155 80.6825C141.702 82.8813 142.25 85.08 142.798 87.2785C143.017 88.1542 143.234 89.0301 143.452 89.9061C143.585 90.442 143.719 90.978 143.853 91.514C143.913 91.7559 143.972 91.9978 144.034 92.2471C144.326 93.4147 144.641 94.5584 145.043 95.6943C145.476 95.7808 145.909 95.8674 146.355 95.9565C146.355 96.3892 146.355 96.8218 146.355 97.2676C143.064 97.2676 139.773 97.2676 136.382 97.2676C136.382 96.8349 136.382 96.4023 136.382 95.9565C136.605 95.8759 136.605 95.8759 136.832 95.7937C137.024 95.723 137.217 95.6524 137.415 95.5796C137.607 95.5096 137.799 95.4397 137.996 95.3676C138.477 95.2082 138.477 95.2082 138.744 94.9077C139.002 93.0447 138.559 91.3217 138.068 89.5414C137.826 88.6613 137.694 87.9636 137.694 87.0412C135.356 87.0412 133.017 87.0412 130.608 87.0412C130.521 87.9065 130.435 88.7719 130.345 89.6634C130.207 90.2475 130.207 90.2475 130.066 90.8433C129.772 92.108 129.63 93.3535 129.82 94.6455C130.322 95.3797 130.626 95.613 131.461 95.891C131.612 95.9126 131.764 95.9342 131.92 95.9565C131.92 96.3892 131.92 96.8218 131.92 97.2676C129.841 97.2676 127.763 97.2676 125.621 97.2676C125.621 96.8349 125.621 96.4023 125.621 95.9565C125.786 95.9356 125.951 95.9147 126.121 95.8932C126.708 95.7512 126.708 95.7512 126.911 95.2321C126.962 95.0269 127.014 94.8217 127.068 94.6103C127.131 94.3715 127.193 94.1327 127.258 93.8867C127.324 93.6179 127.39 93.3491 127.458 93.0722C127.571 92.6408 127.571 92.6408 127.686 92.2007C127.949 91.1941 128.204 90.1857 128.458 89.1769C128.554 88.7964 128.65 88.4159 128.747 88.0354C128.951 87.2301 129.154 86.4247 129.357 85.6192C129.674 84.3634 129.992 83.1078 130.31 81.8522C130.363 81.6437 130.415 81.4351 130.47 81.2203C130.576 80.7993 130.683 80.3782 130.789 79.9572C130.949 79.3265 131.109 78.6959 131.268 78.0652C132.191 74.4185 133.12 70.7735 134.052 67.1293C134.12 66.8673 134.187 66.6053 134.256 66.3354C134.614 64.9338 134.973 63.5323 135.332 62.1309ZM134.02 73.1439C133.32 75.6361 132.705 78.1455 132.117 80.6661C132.046 80.9668 131.975 81.2674 131.902 81.5771C131.836 81.8616 131.77 82.1461 131.703 82.4392C131.643 82.6943 131.584 82.9494 131.523 83.2122C131.363 83.9508 131.363 83.9508 131.395 84.9435C133.301 84.9435 135.206 84.9435 137.169 84.9435C136.216 81.0496 135.264 77.1558 134.282 73.1439C134.196 73.1439 134.109 73.1439 134.02 73.1439Z" fill="#8B8B8B"/>
<path d="M218.266 62.1309C221.903 62.1309 225.541 62.1309 229.289 62.1309C229.289 62.5635 229.289 62.9962 229.289 63.4419C229.045 63.5014 228.802 63.5609 228.551 63.6222C227.515 64.0481 227.367 64.2575 226.927 65.2774C226.812 66.1935 226.819 67.1028 226.825 68.025C226.823 68.4396 226.823 68.4396 226.821 68.8627C226.817 69.7759 226.819 70.6891 226.822 71.6023C226.822 72.2375 226.821 72.8727 226.82 73.5078C226.819 74.839 226.82 76.1701 226.824 77.5012C226.828 79.2068 226.826 80.9123 226.821 82.6179C226.818 83.9296 226.819 85.2412 226.821 86.5529C226.822 87.1817 226.821 87.8106 226.819 88.4394C226.817 89.3188 226.82 90.198 226.825 91.0773C226.823 91.3369 226.822 91.5964 226.82 91.8638C226.833 93.2385 226.905 94.2621 227.714 95.4321C228.518 95.8096 228.518 95.8096 229.289 95.9565C229.289 96.3892 229.289 96.8218 229.289 97.2676C225.738 97.2676 222.187 97.2676 218.528 97.2676C218.441 96.8349 218.355 96.4023 218.266 95.9565C218.596 95.9241 218.926 95.8916 219.266 95.8582C219.857 95.7363 219.857 95.7363 220.365 95.4321C221.223 93.8117 221.267 91.9352 221.255 90.1427C221.256 89.8903 221.257 89.638 221.259 89.378C221.262 88.5523 221.26 87.7267 221.257 86.9009C221.258 86.3224 221.259 85.7439 221.259 85.1654C221.261 83.9565 221.259 82.7477 221.255 81.5388C221.251 79.9935 221.253 78.4483 221.258 76.903C221.261 75.7096 221.26 74.5163 221.258 73.3229C221.257 72.7533 221.258 72.1836 221.26 71.614C221.262 70.8165 221.259 70.0193 221.255 69.2219C221.256 68.9893 221.258 68.7567 221.259 68.517C221.244 66.9915 221.022 65.62 220.365 64.2286C219.863 63.7449 219.863 63.7449 219.266 63.5567C219.078 63.4806 218.891 63.4045 218.697 63.3262C218.555 63.2779 218.412 63.2295 218.266 63.1797C218.266 62.8336 218.266 62.4875 218.266 62.1309Z" fill="#8B8B8B"/>
<path d="M35.5464 112.937C36.1205 113.265 36.1205 113.265 36.383 113.527C36.42 114.227 36.3941 114.923 36.383 115.625C36.4973 115.461 36.6117 115.296 36.7295 115.127C37.9993 113.386 37.9993 113.386 39.0567 112.806C39.7949 112.74 39.7949 112.74 40.4182 112.954C41.0921 113.86 40.9372 114.791 40.8447 115.887C40.6772 116.74 40.4419 117.563 40.1886 118.394C40.126 118.609 40.0634 118.823 39.9989 119.044C39.8462 119.566 39.6897 120.087 39.5324 120.607C39.7327 120.434 39.933 120.261 40.1393 120.082C40.8447 119.558 40.8447 119.558 41.6321 119.558C41.1134 120.73 40.3561 121.503 39.27 122.18C38.5702 122.165 38.1958 122.156 37.6952 121.656C37.709 119.982 38.0962 118.418 38.5615 116.821C38.7898 115.986 38.9119 115.174 39.0075 114.314C36.8648 116.274 35.745 119.133 35.0707 121.918C34.4644 121.918 33.8581 121.918 33.2335 121.918C33.3421 120.576 33.4864 119.268 33.7748 117.952C34.0213 116.799 34.0645 115.753 34.0209 114.576C31.9968 116.645 31.2063 119.205 30.3465 121.918C29.7402 121.918 29.1339 121.918 28.5093 121.918C28.8854 119.544 29.3388 117.192 29.8216 114.838C29.6646 114.919 29.5076 115 29.3459 115.084C28.7717 115.363 28.7717 115.363 27.9844 115.625C28.4033 114.537 29.1598 113.697 30.084 113.003C30.8222 112.888 30.8222 112.888 31.3963 113.003C31.9335 113.539 31.8426 114.656 31.9212 115.363C32.1053 115.076 32.2893 114.789 32.4789 114.494C33.2774 113.385 34.1084 112.554 35.5464 112.937ZM35.858 116.149C36.1205 116.674 36.1205 116.674 36.1205 116.674L35.858 116.149Z" fill="#8B8B8B"/>
<path d="M289.604 110.448C290.211 110.934 290.601 111.266 290.965 111.956C291.117 113.319 290.934 114.218 290.178 115.365C289.472 115.856 289.472 115.856 288.865 116.151C289.039 116.27 289.212 116.389 289.39 116.512C290.085 117.422 290.065 118.053 290.016 119.174C289.818 120.45 289.217 121.132 288.209 121.887C286.75 122.356 285.053 122.547 283.597 121.964C283.008 121.584 282.619 121.238 282.304 120.609C282.091 118.895 282.347 117.811 283.354 116.413C283.944 115.905 283.944 115.905 284.404 115.627C284.276 115.523 284.149 115.42 284.018 115.313C283.369 114.549 283.476 113.825 283.509 112.858C283.616 112.218 283.616 112.218 284.158 111.448C285.863 110.252 287.601 109.559 289.604 110.448ZM286.323 111.563C285.465 112.488 285.493 113.065 285.453 114.316C285.54 114.575 285.627 114.835 285.716 115.102C286.981 115.403 286.981 115.403 288.176 115.037C288.817 114.348 288.865 113.802 288.931 112.874C288.941 111.984 288.941 111.984 288.537 111.448C287.706 110.944 287.129 111.113 286.323 111.563ZM284.666 117.462C284.421 118.197 284.361 118.683 284.354 119.445C284.351 119.651 284.347 119.857 284.343 120.069C284.353 120.668 284.353 120.668 284.929 121.133C286.038 121.28 286.586 121.248 287.537 120.642C288.2 119.637 288.225 118.982 288.227 117.804C288.126 117.162 288.126 117.162 287.585 116.734C286.303 115.996 285.546 116.364 284.666 117.462Z" fill="#8B8B8B"/>
<path d="M224.568 108.549C224.388 111.052 223.874 113.47 223.37 115.924C223.283 116.354 223.195 116.784 223.108 117.214C222.896 118.259 222.683 119.304 222.468 120.348C222.674 120.219 222.879 120.089 223.091 119.955C223.78 119.562 223.78 119.562 224.305 119.562C223.785 120.74 223.014 121.481 221.943 122.184C221.172 122.282 221.172 122.282 220.631 122.184C220.458 121.665 220.284 121.146 220.106 120.611C219.895 120.822 219.684 121.033 219.466 121.25C218.531 122.184 218.531 122.184 217.662 122.282C216.694 122.184 216.694 122.184 216.054 121.643C215.429 120.469 215.483 119.635 215.827 118.361C216.518 116.283 217.455 114.259 219.319 113.006C220.353 112.573 220.506 112.799 221.681 113.269C221.854 112.144 222.027 111.019 222.206 109.86C221.859 109.86 221.513 109.86 221.156 109.86C221.242 109.514 221.329 109.168 221.418 108.811C221.894 108.767 222.37 108.724 222.845 108.68C223.243 108.643 223.243 108.643 223.648 108.606C224.305 108.549 224.305 108.549 224.568 108.549ZM219.138 114.809C218.005 116.616 217.627 118.505 217.744 120.611C218.177 120.697 218.61 120.784 219.056 120.873C220.422 119.326 221.286 117.666 221.681 115.629C221.594 114.773 221.594 114.773 221.418 114.055C220.255 113.866 219.961 113.93 219.138 114.809ZM220.368 119.824C220.631 120.348 220.631 120.348 220.631 120.348L220.368 119.824Z" fill="#8B8B8B"/>
<path d="M130.344 108.549C130.723 109.306 130.509 109.791 130.345 110.616C130.285 110.922 130.225 111.228 130.163 111.543C130.098 111.864 130.033 112.184 129.967 112.515C129.871 112.999 129.871 112.999 129.773 113.493C129.615 114.293 129.455 115.092 129.294 115.891C129.454 115.646 129.613 115.402 129.778 115.15C130.444 114.171 131.096 113.261 132.197 112.761C132.884 112.739 133.207 112.853 133.756 113.269C134.059 114.275 133.989 115.012 133.757 116.027C133.667 116.429 133.667 116.429 133.575 116.839C133.51 117.115 133.445 117.392 133.378 117.677C133.315 117.959 133.251 118.241 133.185 118.531C133.028 119.225 132.868 119.918 132.706 120.611C132.912 120.438 133.117 120.265 133.329 120.086C134.018 119.562 134.018 119.562 134.543 119.562C134.4 120.529 134.072 120.886 133.296 121.463C133.031 121.668 133.031 121.668 132.759 121.877C132.08 122.238 131.628 122.242 130.869 122.184C130.426 120.614 130.855 119.319 131.262 117.792C131.393 117.297 131.521 116.801 131.648 116.305C131.706 116.087 131.764 115.869 131.824 115.644C131.976 115.09 131.976 115.09 131.656 114.58C130.726 115.407 130.231 116.252 129.688 117.366C129.609 117.527 129.53 117.688 129.449 117.853C128.805 119.183 128.234 120.537 127.719 121.922C127.2 121.922 126.68 121.922 126.145 121.922C126.294 119.72 126.73 117.602 127.194 115.448C127.337 114.781 127.479 114.113 127.621 113.446C127.684 113.154 127.747 112.861 127.812 112.56C127.988 111.663 128.122 110.766 128.244 109.86C127.725 109.86 127.205 109.86 126.669 109.86C126.831 109.348 126.831 109.348 127.194 108.811C127.935 108.651 127.935 108.651 128.802 108.614C129.089 108.6 129.377 108.585 129.673 108.569C130.005 108.559 130.005 108.559 130.344 108.549ZM128.769 116.415C129.032 116.94 129.032 116.94 129.032 116.94L128.769 116.415Z" fill="#8B8B8B"/>
<path d="M94.3904 108.809C95.4297 108.809 96.469 108.809 97.5398 108.809C97.3836 110.363 97.1649 111.877 96.8499 113.407C96.8095 113.607 96.7691 113.807 96.7274 114.014C96.6 114.644 96.4712 115.275 96.3424 115.905C96.255 116.336 96.1677 116.768 96.0804 117.199C95.8681 118.248 95.6545 119.297 95.4402 120.346C95.6459 120.216 95.8516 120.086 96.0635 119.953C96.7525 119.559 96.7525 119.559 97.2774 119.559C96.7571 120.737 95.9863 121.479 94.9153 122.182C94.1443 122.28 94.1443 122.28 93.603 122.182C93.4298 121.662 93.2566 121.143 93.0781 120.608C92.867 120.819 92.6559 121.03 92.4384 121.247C91.5034 122.182 91.5034 122.182 90.6176 122.247C89.6662 122.182 89.6662 122.182 89.2284 121.85C88.5733 120.998 88.5658 120.082 88.6163 119.035C89.1455 116.735 90.2914 114.348 92.2907 113.004C93.0349 112.692 93.2829 112.722 94.0623 112.988C94.3546 113.126 94.3546 113.126 94.6528 113.266C94.7409 112.84 94.8283 112.414 94.9153 111.988C94.964 111.751 95.0127 111.513 95.0629 111.269C95.1935 110.664 95.1935 110.664 95.1777 110.12C94.8313 110.033 94.4849 109.947 94.1279 109.857C94.2145 109.511 94.3011 109.165 94.3904 108.809ZM92.1103 114.807C90.9776 116.614 90.5989 118.503 90.716 120.608C91.149 120.695 91.5821 120.781 92.0283 120.87C93.3945 119.324 94.2585 117.664 94.6528 115.626C94.5661 114.771 94.5661 114.771 94.3904 114.053C93.2273 113.864 92.9328 113.928 92.1103 114.807ZM93.603 119.297C93.8655 119.822 93.8655 119.822 93.8655 119.822L93.603 119.297ZM93.3405 119.822C93.603 120.346 93.603 120.346 93.603 120.346L93.3405 119.822Z" fill="#8B8B8B"/>
<path d="M174.698 113.269C174.785 113.183 174.871 113.096 174.961 113.007C175.573 112.996 176.185 112.996 176.798 113.007C176.597 114.116 176.394 115.225 176.191 116.334C176.135 116.643 176.079 116.952 176.021 117.271C174.738 124.252 174.738 124.252 172.992 125.561C171.652 125.991 170.32 126.011 168.924 125.856C168.664 125.683 168.404 125.509 168.137 125.331C168.223 124.898 168.31 124.466 168.399 124.02C169.049 123.89 169.049 123.89 169.711 123.758C169.814 123.931 169.917 124.104 170.023 124.282C170.458 124.866 170.458 124.866 171.155 124.938C171.828 124.863 171.828 124.863 172.254 124.397C172.877 123.241 173.123 122.182 173.123 120.873C172.961 121.041 172.799 121.209 172.631 121.382C171.896 122.094 171.685 122.175 170.646 122.25C169.711 122.185 169.711 122.185 169.219 121.906C168.581 120.807 168.578 119.974 168.826 118.758C169.5 116.337 170.474 114.441 172.598 113.007C173.549 112.69 173.817 112.865 174.698 113.269ZM172.108 115.162C170.982 116.932 170.721 118.559 170.761 120.611C171.194 120.698 171.627 120.784 172.074 120.873C173.827 118.975 174.724 116.935 174.698 114.318C174.425 113.997 174.425 113.997 173.845 113.941C172.951 114.083 172.642 114.452 172.108 115.162ZM173.386 120.087C173.648 120.611 173.648 120.611 173.648 120.611L173.386 120.087Z" fill="#8B8B8B"/>
<path d="M242.415 113.271C243.21 114.462 243.108 115.545 242.94 116.942C242.368 118.993 241.484 120.607 239.79 121.924C238.936 122.35 238.112 122.216 237.166 122.186C237.036 122.056 237.036 122.056 236.903 121.924C236.817 122.248 236.73 122.573 236.641 122.907C236.592 123.09 236.543 123.272 236.493 123.46C236.343 124.097 236.343 124.097 236.378 125.07C236.811 125.157 237.244 125.243 237.691 125.333C237.691 125.506 237.691 125.679 237.691 125.857C235.958 125.857 234.226 125.857 232.441 125.857C232.441 125.684 232.441 125.511 232.441 125.333C232.815 125.243 232.815 125.243 233.196 125.152C234.046 124.899 234.046 124.899 234.305 124.244C234.573 123.397 234.762 122.557 234.937 121.685C234.971 121.515 235.005 121.345 235.04 121.169C235.112 120.811 235.183 120.453 235.253 120.095C235.361 119.548 235.471 119.002 235.582 118.455C235.651 118.106 235.721 117.757 235.79 117.408C235.852 117.092 235.915 116.776 235.98 116.451C236.144 115.597 236.144 115.597 236.116 114.582C235.91 114.755 235.704 114.928 235.492 115.106C234.804 115.631 234.804 115.631 234.279 115.631C234.698 114.541 235.455 113.707 236.378 113.009C237.1 112.877 237.1 112.877 237.691 113.009C238.252 113.569 238.327 113.83 238.478 114.582C238.667 114.376 238.857 114.171 239.052 113.959C240.208 112.882 240.97 112.452 242.415 113.271ZM239.003 114.844C238.519 115.571 238.519 115.571 238.15 116.401C238.019 116.674 237.887 116.947 237.752 117.228C237.173 118.592 237.117 119.666 237.166 121.137C237.439 121.462 237.439 121.462 238.035 121.498C238.773 121.462 238.773 121.462 239.282 120.908C240.351 119.184 241.223 117.177 241.102 115.106C240.861 114.527 240.861 114.527 240.578 114.057C239.959 114.057 239.482 114.505 239.003 114.844Z" fill="#8B8B8B"/>
<path d="M247.664 112.746C247.924 112.833 248.184 112.919 248.452 113.008C248.908 114.608 248.462 115.998 248.074 117.564C248.011 117.832 247.947 118.1 247.881 118.377C247.724 119.035 247.564 119.693 247.402 120.35C248.233 120.188 248.233 120.188 248.862 119.638C250.217 117.545 251.061 115.437 251.601 113.008C252.207 113.008 252.814 113.008 253.438 113.008C253.226 114.079 253.012 115.15 252.799 116.22C252.738 116.524 252.678 116.828 252.616 117.141C252.528 117.58 252.528 117.58 252.439 118.027C252.358 118.431 252.358 118.431 252.276 118.843C252.152 119.437 252.017 120.025 251.864 120.613C252.113 120.439 252.362 120.266 252.618 120.088C253.438 119.564 253.438 119.564 253.963 119.564C253.442 120.743 252.671 121.48 251.601 122.186C250.847 122.301 250.847 122.301 250.289 122.186C250.026 121.924 250.026 121.924 250.01 120.989C250.015 120.692 250.021 120.395 250.026 120.088C249.88 120.288 249.734 120.488 249.584 120.694C248.748 121.665 248.116 122.114 246.844 122.317C246.09 122.186 246.09 122.186 245.629 121.641C245.192 120.617 245.36 120.049 245.614 118.974C245.653 118.801 245.692 118.628 245.733 118.45C245.848 117.946 245.968 117.444 246.09 116.942C246.194 116.466 246.298 115.991 246.401 115.516C246.472 115.207 246.542 114.899 246.615 114.582C246.409 114.755 246.203 114.928 245.991 115.106C245.302 115.63 245.302 115.63 244.777 115.63C245.136 114.804 245.527 114.317 246.221 113.746C246.381 113.612 246.54 113.479 246.705 113.341C247.139 113.008 247.139 113.008 247.664 112.746ZM250.289 119.039C250.551 119.564 250.551 119.564 250.551 119.564L250.289 119.039Z" fill="#8B8B8B"/>
<path d="M49.2441 113.267C49.3307 113.181 49.4174 113.094 49.5066 113.005C50.0314 112.994 50.5565 112.994 51.0813 113.005C50.9287 114.774 50.5966 116.458 50.1945 118.188C50.0506 118.937 49.9987 119.589 50.0315 120.347C50.1939 120.217 50.3563 120.088 50.5236 119.954C51.0813 119.561 51.0813 119.561 51.6062 119.561C51.0883 120.731 50.331 121.509 49.2441 122.183C48.4732 122.15 48.4732 122.15 47.9319 121.92C47.8019 121.271 47.8019 121.271 47.6694 120.609C47.4583 120.82 47.2472 121.031 47.0297 121.249C46.0947 122.183 46.0947 122.183 45.2089 122.248C44.2575 122.183 44.2575 122.183 43.7654 121.822C43.0852 120.841 43.074 119.933 43.2077 118.774C43.7209 116.781 44.5816 114.463 46.2864 113.191C47.4031 112.627 48.1412 112.757 49.2441 113.267ZM46.7344 114.677C45.3701 116.51 44.8994 118.357 45.0449 120.609C45.6327 120.859 45.6327 120.859 46.3571 120.872C47.8674 119.804 48.4682 118.093 48.8515 116.33C48.9771 115.469 48.9971 114.887 48.7192 114.054C47.7374 113.886 47.4782 113.988 46.7344 114.677Z" fill="#8B8B8B"/>
<path d="M4.10038 109.07C5.83259 109.07 7.56479 109.07 9.34949 109.07C9.34949 109.416 9.34949 109.763 9.34949 110.119C8.97871 110.178 8.97871 110.178 8.60044 110.238C7.76905 110.543 7.76905 110.543 7.55249 111.087C7.38773 111.7 7.26855 112.307 7.16168 112.932C7.1173 113.158 7.07293 113.384 7.02721 113.617C6.88698 114.34 6.75667 115.065 6.62651 115.79C6.53318 116.28 6.43921 116.77 6.34458 117.26C6.11399 118.462 5.89226 119.666 5.67511 120.87C6.27119 120.833 6.86716 120.794 7.46309 120.755C7.79499 120.734 8.12688 120.713 8.46883 120.691C9.34734 120.641 9.34734 120.641 10.1369 120.346C10.2235 119.913 10.3101 119.48 10.3993 119.034C10.6591 119.034 10.919 119.034 11.1867 119.034C11.0135 119.986 10.8402 120.938 10.6618 121.919C7.71702 122.005 4.77227 122.092 1.73828 122.181C1.73828 121.921 1.73828 121.662 1.73828 121.394C2.38786 121.265 2.38786 121.265 3.05056 121.132C3.67269 118.708 4.26201 116.278 4.82213 113.839C4.88056 113.587 4.93898 113.336 4.99918 113.076C5.05307 112.84 5.10697 112.603 5.16251 112.359C5.2108 112.148 5.2591 111.938 5.30886 111.72C5.43688 111.133 5.43688 111.133 5.41266 110.381C4.76308 110.122 4.76308 110.122 4.10038 109.857C4.10038 109.597 4.10038 109.338 4.10038 109.07Z" fill="#8B8B8B"/>
<path d="M303.886 110.35C304.137 110.351 304.389 110.352 304.648 110.354C305.055 110.355 305.055 110.355 305.471 110.356C305.756 110.359 306.042 110.361 306.336 110.363C306.767 110.365 306.767 110.365 307.205 110.367C307.916 110.37 308.627 110.374 309.338 110.379C309.252 110.726 309.165 111.072 309.076 111.428C307.603 111.428 306.131 111.428 304.614 111.428C304.533 111.937 304.452 112.445 304.368 112.969C304.122 114.509 304.122 114.509 303.827 115.099C304 115.013 304.173 114.926 304.352 114.837C305.347 114.698 306.31 114.614 307.21 115.112C307.977 115.744 308.503 116.239 308.613 117.242C308.658 118.775 308.557 119.67 307.501 120.868C306.208 122.034 305.333 122.215 303.613 122.212C303.298 122.212 302.982 122.213 302.657 122.214C301.798 122.182 300.996 122.079 300.152 121.917C300.239 121.571 300.326 121.225 300.415 120.868C300.684 120.877 300.953 120.886 301.23 120.896C301.587 120.903 301.944 120.91 302.301 120.917C302.478 120.924 302.655 120.93 302.837 120.937C304.012 120.954 304.739 120.814 305.664 120.081C306.324 118.975 306.324 118.975 306.382 117.718C306.23 117.157 306.23 117.157 305.926 116.41C304.615 116.107 304.615 116.107 303.384 116.525C303.083 116.728 303.083 116.728 302.777 116.935C302.43 116.935 302.084 116.935 301.727 116.935C301.886 115.461 302.145 114.06 302.514 112.625C302.561 112.436 302.608 112.248 302.656 112.054C303.077 110.391 303.077 110.391 303.886 110.35Z" fill="#8B8B8B"/>
<path d="M143.564 113.781C144.488 114.952 144.366 116.309 144.253 117.73C143.913 119.451 142.912 120.757 141.629 121.926C140.56 122.282 139.596 122.361 138.479 122.188C137.541 121.685 136.984 121.115 136.642 120.09C136.327 117.766 136.914 115.992 138.217 114.059C139.749 112.478 141.856 112.388 143.564 113.781ZM139.93 114.49C138.931 116.058 138.705 117.211 138.709 119.074C138.708 119.399 138.708 119.724 138.707 120.059C138.685 120.852 138.685 120.852 139.004 121.401C139.616 121.511 139.616 121.511 140.317 121.401C141.634 120.201 142.101 118.56 142.211 116.829C142.219 115.988 142.219 115.16 142.154 114.321C141.865 113.985 141.865 113.985 141.17 113.912C140.318 113.968 140.318 113.968 139.93 114.49Z" fill="#8B8B8B"/>
<path d="M165.777 113.271C166.95 114.504 167.185 115.339 167.161 116.995C166.992 118.718 166.401 120.137 165.088 121.284C163.845 122.241 162.865 122.336 161.315 122.186C160.551 121.861 160.154 121.64 159.714 120.938C159.152 119.537 159.263 117.892 159.708 116.47C160.484 114.788 161.53 113.447 163.284 112.746C164.216 112.746 164.911 112.924 165.777 113.271ZM162.578 114.565C161.449 116.472 161.035 118.398 161.315 120.613C161.488 120.872 161.662 121.132 161.84 121.399C162.727 121.458 162.727 121.458 163.677 121.137C164.71 119.63 165.027 117.913 165.022 116.122C165.023 115.846 165.024 115.569 165.024 115.284C165.037 114.589 165.037 114.589 164.727 114.057C163.761 113.947 163.323 113.906 162.578 114.565Z" fill="#8B8B8B"/>
<path d="M293.59 110.381C296.015 110.381 298.44 110.381 300.938 110.381C300.938 111.855 300.938 111.855 300.36 112.735C300.234 112.93 300.108 113.125 299.978 113.326C299.84 113.533 299.702 113.74 299.56 113.954C299.273 114.396 298.986 114.838 298.698 115.281C298.549 115.509 298.4 115.737 298.246 115.971C297.495 117.126 296.766 118.294 296.034 119.46C295.771 119.879 295.507 120.297 295.243 120.716C295.133 120.891 295.022 121.067 294.908 121.248C294.639 121.656 294.639 121.656 294.377 121.918C293.68 122.038 292.98 122.102 292.277 122.181C292.726 120.848 293.489 119.732 294.246 118.559C294.529 118.116 294.812 117.672 295.095 117.229C295.237 117.006 295.38 116.783 295.527 116.554C296.178 115.533 296.82 114.506 297.461 113.478C297.574 113.298 297.687 113.117 297.803 112.931C298.061 112.518 298.319 112.105 298.576 111.692C297.975 111.685 297.373 111.68 296.772 111.676C296.269 111.671 296.269 111.671 295.757 111.666C294.932 111.631 294.932 111.631 294.377 111.954C294.188 112.385 294.011 112.822 293.852 113.265C293.592 113.265 293.332 113.265 293.065 113.265C293.238 112.313 293.411 111.362 293.59 110.381Z" fill="#8B8B8B"/>
<path d="M206.721 113.009C207.541 113.419 207.541 113.419 208.033 114.058C208.181 114.992 208.181 114.992 208.033 115.893C207.227 116.756 206.35 116.928 205.199 116.968C204.944 116.965 204.688 116.962 204.424 116.959C204.166 116.956 203.907 116.954 203.641 116.951C203.445 116.948 203.249 116.945 203.047 116.942C202.899 118.79 202.899 118.79 203.391 120.531C204.541 121.092 205.727 120.953 206.983 120.875C206.524 121.892 206.524 121.892 205.934 122.187C205.382 122.232 204.83 122.257 204.277 122.268C203.98 122.278 203.683 122.288 203.378 122.298C202.341 122.163 201.939 121.874 201.209 121.138C200.403 119.899 200.527 118.52 200.806 117.115C201.271 115.509 202.093 114.125 203.541 113.227C204.577 112.82 205.628 112.87 206.721 113.009ZM203.719 114.664C203.243 115.346 203.243 115.346 203.309 116.156C204.848 116.254 204.848 116.254 206.196 115.631C206.433 115.119 206.433 115.119 206.458 114.582C206.372 114.409 206.285 114.236 206.196 114.058C204.816 113.907 204.816 113.907 203.719 114.664Z" fill="#8B8B8B"/>
<path d="M79.6935 113.009C80.5137 113.419 80.5137 113.419 81.0058 114.058C81.1534 114.992 81.1534 114.992 81.0058 115.893C80.1997 116.756 79.3223 116.928 78.1721 116.968C77.9163 116.965 77.6606 116.962 77.397 116.959C77.1386 116.956 76.8801 116.954 76.6138 116.951C76.4176 116.948 76.2213 116.945 76.0192 116.942C75.8716 118.79 75.8716 118.79 76.3636 120.531C77.5137 121.092 78.6998 120.953 79.956 120.875C79.4967 121.892 79.4967 121.892 78.9062 122.187C78.3551 122.232 77.8022 122.257 77.2494 122.268C76.9527 122.278 76.656 122.288 76.3503 122.298C75.3132 122.163 74.9112 121.874 74.182 121.138C73.3755 119.899 73.4997 118.52 73.7791 117.115C74.2435 115.509 75.0654 114.125 76.5133 113.227C77.5498 112.82 78.6011 112.87 79.6935 113.009ZM76.6917 114.664C76.2157 115.346 76.2157 115.346 76.2816 116.156C77.8205 116.254 77.8205 116.254 79.1686 115.631C79.4061 115.119 79.4061 115.119 79.4311 114.582C79.3445 114.409 79.2579 114.236 79.1686 114.058C77.7887 113.907 77.7887 113.907 76.6917 114.664Z" fill="#8B8B8B"/>
<path d="M184.412 113.01C185.101 113.419 185.101 113.419 185.462 114.058C185.593 114.993 185.593 114.993 185.462 115.894C184.705 116.676 183.945 116.932 182.858 116.968C182.434 116.964 182.434 116.964 182 116.959C181.573 116.956 181.573 116.956 181.136 116.952C180.918 116.949 180.7 116.946 180.475 116.943C180.498 117.451 180.526 117.959 180.557 118.467C180.58 118.891 180.58 118.891 180.603 119.324C180.685 120.076 180.685 120.076 181.049 120.581C181.722 120.999 182.232 120.953 183.017 120.925C183.409 120.915 183.409 120.915 183.808 120.904C184.007 120.895 184.206 120.885 184.412 120.876C184.33 121.384 184.33 121.384 184.149 121.925C182.778 122.381 180.997 122.567 179.665 121.922C178.982 121.368 178.654 120.925 178.375 120.089C178.176 117.974 178.499 116.158 179.638 114.353C181.036 112.997 182.525 112.726 184.412 113.01ZM181.443 114.517C181.012 115.091 180.838 115.455 180.737 116.156C182.276 116.255 182.276 116.255 183.624 115.632C183.862 115.12 183.862 115.12 183.887 114.583C183.8 114.41 183.714 114.237 183.624 114.058C182.68 113.973 182.213 113.935 181.443 114.517Z" fill="#8B8B8B"/>
<path d="M18.798 113.002C19.6182 113.411 19.6182 113.411 20.1103 114.05C20.2579 114.985 20.2579 114.985 20.1103 115.886C19.3534 116.668 18.594 116.924 17.5072 116.96C17.0825 116.956 17.0825 116.956 16.6491 116.951C16.2213 116.948 16.2213 116.948 15.7849 116.944C15.5667 116.941 15.3484 116.938 15.1236 116.935C15.1465 117.443 15.1749 117.951 15.2056 118.459C15.2285 118.883 15.2285 118.883 15.2518 119.316C15.3335 120.067 15.3335 120.067 15.6977 120.573C16.3711 120.99 16.8812 120.945 17.6662 120.917C18.0574 120.906 18.0574 120.906 18.4566 120.896C18.6559 120.886 18.8551 120.877 19.0604 120.868C18.9784 121.376 18.9784 121.376 18.798 121.917C17.427 122.373 15.6458 122.559 14.3137 121.914C13.6308 121.36 13.3026 120.917 13.024 120.081C12.8229 117.941 13.0956 115.924 14.4511 114.198C15.7585 112.892 17.0031 112.773 18.798 113.002ZM15.7962 114.657C15.3201 115.339 15.3201 115.339 15.3861 116.148C16.925 116.247 16.925 116.247 18.2731 115.624C18.5106 115.112 18.5106 115.112 18.5355 114.575C18.4489 114.402 18.3623 114.229 18.2731 114.05C16.8931 113.899 16.8931 113.899 15.7962 114.657Z" fill="#8B8B8B"/>
<path d="M231.917 112.999C232.754 113.54 232.754 113.54 233.229 114.31C233.295 115.261 233.295 115.261 232.967 116.146C231.494 117.138 229.969 117.017 228.243 116.932C228.147 118.834 228.147 118.834 228.768 120.603C229.462 120.95 229.995 120.891 230.769 120.882C231.032 120.88 231.295 120.877 231.566 120.875C231.87 120.87 231.87 120.87 232.179 120.866C232.097 121.374 232.097 121.374 231.917 121.914C230.555 122.368 229.136 122.34 227.718 122.177C226.915 121.742 226.55 121.154 226.143 120.341C225.909 118.048 226.104 116.218 227.455 114.31C228.846 112.985 230.03 112.742 231.917 112.999ZM228.948 114.654C228.475 115.345 228.475 115.345 228.243 116.146C229.694 116.261 229.694 116.261 230.998 115.752C231.128 115.623 231.258 115.493 231.392 115.359C231.305 114.926 231.219 114.494 231.13 114.048C230.085 113.929 229.712 113.891 228.948 114.654Z" fill="#8B8B8B"/>
<path d="M104.886 113.005C105.722 113.546 105.722 113.546 106.198 114.316C106.264 115.266 106.264 115.266 105.936 116.151C104.462 117.143 102.938 117.022 101.211 116.938C101.115 118.839 101.115 118.839 101.736 120.609C102.375 120.928 102.896 120.955 103.606 121.019C103.845 121.041 104.084 121.063 104.33 121.085C104.513 121.101 104.697 121.117 104.886 121.133C104.886 121.393 104.886 121.653 104.886 121.92C103.524 122.374 102.105 122.346 100.686 122.182C99.8838 121.747 99.5186 121.16 99.1117 120.347C98.9289 118.26 98.9481 116.352 100.162 114.578C101.571 113.084 102.877 112.731 104.886 113.005ZM101.917 114.66C101.444 115.35 101.444 115.35 101.211 116.151C101.707 116.159 101.707 116.159 102.212 116.168C102.398 116.171 102.583 116.174 102.775 116.177C103.364 116.173 103.364 116.173 104.098 115.889C104.198 115.367 104.286 114.842 104.361 114.316C104.072 113.974 104.072 113.974 103.36 113.955C102.481 113.971 102.481 113.971 101.917 114.66Z" fill="#8B8B8B"/>
<path d="M268.395 113.265C268.308 114.043 268.222 114.822 268.132 115.625C267.873 115.625 267.613 115.625 267.345 115.625C267.172 115.192 266.999 114.759 266.82 114.314C266.208 114.302 265.595 114.303 264.983 114.314C264.655 114.589 264.655 114.589 264.632 115.197C264.647 115.92 264.647 115.92 265.219 116.322C265.433 116.443 265.648 116.565 265.869 116.69C266.762 117.201 267.246 117.528 267.608 118.509C267.742 119.535 267.646 120.007 267.165 120.934C266.504 121.72 266.208 121.889 265.245 122.18C264.389 122.24 264.389 122.24 263.49 122.229C263.042 122.227 263.042 122.227 262.585 122.224C261.834 122.18 261.834 122.18 261.309 121.918C261.439 120.75 261.439 120.75 261.571 119.558C261.831 119.558 262.091 119.558 262.358 119.558C262.618 120.077 262.878 120.596 263.146 121.131C264.403 121.193 264.403 121.193 265.508 120.607C265.682 119.845 265.682 119.845 265.508 119.033C264.951 118.41 264.951 118.41 264.212 117.919C262.899 116.967 262.899 116.967 262.621 116.411C262.474 115.336 262.572 114.915 263.162 113.986C264.688 112.367 266.445 112.755 268.395 113.265Z" fill="#8B8B8B"/>
<path d="M118.272 108.549C118.542 109.359 118.534 109.6 118.375 110.403C118.334 110.617 118.293 110.83 118.25 111.05C118.204 111.28 118.157 111.509 118.11 111.746C118.063 111.982 118.017 112.218 117.969 112.462C117.871 112.961 117.771 113.46 117.671 113.959C117.518 114.725 117.367 115.491 117.217 116.257C117.121 116.742 117.025 117.226 116.929 117.711C116.883 117.941 116.838 118.171 116.791 118.408C116.748 118.621 116.705 118.833 116.661 119.052C116.624 119.24 116.586 119.427 116.547 119.62C116.434 120.086 116.434 120.086 116.172 120.611C116.372 120.438 116.573 120.265 116.779 120.086C117.484 119.562 117.484 119.562 118.272 119.562C117.754 120.732 116.996 121.511 115.909 122.184C115.139 122.151 115.139 122.151 114.597 121.922C114.301 120.647 114.41 119.621 114.702 118.367C114.763 118.088 114.763 118.088 114.825 117.804C114.954 117.215 115.087 116.627 115.221 116.038C115.351 115.451 115.481 114.863 115.611 114.275C115.691 113.911 115.773 113.546 115.855 113.182C116.103 112.077 116.287 110.981 116.434 109.86C115.915 109.86 115.395 109.86 114.86 109.86C115.03 109.348 115.03 109.348 115.385 108.811C116.067 108.651 116.067 108.651 116.861 108.614C117.124 108.6 117.387 108.585 117.658 108.569C117.962 108.559 117.962 108.559 118.272 108.549Z" fill="#8B8B8B"/>
<path d="M154.754 108.809C155.794 108.809 156.833 108.809 157.904 108.809C157.124 112.702 156.345 116.596 155.542 120.608C155.975 120.262 156.408 119.916 156.854 119.559C157.027 119.559 157.2 119.559 157.379 119.559C157.189 120.707 156.638 121.153 155.766 121.868C155.14 122.271 154.695 122.314 153.967 122.182C153.256 120.76 153.838 118.944 154.164 117.463C154.21 117.244 154.257 117.026 154.305 116.8C154.453 116.108 154.604 115.416 154.754 114.725C154.856 114.253 154.957 113.781 155.058 113.31C155.305 112.159 155.554 111.008 155.804 109.857C155.284 109.857 154.765 109.857 154.229 109.857C154.403 109.511 154.576 109.165 154.754 108.809Z" fill="#8B8B8B"/>
<path d="M63.158 110.381C63.4178 110.381 63.6777 110.381 63.9454 110.381C63.7722 111.16 63.5989 111.938 63.4205 112.741C64.1134 112.827 64.8062 112.914 65.5201 113.003C65.6067 113.349 65.6933 113.695 65.7826 114.052C64.9165 114.052 64.0504 114.052 63.158 114.052C63.1293 114.261 63.1005 114.471 63.0709 114.687C62.7802 116.698 62.3764 118.645 61.8457 120.607C62.0893 120.434 62.3329 120.261 62.5839 120.083C63.4205 119.558 63.4205 119.558 64.2078 119.558C63.8406 120.424 63.4304 120.894 62.6823 121.459C62.4199 121.664 62.4199 121.664 62.1523 121.873C61.472 122.241 61.0337 122.258 60.271 122.181C60.0085 121.918 60.0085 121.918 59.9511 121.18C59.9718 119.739 60.3433 118.351 60.6647 116.953C60.7273 116.673 60.7899 116.394 60.8544 116.106C61.0081 115.421 61.1636 114.736 61.3208 114.052C60.8012 114.138 60.2815 114.225 59.7461 114.314C59.8327 113.881 59.9193 113.449 60.0085 113.003C60.2552 112.974 60.2552 112.974 60.5068 112.944C61.1641 112.838 61.7501 112.722 62.3706 112.479C62.7997 111.718 62.7997 111.718 62.8956 110.905C62.9822 110.732 63.0688 110.559 63.158 110.381Z" fill="#8B8B8B"/>
<path d="M148.72 112.746C149.737 113.434 149.737 113.434 150.032 114.319C150.259 114.003 150.259 114.003 150.491 113.68C151.082 113.008 151.082 113.008 151.623 112.746C152.132 112.746 152.132 112.746 152.607 113.041C152.919 113.533 152.919 113.533 152.837 114.237C152.778 114.438 152.718 114.638 152.657 114.844C152.456 114.882 152.256 114.92 152.05 114.959C151.323 115.096 151.323 115.096 150.557 115.368C149.443 117.392 148.833 119.715 148.195 121.924C147.589 121.924 146.982 121.924 146.358 121.924C146.527 120.94 146.696 119.957 146.866 118.974C146.914 118.695 146.962 118.416 147.011 118.129C147.058 117.86 147.104 117.591 147.152 117.314C147.195 117.067 147.237 116.82 147.281 116.565C147.39 115.984 147.519 115.416 147.67 114.844C147.518 114.925 147.367 115.006 147.211 115.09C146.66 115.35 146.161 115.493 145.57 115.63C146.481 114.197 147.194 113.493 148.72 112.746ZM149.507 114.582C149.77 115.106 149.77 115.106 149.77 115.106L149.507 114.582Z" fill="#8B8B8B"/>
<path d="M189.657 112.746C189.916 112.833 190.176 112.919 190.444 113.008C190.756 113.68 190.756 113.68 190.969 114.319C191.169 114.108 191.369 113.898 191.576 113.68C192.281 113.008 192.281 113.008 193.068 112.746C193.643 113.123 193.643 113.123 194.118 113.533C194.032 113.965 193.945 114.398 193.856 114.844C193.656 114.882 193.455 114.92 193.249 114.959C192.522 115.096 192.522 115.096 191.756 115.368C190.702 117.162 190.018 119.108 189.537 121.125C189.394 121.661 189.394 121.661 189.132 121.924C188.607 121.934 188.082 121.935 187.557 121.924C187.71 120.154 188.042 118.47 188.444 116.741C188.588 115.992 188.64 115.34 188.607 114.582C188.401 114.755 188.195 114.928 187.983 115.106C187.294 115.63 187.294 115.63 186.77 115.63C187.128 114.804 187.519 114.317 188.213 113.746C188.373 113.612 188.532 113.479 188.697 113.341C189.132 113.008 189.132 113.008 189.657 112.746ZM190.444 114.844C190.706 115.368 190.706 115.368 190.706 115.368L190.444 114.844Z" fill="#8B8B8B"/>
<path d="M72.6333 112.942C73.1254 113.27 73.1254 113.27 73.3878 114.056C73.0926 114.63 73.0926 114.63 72.6005 115.105C72.2919 115.081 72.2919 115.081 71.9771 115.056C71.2153 115.035 71.2153 115.035 70.632 115.761C69.5897 117.356 69.1831 119.323 68.6636 121.136C68.577 121.396 68.4904 121.655 68.4012 121.923C67.7949 121.923 67.1886 121.923 66.564 121.923C66.6236 121.631 66.6236 121.631 66.6844 121.333C66.8638 120.454 67.042 119.574 67.2201 118.694C67.2827 118.388 67.3453 118.082 67.4098 117.767C67.469 117.473 67.5282 117.18 67.5892 116.878C67.6442 116.608 67.6991 116.337 67.7558 116.058C67.8988 115.355 67.8988 115.355 67.8763 114.581C67.6706 114.754 67.4649 114.927 67.2529 115.105C66.564 115.629 66.564 115.629 66.0391 115.629C66.4573 114.543 67.2136 113.699 68.1387 113.007C68.8933 112.909 68.8933 112.909 69.451 113.007C69.6242 113.527 69.7974 114.046 69.9759 114.581C70.1762 114.326 70.3765 114.072 70.5828 113.81C71.1736 113.061 71.6308 112.588 72.6333 112.942Z" fill="#8B8B8B"/>
<path d="M280.208 110.385C280.032 111.43 279.855 112.475 279.677 113.519C279.616 113.874 279.556 114.228 279.496 114.583C278.935 117.91 278.935 117.91 278.591 119.219C278.328 120.108 278.328 120.108 278.371 121.136C278.718 121.223 279.064 121.309 279.421 121.398C279.421 121.658 279.421 121.918 279.421 122.185C277.689 122.185 275.957 122.185 274.172 122.185C274.258 121.925 274.345 121.666 274.434 121.398C274.683 121.344 274.932 121.29 275.189 121.235C276.007 120.969 276.007 120.969 276.26 120.455C276.485 119.813 276.646 119.177 276.796 118.514C276.87 118.204 276.943 117.895 277.018 117.576C277.432 115.682 277.707 113.897 277.584 111.959C276.804 111.829 276.804 111.829 276.009 111.697C276.009 111.523 276.009 111.35 276.009 111.172C276.413 111.038 276.818 110.908 277.223 110.779C277.448 110.706 277.674 110.633 277.906 110.558C278.697 110.371 279.398 110.374 280.208 110.385Z" fill="#8B8B8B"/>
<path d="M197.27 112.746C197.811 112.992 197.811 112.992 198.32 113.533C198.358 115.158 197.883 116.827 197.516 118.4C197.467 118.615 197.418 118.829 197.368 119.05C197.249 119.571 197.128 120.092 197.007 120.613C197.208 120.439 197.408 120.266 197.614 120.088C198.32 119.564 198.32 119.564 199.107 119.564C198.586 120.743 197.815 121.48 196.745 122.186C195.99 122.301 195.99 122.301 195.433 122.186C195.17 121.924 195.17 121.924 195.121 121.169C195.14 119.827 195.43 118.531 195.695 117.22C195.745 116.966 195.795 116.711 195.847 116.449C195.97 115.826 196.094 115.204 196.22 114.582C196.014 114.755 195.809 114.928 195.597 115.106C194.908 115.63 194.908 115.63 194.383 115.63C194.742 114.804 195.133 114.317 195.826 113.746C195.986 113.612 196.146 113.479 196.31 113.341C196.745 113.008 196.745 113.008 197.27 112.746Z" fill="#8B8B8B"/>
<path d="M56.0706 112.746C56.6447 113.123 56.6447 113.123 57.1204 113.533C56.9445 115.131 56.6584 116.682 56.3167 118.253C56.2678 118.481 56.2189 118.709 56.1685 118.944C56.0492 119.5 55.9288 120.056 55.8081 120.613C56.0138 120.439 56.2195 120.266 56.4315 120.088C57.1204 119.564 57.1204 119.564 57.6453 119.564C57.4556 120.711 56.9054 121.158 56.0316 121.871C55.3992 122.281 54.9689 122.337 54.2334 122.186C53.971 121.924 53.971 121.924 53.9217 121.03C53.9387 119.676 54.2118 118.392 54.4959 117.073C54.5459 116.832 54.596 116.591 54.6476 116.343C54.7701 115.756 54.8946 115.168 55.0208 114.582C54.8151 114.755 54.6094 114.928 54.3975 115.106C53.7085 115.63 53.7085 115.63 53.1836 115.63C53.6032 114.541 54.3943 113.743 55.2832 113.008C55.5431 112.922 55.8029 112.835 56.0706 112.746Z" fill="#8B8B8B"/>
<path d="M258.16 112.746C258.506 112.919 258.853 113.092 259.21 113.271C259.343 115.644 258.944 117.79 258.422 120.088C258.595 120.088 258.769 120.088 258.947 120.088C259.12 119.915 259.294 119.742 259.472 119.564C259.732 119.564 259.992 119.564 260.259 119.564C259.967 120.44 259.691 120.71 259.013 121.317C258.835 121.48 258.658 121.644 258.475 121.812C257.784 122.259 257.393 122.281 256.585 122.186C256.323 121.924 256.323 121.924 256.273 121.169C256.293 119.827 256.582 118.531 256.847 117.22C256.898 116.966 256.948 116.711 256.999 116.449C257.122 115.826 257.246 115.204 257.372 114.582C257.167 114.755 256.961 114.928 256.749 115.106C256.06 115.63 256.06 115.63 255.535 115.63C255.915 114.727 256.395 114.225 257.143 113.598C257.333 113.437 257.523 113.277 257.719 113.111C257.937 112.93 257.937 112.93 258.16 112.746Z" fill="#8B8B8B"/>
<path d="M57.008 108.711C58.0451 109.295 58.3366 110.333 58.6976 111.431C58.6976 111.604 58.6976 111.778 58.6976 111.956C57.4509 111.759 57.4509 111.759 56.8604 111.169C56.0696 111.271 55.7064 111.501 55.0232 111.956C54.3179 111.989 54.3179 111.989 53.7109 111.956C53.7109 111.431 53.7109 111.431 54.2851 110.825C54.5287 110.592 54.7722 110.36 55.0232 110.12C55.2397 109.872 55.4563 109.623 55.6794 109.366C56.3355 108.809 56.3355 108.809 57.008 108.711Z" fill="#8B8B8B"/>
<path d="M123.98 109.33C124.571 109.855 124.571 109.855 124.751 110.576C124.499 111.764 123.917 112.484 122.996 113.264C122.241 113.51 122.241 113.51 121.684 113.526C121.77 113.266 121.857 113.007 121.946 112.739C122.119 112.739 122.292 112.739 122.471 112.739C122.558 112.22 122.644 111.701 122.733 111.166C122.56 111.166 122.387 111.166 122.209 111.166C122.209 110.647 122.209 110.128 122.209 109.593C122.927 109.088 123.134 109.023 123.98 109.33Z" fill="#8B8B8B"/>
<path d="M198.518 109.427C198.713 109.568 198.908 109.708 199.109 109.853C199.022 110.286 198.936 110.719 198.846 111.164C198.108 111.345 198.108 111.345 197.272 111.427C196.763 111.115 196.763 111.115 196.484 110.64C196.501 110.099 196.501 110.099 196.747 109.591C197.474 108.994 197.664 109.001 198.518 109.427Z" fill="#8B8B8B"/>
<path d="M258.683 109.07C259.322 109.267 259.322 109.267 259.995 109.595C260.257 110.103 260.257 110.103 260.257 110.644C259.979 111.119 259.979 111.119 259.47 111.43C258.633 111.348 258.633 111.348 257.895 111.168C257.698 110.709 257.698 110.709 257.633 110.119C258.141 109.529 258.141 109.529 258.683 109.07Z" fill="#8B8B8B"/>
</svg>
