<svg width="5" height="5" viewBox="0 0 5 5" fill="none" xmlns="http://www.w3.org/2000/svg">
<path d="M1.5736 3.07695H2.92344C3.75745 3.07695 3.88429 2.55301 4.03812 1.78886C4.0825 1.56845 4.10469 1.45824 4.05133 1.38482C3.99797 1.3114 3.8957 1.3114 3.69116 1.3114H1.2019" stroke="#22B4BE" stroke-width="0.278771" stroke-linecap="round"/>
<path d="M1.57379 3.07684L1.08664 0.756521C1.04527 0.591054 0.896601 0.474976 0.726044 0.474976H0.551636" stroke="#22B4BE" stroke-width="0.278771" stroke-linecap="round"/>
<path d="M1.73714 3.07703H1.66068C1.40731 3.07703 1.2019 3.29099 1.2019 3.55491C1.2019 3.5989 1.23614 3.63457 1.27837 3.63457H3.33915" stroke="#22B4BE" stroke-width="0.278771" stroke-linecap="round" stroke-linejoin="round"/>
<path d="M2.03866 4.19194C2.19262 4.19194 2.31743 4.06713 2.31743 3.91317C2.31743 3.75921 2.19262 3.6344 2.03866 3.6344C1.8847 3.6344 1.75989 3.75921 1.75989 3.91317C1.75989 4.06713 1.8847 4.19194 2.03866 4.19194Z" stroke="#22B4BE" stroke-width="0.278771"/>
<path d="M3.33944 4.19194C3.4934 4.19194 3.61821 4.06713 3.61821 3.91317C3.61821 3.75921 3.4934 3.6344 3.33944 3.6344C3.18548 3.6344 3.06067 3.75921 3.06067 3.91317C3.06067 4.06713 3.18548 4.19194 3.33944 4.19194Z" stroke="#22B4BE" stroke-width="0.278771"/>
</svg>
