<svg width="24" height="11" viewBox="0 0 24 11" fill="none" xmlns="http://www.w3.org/2000/svg">
<path d="M1.01987 5.49617C1.01987 7.72005 2.82268 9.52286 5.04655 9.52286C7.27043 9.52286 9.07324 7.72005 9.07324 5.49617C9.07324 3.27229 7.27043 1.46948 5.04655 1.46948C2.82268 1.46948 1.01987 3.27229 1.01987 5.49617Z" stroke="#7B7B7B" stroke-width="0.604003"/>
<path d="M4.44243 4.4895C4.2388 4.68743 3.43575 5.21423 3.43575 5.49617M3.43575 5.49617C3.43575 5.77812 4.2388 6.30493 4.44243 6.50285M3.43575 5.49617L6.6571 5.49617" stroke="#7B7B7B" stroke-width="0.604003" stroke-linecap="round" stroke-linejoin="round"/>
<path d="M22.8059 5.49617C22.8059 7.72005 21.0031 9.52286 18.7793 9.52286C16.5554 9.52286 14.7526 7.72005 14.7526 5.49617C14.7526 3.27229 16.5554 1.46948 18.7793 1.46948C21.0031 1.46948 22.8059 3.27229 22.8059 5.49617Z" stroke="white" stroke-width="0.604003"/>
<path d="M19.3836 4.4895C19.5873 4.68743 20.3903 5.21423 20.3903 5.49617M20.3903 5.49617C20.3903 5.77812 19.5873 6.30493 19.3836 6.50285M20.3903 5.49617L17.1689 5.49617" stroke="white" stroke-width="0.604003" stroke-linecap="round" stroke-linejoin="round"/>
</svg>
