<svg width="6" height="5" viewBox="0 0 6 5" fill="none" xmlns="http://www.w3.org/2000/svg">
<path d="M3.05159 4.19192C4.07799 4.19192 4.91006 3.35985 4.91006 2.33345C4.91006 1.30704 4.07799 0.474976 3.05159 0.474976C2.02518 0.474976 1.19312 1.30704 1.19312 2.33345C1.19312 3.35985 2.02518 4.19192 3.05159 4.19192Z" stroke="#22B4BE" stroke-width="0.278771"/>
<path d="M2.2157 3.2635C2.64904 2.80962 3.45032 2.78825 3.88832 3.2635M3.51572 1.86965C3.51572 2.12625 3.3074 2.33427 3.05043 2.33427C2.79348 2.33427 2.58516 2.12625 2.58516 1.86965C2.58516 1.61305 2.79348 1.40503 3.05043 1.40503C3.3074 1.40503 3.51572 1.61305 3.51572 1.86965Z" stroke="#22B4BE" stroke-width="0.278771" stroke-linecap="round"/>
</svg>
