<svg width="554" height="162" viewBox="0 0 554 162" fill="none" xmlns="http://www.w3.org/2000/svg">
<rect x="2.00538" y="2.18116" width="549.725" height="158.254" rx="54.1396" fill="white"/>
<rect x="2.00538" y="2.18116" width="549.725" height="158.254" rx="54.1396" stroke="white" stroke-width="2.77639"/>
<path d="M172.212 71.7043C171.975 69.7061 171.015 68.1549 169.333 67.0507C167.65 65.9465 165.586 65.3943 163.141 65.3943C161.353 65.3943 159.789 65.6835 158.448 66.262C157.12 66.8404 156.082 67.6357 155.333 68.6479C154.596 69.6601 154.228 70.8104 154.228 72.0987C154.228 73.1766 154.485 74.1034 154.997 74.879C155.523 75.6415 156.194 76.279 157.009 76.7917C157.824 77.2913 158.678 77.7054 159.572 78.034C160.466 78.3495 161.288 78.6058 162.037 78.803L166.138 79.9073C167.19 80.1833 168.36 80.5646 169.648 81.051C170.95 81.5374 172.192 82.2012 173.375 83.0425C174.571 83.8707 175.557 84.9355 176.333 86.237C177.109 87.5384 177.496 89.1356 177.496 91.0286C177.496 93.2108 176.925 95.1827 175.781 96.9442C174.65 98.7057 172.994 100.106 170.812 101.144C168.643 102.183 166.007 102.702 162.905 102.702C160.012 102.702 157.508 102.235 155.392 101.302C153.288 100.369 151.632 99.0673 150.423 97.3977C149.226 95.7282 148.549 93.7892 148.392 91.5807H153.44C153.571 93.1056 154.084 94.3676 154.978 95.3667C155.885 96.3526 157.028 97.0888 158.409 97.5752C159.802 98.0485 161.301 98.2851 162.905 98.2851C164.771 98.2851 166.447 97.9827 167.933 97.378C169.418 96.7602 170.595 95.9057 171.462 94.8146C172.33 93.7103 172.764 92.4221 172.764 90.9497C172.764 89.6089 172.389 88.5178 171.64 87.6764C170.891 86.8351 169.905 86.1515 168.682 85.6257C167.46 85.0999 166.138 84.6398 164.719 84.2454L159.75 82.8256C156.595 81.9186 154.097 80.6237 152.256 78.9411C150.416 77.2584 149.496 75.0565 149.496 72.3353C149.496 70.0742 150.107 68.1024 151.33 66.4197C152.565 64.7239 154.222 63.4093 156.299 62.476C158.389 61.5295 160.722 61.0562 163.299 61.0562C165.902 61.0562 168.215 61.5229 170.24 62.4562C172.264 63.3765 173.868 64.6384 175.051 66.2422C176.248 67.846 176.878 69.6667 176.944 71.7043H172.212ZM189.559 83.7721V101.992H184.906V61.6083H189.559V76.4368H189.954C190.663 74.8724 191.728 73.6302 193.148 72.71C194.581 71.7766 196.487 71.3099 198.866 71.3099C200.93 71.3099 202.738 71.724 204.289 72.5522C205.84 73.3672 207.043 74.6227 207.898 76.3185C208.765 78.0011 209.199 80.1439 209.199 82.7468V101.992H204.545V83.0623C204.545 80.6566 203.921 78.7965 202.672 77.4819C201.436 76.1542 199.721 75.4903 197.526 75.4903C196.001 75.4903 194.634 75.8124 193.424 76.4565C192.228 77.1007 191.281 78.0406 190.585 79.2763C189.901 80.512 189.559 82.0106 189.559 83.7721ZM230.017 102.623C227.283 102.623 224.884 101.972 222.82 100.671C220.769 99.3696 219.165 97.5489 218.008 95.209C216.865 92.869 216.293 90.1347 216.293 87.006C216.293 83.851 216.865 81.097 218.008 78.7439C219.165 76.3908 220.769 74.5635 222.82 73.2621C224.884 71.9607 227.283 71.3099 230.017 71.3099C232.751 71.3099 235.144 71.9607 237.195 73.2621C239.259 74.5635 240.862 76.3908 242.006 78.7439C243.163 81.097 243.741 83.851 243.741 87.006C243.741 90.1347 243.163 92.869 242.006 95.209C240.862 97.5489 239.259 99.3696 237.195 100.671C235.144 101.972 232.751 102.623 230.017 102.623ZM230.017 98.4428C232.094 98.4428 233.803 97.9104 235.144 96.8456C236.485 95.7808 237.477 94.3808 238.121 92.6455C238.766 90.9103 239.088 89.0304 239.088 87.006C239.088 84.9815 238.766 83.0951 238.121 81.3467C237.477 79.5983 236.485 78.1852 235.144 77.1072C233.803 76.0293 232.094 75.4903 230.017 75.4903C227.94 75.4903 226.231 76.0293 224.89 77.1072C223.549 78.1852 222.557 79.5983 221.913 81.3467C221.269 83.0951 220.946 84.9815 220.946 87.006C220.946 89.0304 221.269 90.9103 221.913 92.6455C222.557 94.3808 223.549 95.7808 224.89 96.8456C226.231 97.9104 227.94 98.4428 230.017 98.4428ZM250.845 113.35V71.7043H255.341V76.5157H255.893C256.235 75.9898 256.708 75.3194 257.313 74.5044C257.93 73.6762 258.811 72.94 259.955 72.2959C261.112 71.6386 262.676 71.3099 264.648 71.3099C267.198 71.3099 269.446 71.9475 271.392 73.2226C273.337 74.4978 274.856 76.3053 275.947 78.6453C277.038 80.9852 277.583 83.7458 277.583 86.9271C277.583 90.1347 277.038 92.915 275.947 95.2681C274.856 97.6081 273.344 99.4222 271.411 100.71C269.479 101.986 267.251 102.623 264.727 102.623C262.781 102.623 261.223 102.301 260.054 101.657C258.884 101 257.983 100.257 257.352 99.4288C256.721 98.5874 256.235 97.8907 255.893 97.3386H255.498V113.35H250.845ZM255.42 86.8482C255.42 89.1356 255.755 91.1535 256.425 92.9019C257.096 94.6371 258.075 95.9977 259.363 96.9836C260.652 97.9564 262.229 98.4428 264.096 98.4428C266.041 98.4428 267.665 97.9301 268.966 96.9048C270.281 95.8663 271.267 94.4728 271.924 92.7244C272.595 90.9629 272.93 89.0042 272.93 86.8482C272.93 84.7186 272.601 82.7993 271.944 81.0904C271.3 79.3683 270.32 78.0077 269.006 77.0086C267.704 75.9964 266.068 75.4903 264.096 75.4903C262.203 75.4903 260.612 75.9701 259.324 76.9298C258.036 77.8763 257.063 79.204 256.406 80.9129C255.748 82.6087 255.42 84.5872 255.42 86.8482ZM304.953 83.7721V101.992H300.299V71.7043H304.795V76.4368H305.19C305.899 74.8987 306.977 73.663 308.423 72.7297C309.869 71.7832 311.736 71.3099 314.023 71.3099C316.074 71.3099 317.869 71.7306 319.407 72.5719C320.945 73.4001 322.141 74.6621 322.995 76.3579C323.85 78.0406 324.277 80.1702 324.277 82.7468V101.992H319.624V83.0623C319.624 80.6829 319.006 78.8293 317.77 77.5016C316.534 76.1607 314.839 75.4903 312.683 75.4903C311.197 75.4903 309.869 75.8124 308.699 76.4565C307.543 77.1007 306.629 78.0406 305.959 79.2763C305.288 80.512 304.953 82.0106 304.953 83.7721ZM345.085 102.623C342.351 102.623 339.952 101.972 337.888 100.671C335.837 99.3696 334.233 97.5489 333.077 95.209C331.933 92.869 331.361 90.1347 331.361 87.006C331.361 83.851 331.933 81.097 333.077 78.7439C334.233 76.3908 335.837 74.5635 337.888 73.2621C339.952 71.9607 342.351 71.3099 345.085 71.3099C347.82 71.3099 350.212 71.9607 352.263 73.2621C354.327 74.5635 355.931 76.3908 357.074 78.7439C358.231 81.097 358.81 83.851 358.81 87.006C358.81 90.1347 358.231 92.869 357.074 95.209C355.931 97.5489 354.327 99.3696 352.263 100.671C350.212 101.972 347.82 102.623 345.085 102.623ZM345.085 98.4428C347.162 98.4428 348.871 97.9104 350.212 96.8456C351.553 95.7808 352.546 94.3808 353.19 92.6455C353.834 90.9103 354.156 89.0304 354.156 87.006C354.156 84.9815 353.834 83.0951 353.19 81.3467C352.546 79.5983 351.553 78.1852 350.212 77.1072C348.871 76.0293 347.162 75.4903 345.085 75.4903C343.008 75.4903 341.299 76.0293 339.958 77.1072C338.618 78.1852 337.625 79.5983 336.981 81.3467C336.337 83.0951 336.015 84.9815 336.015 87.006C336.015 89.0304 336.337 90.9103 336.981 92.6455C337.625 94.3808 338.618 95.7808 339.958 96.8456C341.299 97.9104 343.008 98.4428 345.085 98.4428ZM371.745 101.992L362.517 71.7043H367.407L373.953 94.8935H374.269L380.737 71.7043H385.706L392.095 94.8146H392.41L398.957 71.7043H403.847L394.619 101.992H390.044L383.418 78.7242H382.945L376.32 101.992H371.745Z" fill="black"/>
</svg>
