<svg width="220" height="117" viewBox="0 0 220 117" fill="none" xmlns="http://www.w3.org/2000/svg">
<g clip-path="url(#clip0_203_1896)">
<path d="M94.5775 0.105469C98.1966 0.105469 101.816 0.105469 105.544 0.105469C105.544 9.44436 105.544 18.7833 105.544 28.4052C107.693 27.6175 109.842 26.8299 112.056 26.0184C112.734 25.7934 113.413 25.5684 114.112 25.3365C114.225 17.0103 114.338 8.68402 114.455 0.105469C117.961 0.105469 121.467 0.105469 125.079 0.105469C125.192 6.74396 125.305 13.3825 125.421 20.2221C130.71 16.13 132.331 12.0475 133.209 5.6524C133.435 3.80743 133.547 1.96177 133.647 0.105469C136.022 0.105469 138.397 0.105469 140.843 0.105469C140.932 8.8123 139.806 17.3236 133.499 23.8645C131.077 26.2566 128.408 27.7775 125.421 29.428C125.252 45.4617 125.252 45.4617 125.079 61.8192C121.573 61.8192 118.067 61.8192 114.455 61.8192C114.455 52.5929 114.455 43.3665 114.455 33.8605C110.892 35.0419 110.892 35.0419 107.258 36.2472C106.692 36.3598 106.127 36.4723 105.544 36.5882C105.544 44.9144 105.544 53.2407 105.544 61.8192C101.925 61.8192 98.3062 61.8192 94.5775 61.8192C94.5775 55.2933 94.5775 48.7673 94.5775 42.0436C90.0973 45.3866 87.5988 49.1044 86.6952 54.6591C86.4052 57.0415 86.2101 59.4273 86.0098 61.8192C83.6348 61.8192 81.2598 61.8192 78.8129 61.8192C78.5273 53.2027 80.1159 45.3888 86.0432 38.8657C88.3041 36.5252 90.8685 34.4571 93.8921 33.1786C94.1183 33.1786 94.3445 33.1786 94.5775 33.1786C94.5775 22.2645 94.5775 11.3503 94.5775 0.105469Z" fill="#8B8B8B"/>
<path d="M82.9258 80.2317C88.3861 80.179 88.3861 80.179 93.9568 80.1252C95.0971 80.1097 96.2374 80.0941 97.4122 80.0782C98.3287 80.0732 99.2452 80.0688 100.162 80.0653C100.393 80.0608 100.625 80.0563 100.864 80.0518C104.685 79.9821 108.441 80.4082 111.392 83.066C113.344 85.278 114.25 87.7495 114.21 90.6923C113.924 93.0077 113.12 95.0329 111.371 96.5978C111.635 97.6638 111.635 97.6638 112.485 98.3239C114.44 100.241 115.25 102.414 115.333 105.122C115.216 108.029 114.42 110.615 112.376 112.76C107.317 116.919 100.197 116.133 94.0569 116.103C92.7448 116.096 91.4328 116.096 90.1207 116.096C89.2873 116.094 88.454 116.092 87.6206 116.09C87.0317 116.089 87.0317 116.089 86.4308 116.089C86.0701 116.086 85.7094 116.084 85.3377 116.082C85.0199 116.081 84.7021 116.079 84.3746 116.078C83.6112 116.033 83.6112 116.033 82.9258 115.692C82.9258 103.99 82.9258 92.2881 82.9258 80.2317ZM90.4654 87.0509C90.4654 89.4138 90.4654 91.7766 90.4654 94.2111C92.081 94.2268 93.6963 94.2404 95.312 94.2486C95.8607 94.252 96.4095 94.2566 96.9583 94.2625C97.7503 94.2709 98.5423 94.2747 99.3344 94.2777C99.5769 94.2812 99.8194 94.2847 100.069 94.2884C102.05 94.2888 103.841 94.1324 105.352 92.7833C106.04 91.5506 106.087 90.8297 105.887 89.4377C105.208 88.2217 104.759 87.819 103.439 87.3494C102.046 87.0349 100.752 86.9638 99.3344 86.9843C99.0791 86.9853 98.8239 86.9863 98.5609 86.9873C97.7544 86.9911 96.948 86.9996 96.1416 87.0083C95.5911 87.0117 95.0407 87.0149 94.4903 87.0176C93.1485 87.0245 91.8071 87.0379 90.4654 87.0509ZM90.4654 100.689C90.4654 103.39 90.4654 106.09 90.4654 108.872C92.2274 108.888 93.9892 108.902 95.7512 108.91C96.3499 108.913 96.9485 108.918 97.5471 108.924C98.4106 108.932 99.2741 108.936 100.138 108.939C100.403 108.942 100.668 108.946 100.941 108.95C102.933 108.95 104.784 108.811 106.38 107.509C107.155 106.027 107.14 104.714 106.916 103.076C106.354 101.736 105.843 101.234 104.517 100.689C103.812 100.592 103.812 100.592 103.071 100.612C102.79 100.612 102.509 100.612 102.219 100.612C101.919 100.616 101.618 100.619 101.309 100.623C100.999 100.624 100.689 100.625 100.37 100.626C99.3816 100.629 98.3935 100.638 97.4053 100.647C96.7346 100.65 96.0639 100.653 95.3932 100.656C93.7505 100.663 92.1081 100.676 90.4654 100.689Z" fill="#8B8B8B"/>
<path d="M180.945 82.6181C181.918 83.3546 182.867 84.0985 183.686 85.0049C183.686 85.2299 183.686 85.4549 183.686 85.6868C183.913 85.6868 184.139 85.6868 184.372 85.6868C188 90.2832 188.831 95.2617 188.415 100.959C187.774 105.648 185.087 109.627 181.502 112.62C177.224 115.798 172.081 117.248 166.78 116.568C161.195 115.641 156.614 113.125 153.228 108.531C150.147 103.857 149.364 98.7624 150.508 93.2731C151.225 90.5095 152.471 87.9575 154.213 85.6868C154.439 85.6868 154.666 85.6868 154.899 85.6868C154.977 85.4894 155.055 85.2921 155.136 85.0888C156.871 82.1254 161.239 80.4486 164.401 79.5122C170.155 78.1508 176.052 79.4307 180.945 82.6181ZM159.697 91.1421C157.949 93.9183 157.141 96.9585 157.824 100.195C158.33 102.008 159.032 103.532 160.039 105.122C160.266 105.122 160.492 105.122 160.725 105.122C160.805 105.325 160.885 105.528 160.967 105.737C161.975 107.439 164.215 108.279 165.994 109C169.653 109.628 172.754 109.248 175.967 107.347C178.336 105.68 179.923 103.449 180.731 100.668C181.279 97.2292 180.929 94.1921 178.941 91.2181C176.792 88.6383 174.292 86.8673 170.887 86.5152C166.436 86.2542 162.477 87.4694 159.697 91.1421Z" fill="#8B8B8B"/>
<path d="M0.332031 80.2305C2.70701 80.2305 5.082 80.2305 7.52895 80.2305C7.52895 84.5061 7.52895 88.7817 7.52895 93.187C13.1837 93.187 18.8384 93.187 24.6645 93.187C24.6645 88.9113 24.6645 84.6357 24.6645 80.2305C27.1526 80.2305 29.6406 80.2305 32.2041 80.2305C32.2041 91.9322 32.2041 103.634 32.2041 115.69C31.4259 116.077 30.9899 116.075 30.1264 116.077C29.8534 116.077 29.5804 116.077 29.2991 116.078C29.0137 116.077 28.7283 116.075 28.4343 116.074C28.1489 116.075 27.8635 116.077 27.5695 116.078C27.16 116.077 27.16 116.077 26.7422 116.077C26.4917 116.076 26.2412 116.076 25.9831 116.075C25.3499 116.031 25.3499 116.031 24.6645 115.69C24.6645 110.852 24.6645 106.014 24.6645 101.029C19.0098 101.029 13.355 101.029 7.52895 101.029C7.52895 105.867 7.52895 110.705 7.52895 115.69C5.38081 116.759 2.73372 116.031 0.332031 116.031C0.332031 104.217 0.332031 92.4027 0.332031 80.2305Z" fill="#8B8B8B"/>
<path d="M41.4582 80.2305C43.9463 80.2305 46.4344 80.2305 48.9978 80.2305C49.0028 80.8597 49.0078 81.489 49.013 82.1374C49.0308 84.2318 49.0532 86.3262 49.0786 88.4206C49.0938 89.6887 49.1073 90.9567 49.1166 92.2248C49.1256 93.4519 49.1395 94.6788 49.1566 95.9058C49.1649 96.5946 49.1684 97.2835 49.1718 97.9724C49.2201 101.033 49.4349 104.087 50.9256 106.825C53.1565 108.694 55.2469 109.003 58.1011 109.042C58.3763 109.048 58.6516 109.054 58.9352 109.061C61.1132 109.038 62.9549 108.512 64.6011 107.038C66.2218 105.243 66.559 103.402 66.5853 101.055C66.5888 100.829 66.5922 100.602 66.5958 100.369C66.6063 99.6274 66.6122 98.8858 66.618 98.1442C66.6244 97.6273 66.6311 97.1104 66.6381 96.5935C66.6556 95.2382 66.6692 93.8828 66.682 92.5275C66.6957 91.1424 66.7132 89.7573 66.7304 88.3722C66.7635 85.6583 66.7921 82.9444 66.8188 80.2305C69.42 80.2305 72.0211 80.2305 74.7011 80.2305C74.7245 82.9873 74.7433 85.7441 74.7544 88.501C74.7597 89.7817 74.7669 91.0623 74.7787 92.343C74.79 93.5832 74.796 94.8234 74.7987 96.0637C74.8005 96.5324 74.8042 97.0012 74.8098 97.4699C74.8779 103.379 74.1198 108.894 69.9032 113.304C66.0829 116.785 60.8017 116.971 55.8962 116.821C51.6021 116.604 48.0914 115.321 45.0995 112.174C43.8862 110.729 43.1266 109.27 42.4863 107.507C42.352 107.184 42.2177 106.86 42.0794 106.527C41.2435 103.329 41.4116 99.9253 41.4247 96.6458C41.4254 96.1696 41.4259 95.6934 41.4262 95.2171C41.4275 93.9767 41.4308 92.7363 41.4347 91.4959C41.4382 90.2249 41.4397 88.9539 41.4415 87.683C41.4451 85.1988 41.4511 82.7146 41.4582 80.2305Z" fill="#8B8B8B"/>
<path d="M190.535 80.2305C200.148 80.2305 209.761 80.2305 219.666 80.2305C219.666 82.8184 219.666 85.4062 219.666 88.0725C216.16 88.0725 212.654 88.0725 209.042 88.0725C209.042 97.1864 209.042 106.3 209.042 115.69C206.553 115.69 204.065 115.69 201.502 115.69C201.502 106.576 201.502 97.4626 201.502 88.0725C197.883 88.0725 194.264 88.0725 190.535 88.0725C190.535 85.4847 190.535 82.8968 190.535 80.2305Z" fill="#8B8B8B"/>
<path d="M124.051 80.2305C126.652 80.2305 129.253 80.2305 131.933 80.2305C131.933 89.3443 131.933 98.4582 131.933 107.848C137.331 107.835 137.331 107.835 142.73 107.818C143.404 107.817 144.077 107.816 144.751 107.815C145.281 107.812 145.281 107.812 145.822 107.81C146.156 107.81 146.49 107.81 146.834 107.81C147.126 107.809 147.417 107.808 147.718 107.807C148.383 107.848 148.383 107.848 148.726 108.189C148.726 110.665 148.726 113.14 148.726 115.69C140.583 115.69 132.44 115.69 124.051 115.69C124.051 103.989 124.051 92.2868 124.051 80.2305Z" fill="#8B8B8B"/>
</g>
<defs>
<clipPath id="clip0_203_1896">
<rect width="219.335" height="116.608" fill="white" transform="translate(0.332031 0.105469)"/>
</clipPath>
</defs>
</svg>
