<svg width="43" height="5" viewBox="0 0 43 5" fill="none" xmlns="http://www.w3.org/2000/svg">
<path d="M2.81749 1.6697C2.80103 1.52361 2.73313 1.41044 2.61378 1.33019C2.49444 1.24891 2.34423 1.20827 2.16316 1.20827C2.03352 1.20827 1.92138 1.22885 1.82673 1.27C1.73208 1.31013 1.65852 1.36568 1.60605 1.43667C1.5546 1.50663 1.52888 1.58637 1.52888 1.67588C1.52888 1.75098 1.54637 1.8158 1.58135 1.87033C1.61736 1.92485 1.66417 1.97064 1.72179 2.00767C1.78043 2.04368 1.84319 2.07403 1.91006 2.09873C1.97694 2.12239 2.04124 2.14194 2.10297 2.15737L2.41162 2.23762C2.51244 2.26231 2.61584 2.29575 2.72181 2.33793C2.82778 2.38011 2.92603 2.43567 3.01657 2.5046C3.10711 2.57353 3.18015 2.65892 3.23571 2.76078C3.2923 2.86263 3.32059 2.98455 3.32059 3.12652C3.32059 3.30554 3.27429 3.46449 3.1817 3.60339C3.09013 3.74228 2.9569 3.85185 2.782 3.9321C2.60813 4.01235 2.39773 4.05247 2.15081 4.05247C1.91418 4.05247 1.70944 4.01492 1.5366 3.93981C1.36376 3.86471 1.22847 3.75823 1.13073 3.62036C1.03299 3.48147 0.978975 3.31686 0.968687 3.12652H1.44709C1.45635 3.24072 1.49339 3.33589 1.55821 3.41202C1.62405 3.48713 1.7079 3.5432 1.80975 3.58024C1.91264 3.61625 2.02529 3.63425 2.14772 3.63425C2.2825 3.63425 2.40236 3.61316 2.5073 3.57098C2.61327 3.52777 2.6966 3.4681 2.75731 3.39196C2.81801 3.3148 2.84836 3.22478 2.84836 3.12189C2.84836 3.02827 2.82161 2.95162 2.76811 2.89195C2.71564 2.83228 2.64413 2.7829 2.5536 2.7438C2.46409 2.70471 2.36275 2.67024 2.24958 2.6404L1.87611 2.53855C1.62302 2.46962 1.4224 2.36828 1.27425 2.23453C1.12713 2.10078 1.05357 1.92382 1.05357 1.70365C1.05357 1.52155 1.10295 1.3626 1.20172 1.22679C1.30048 1.09099 1.43423 0.985533 1.60296 0.910428C1.77169 0.834295 1.96202 0.796228 2.17396 0.796228C2.38796 0.796228 2.57675 0.83378 2.74033 0.908885C2.90494 0.983989 3.03457 1.08739 3.12923 1.21908C3.22388 1.34974 3.27326 1.49995 3.27738 1.6697H2.81749ZM5.92288 0.839439H6.40128V2.91819C6.40128 3.13938 6.34933 3.33538 6.24542 3.50616C6.1415 3.67592 5.99541 3.80967 5.80713 3.90741C5.61886 4.00412 5.39818 4.05247 5.14508 4.05247C4.89302 4.05247 4.67285 4.00412 4.48458 3.90741C4.2963 3.80967 4.15021 3.67592 4.04629 3.50616C3.94238 3.33538 3.89043 3.13938 3.89043 2.91819V0.839439H4.36729V2.87961C4.36729 3.02261 4.39867 3.14967 4.46143 3.26079C4.52521 3.3719 4.61524 3.45935 4.73149 3.52314C4.84775 3.5859 4.98562 3.61728 5.14508 3.61728C5.30558 3.61728 5.44396 3.5859 5.56022 3.52314C5.6775 3.45935 5.76701 3.3719 5.82874 3.26079C5.8915 3.14967 5.92288 3.02261 5.92288 2.87961V0.839439ZM7.09459 4V0.839439H8.22116C8.46705 0.839439 8.67076 0.884193 8.83228 0.973701C8.99381 1.06321 9.11469 1.18564 9.19494 1.34099C9.27519 1.49532 9.31532 1.66919 9.31532 1.86261C9.31532 2.05706 9.27468 2.23196 9.1934 2.38731C9.11315 2.54164 8.99175 2.66407 8.82919 2.7546C8.66767 2.84411 8.46447 2.88887 8.21961 2.88887H7.44491V2.48454H8.1764C8.33176 2.48454 8.45779 2.45779 8.5545 2.40429C8.65121 2.34976 8.7222 2.27568 8.76746 2.18206C8.81273 2.08844 8.83537 1.98195 8.83537 1.86261C8.83537 1.74326 8.81273 1.6373 8.76746 1.5447C8.7222 1.45211 8.65069 1.37957 8.55295 1.3271C8.45624 1.27463 8.32867 1.2484 8.17023 1.2484H7.57145V4H7.09459ZM9.87435 4V0.839439H11.0009C11.2468 0.839439 11.4505 0.884193 11.612 0.973701C11.7736 1.06321 11.8945 1.18564 11.9747 1.34099C12.055 1.49532 12.0951 1.66919 12.0951 1.86261C12.0951 2.05706 12.0544 2.23196 11.9732 2.38731C11.8929 2.54164 11.7715 2.66407 11.609 2.7546C11.4474 2.84411 11.2442 2.88887 10.9994 2.88887H10.2247V2.48454H10.9562C11.1115 2.48454 11.2375 2.45779 11.3343 2.40429C11.431 2.34976 11.502 2.27568 11.5472 2.18206C11.5925 2.08844 11.6151 1.98195 11.6151 1.86261C11.6151 1.74326 11.5925 1.6373 11.5472 1.5447C11.502 1.45211 11.4305 1.37957 11.3327 1.3271C11.236 1.27463 11.1084 1.2484 10.95 1.2484H10.3512V4H9.87435ZM15.3996 2.41972C15.3996 2.75718 15.3378 3.0473 15.2144 3.29011C15.0909 3.53188 14.9217 3.7181 14.7066 3.84876C14.4926 3.97839 14.2493 4.04321 13.9767 4.04321C13.703 4.04321 13.4587 3.97839 13.2436 3.84876C13.0296 3.7181 12.8609 3.53137 12.7375 3.28857C12.614 3.04576 12.5523 2.75615 12.5523 2.41972C12.5523 2.08226 12.614 1.79265 12.7375 1.55087C12.8609 1.30807 13.0296 1.12185 13.2436 0.99222C13.4587 0.861559 13.703 0.796228 13.9767 0.796228C14.2493 0.796228 14.4926 0.861559 14.7066 0.99222C14.9217 1.12185 15.0909 1.30807 15.2144 1.55087C15.3378 1.79265 15.3996 2.08226 15.3996 2.41972ZM14.9273 2.41972C14.9273 2.16251 14.8857 1.94594 14.8023 1.77001C14.72 1.59306 14.6068 1.45931 14.4628 1.36877C14.3198 1.27721 14.1578 1.23142 13.9767 1.23142C13.7946 1.23142 13.632 1.27721 13.489 1.36877C13.346 1.45931 13.2328 1.59306 13.1495 1.77001C13.0672 1.94594 13.026 2.16251 13.026 2.41972C13.026 2.67693 13.0672 2.89401 13.1495 3.07097C13.2328 3.2469 13.346 3.38065 13.489 3.47221C13.632 3.56275 13.7946 3.60802 13.9767 3.60802C14.1578 3.60802 14.3198 3.56275 14.4628 3.47221C14.6068 3.38065 14.72 3.2469 14.8023 3.07097C14.8857 2.89401 14.9273 2.67693 14.9273 2.41972ZM15.9941 4V0.839439H17.1206C17.3655 0.839439 17.5687 0.881621 17.7302 0.965985C17.8928 1.05035 18.0142 1.16712 18.0944 1.3163C18.1747 1.46445 18.2148 1.63575 18.2148 1.8302C18.2148 2.02362 18.1742 2.19389 18.0929 2.34101C18.0126 2.48711 17.8912 2.60079 17.7287 2.68207C17.5672 2.76335 17.364 2.80399 17.1191 2.80399H16.2657V2.39348H17.0759C17.2302 2.39348 17.3557 2.37136 17.4524 2.32712C17.5502 2.28289 17.6217 2.21858 17.667 2.13422C17.7122 2.04986 17.7349 1.94852 17.7349 1.8302C17.7349 1.71086 17.7117 1.60746 17.6654 1.52001C17.6201 1.43256 17.5486 1.36568 17.4509 1.31939C17.3542 1.27206 17.2271 1.2484 17.0697 1.2484H16.4709V4H15.9941ZM17.5543 2.57404L18.3352 4H17.792L17.0265 2.57404H17.5543ZM18.6392 1.24994V0.839439H21.0852V1.24994H20.0991V4H19.6238V1.24994H18.6392ZM21.6258 4V0.839439H23.6073V1.24994H22.1026V2.21292H23.5039V2.62188H22.1026V3.5895H23.6258V4H21.6258ZM25.2674 4H24.2443V0.839439H25.2998C25.6095 0.839439 25.8755 0.902712 26.0977 1.02926C26.3199 1.15477 26.4902 1.33533 26.6085 1.57094C26.7278 1.80551 26.7875 2.08689 26.7875 2.41509C26.7875 2.74431 26.7273 3.02724 26.607 3.26387C26.4876 3.5005 26.3148 3.68261 26.0884 3.81018C25.8621 3.93673 25.5884 4 25.2674 4ZM24.7211 3.58332H25.2412C25.4819 3.58332 25.682 3.53806 25.8415 3.44752C26.001 3.35595 26.1203 3.22375 26.1995 3.05091C26.2788 2.87703 26.3184 2.6651 26.3184 2.41509C26.3184 2.16714 26.2788 1.95675 26.1995 1.7839C26.1214 1.61106 26.0046 1.47988 25.8492 1.39038C25.6939 1.30087 25.501 1.25611 25.2705 1.25611H24.7211V3.58332ZM28.5306 4V0.839439H29.688C29.9123 0.839439 30.098 0.876477 30.2452 0.950552C30.3923 1.0236 30.5024 1.12288 30.5754 1.2484C30.6485 1.37289 30.685 1.51332 30.685 1.6697C30.685 1.80139 30.6608 1.91251 30.6125 2.00304C30.5641 2.09255 30.4993 2.16457 30.418 2.2191C30.3378 2.2726 30.2493 2.31169 30.1526 2.33638V2.36725C30.2575 2.37239 30.3599 2.40634 30.4597 2.4691C30.5605 2.53083 30.6438 2.6188 30.7097 2.733C30.7755 2.8472 30.8084 2.98609 30.8084 3.14967C30.8084 3.3112 30.7704 3.45626 30.6942 3.58487C30.6191 3.71244 30.5029 3.81378 30.3455 3.88889C30.1881 3.96296 29.9869 4 29.7421 4H28.5306ZM29.0075 3.59104H29.6958C29.9242 3.59104 30.0877 3.5468 30.1865 3.45832C30.2853 3.36984 30.3347 3.25924 30.3347 3.12652C30.3347 3.02673 30.3095 2.93516 30.259 2.85183C30.2086 2.76849 30.1366 2.70213 30.043 2.65275C29.9504 2.60337 29.8403 2.57867 29.7127 2.57867H29.0075V3.59104ZM29.0075 2.20675H29.6464C29.7534 2.20675 29.8496 2.18618 29.935 2.14502C30.0214 2.10387 30.0898 2.04625 30.1402 1.97218C30.1917 1.89707 30.2174 1.8086 30.2174 1.70674C30.2174 1.57608 30.1716 1.46651 30.08 1.37803C29.9885 1.28955 29.848 1.24531 29.6587 1.24531H29.0075V2.20675ZM31.374 4V0.839439H32.5006C32.7455 0.839439 32.9487 0.881621 33.1102 0.965985C33.2727 1.05035 33.3941 1.16712 33.4744 1.3163C33.5546 1.46445 33.5948 1.63575 33.5948 1.8302C33.5948 2.02362 33.5541 2.19389 33.4728 2.34101C33.3926 2.48711 33.2712 2.60079 33.1086 2.68207C32.9471 2.76335 32.7439 2.80399 32.4991 2.80399H31.6457V2.39348H32.4559C32.6102 2.39348 32.7357 2.37136 32.8324 2.32712C32.9301 2.28289 33.0016 2.21858 33.0469 2.13422C33.0922 2.04986 33.1148 1.94852 33.1148 1.8302C33.1148 1.71086 33.0917 1.60746 33.0454 1.52001C33.0001 1.43256 32.9286 1.36568 32.8309 1.31939C32.7342 1.27206 32.6071 1.2484 32.4497 1.2484H31.8509V4H31.374ZM32.9343 2.57404L33.7151 4H33.1719L32.4065 2.57404H32.9343ZM34.442 4H33.9358L35.0732 0.839439H35.6241L36.7615 4H36.2553L35.3618 1.41353H35.3371L34.442 4ZM34.5269 2.76232H36.1689V3.16356H34.5269V2.76232ZM39.7689 0.839439V4H39.3306L37.7241 1.68205H37.6948V4H37.2179V0.839439H37.6593L39.2673 3.16048H39.2967V0.839439H39.7689ZM41.4877 4H40.4645V0.839439H41.5201C41.8298 0.839439 42.0957 0.902712 42.3179 1.02926C42.5402 1.15477 42.7104 1.33533 42.8288 1.57094C42.9481 1.80551 43.0078 2.08689 43.0078 2.41509C43.0078 2.74431 42.9476 3.02724 42.8272 3.26387C42.7079 3.5005 42.535 3.68261 42.3087 3.81018C42.0823 3.93673 41.8087 4 41.4877 4ZM40.9414 3.58332H41.4614C41.7022 3.58332 41.9023 3.53806 42.0618 3.44752C42.2212 3.35595 42.3406 3.22375 42.4198 3.05091C42.499 2.87703 42.5386 2.6651 42.5386 2.41509C42.5386 2.16714 42.499 1.95675 42.4198 1.7839C42.3416 1.61106 42.2248 1.47988 42.0695 1.39038C41.9141 1.30087 41.7212 1.25611 41.4908 1.25611H40.9414V3.58332Z" fill="#8B8B8B"/>
</svg>
