<svg width="217" height="123" viewBox="0 0 217 123" fill="none" xmlns="http://www.w3.org/2000/svg">
<g clip-path="url(#clip0_203_1924)">
<path d="M111.073 2.11193C111.886 2.8198 112.374 3.66241 112.526 4.73714C112.594 5.86958 112.294 6.90229 111.551 7.77239C110.923 8.43263 110.153 8.83647 109.255 8.97885C109.265 9.03183 109.265 9.03183 109.275 9.08588C109.379 9.66599 109.434 10.2502 109.494 10.8361C109.506 10.956 109.519 11.0759 109.531 11.1958C109.565 11.5244 109.598 11.853 109.632 12.1816C109.668 12.5368 109.704 12.892 109.741 13.2472C109.804 13.864 109.867 14.4809 109.93 15.0977C109.997 15.7494 110.063 16.4011 110.13 17.0528C110.134 17.0936 110.138 17.1344 110.143 17.1764C110.164 17.3837 110.185 17.5911 110.206 17.7984C110.357 19.2701 110.508 20.7419 110.658 22.2136C110.802 23.624 110.947 25.0343 111.091 26.4447C111.095 26.4876 111.1 26.5305 111.104 26.5748C111.157 27.093 111.21 27.6112 111.264 28.1294C111.347 28.9434 111.43 29.7575 111.514 30.5716C111.52 30.6345 111.52 30.6345 111.527 30.6987C111.651 31.9099 111.774 33.1211 111.898 34.3323C111.965 34.9799 112.031 35.6275 112.097 36.2751C112.105 36.3487 112.112 36.4224 112.12 36.4984C112.499 40.2012 112.879 43.9039 113.259 47.6066C113.357 47.4179 113.411 47.2434 113.46 47.0355C113.476 46.9638 113.493 46.8921 113.511 46.8182C113.529 46.7378 113.548 46.6575 113.566 46.5771C113.586 46.4911 113.606 46.405 113.627 46.3189C113.671 46.1292 113.715 45.9395 113.759 45.7497C113.832 45.4349 113.906 45.1201 113.979 44.8054C114.061 44.4539 114.143 44.1024 114.225 43.7509C114.453 42.7713 114.683 41.7919 114.913 40.8126C114.922 40.7745 114.931 40.7364 114.94 40.6971C115.023 40.3432 115.106 39.9892 115.189 39.6352C115.382 38.813 115.575 37.9907 115.768 37.1684C115.827 36.9155 115.887 36.6626 115.946 36.4097C116.195 35.3504 116.443 34.2911 116.691 33.2318C116.867 32.4854 117.042 31.739 117.217 30.9926C117.246 30.8694 117.275 30.7462 117.303 30.623C118.07 27.3532 118.07 27.3532 118.424 25.8509C118.436 25.8001 118.448 25.7493 118.46 25.6969C118.564 25.2556 118.668 24.8142 118.772 24.3728C119.085 23.0453 119.396 21.7175 119.707 20.3896C119.746 20.2215 119.786 20.0534 119.825 19.8853C119.874 19.674 119.924 19.4627 119.973 19.2515C119.983 19.2094 119.993 19.1674 120.003 19.1242C120.11 18.6664 120.217 18.2086 120.324 17.7508C120.433 17.2843 120.542 16.8179 120.651 16.3515C120.66 16.3145 120.669 16.2776 120.678 16.2395C120.962 15.0243 121.251 13.8104 121.549 12.5984C121.515 12.5871 121.48 12.5758 121.444 12.5642C121.399 12.5492 121.353 12.5342 121.306 12.5187C121.261 12.5039 121.216 12.4891 121.17 12.4738C120.355 12.1872 119.698 11.5354 119.293 10.7886C119.271 10.7485 119.249 10.7083 119.226 10.6669C118.776 9.81681 118.704 8.77739 118.93 7.84773C119.245 6.83344 119.87 6.01094 120.809 5.51449C120.867 5.48489 120.867 5.48489 120.925 5.4547C120.961 5.43628 120.997 5.41786 121.033 5.39889C121.551 5.14554 122.064 5.04558 122.638 5.05174C122.695 5.05216 122.752 5.05259 122.81 5.05303C123.874 5.0766 124.785 5.52832 125.522 6.2942C126.219 7.09831 126.512 8.03479 126.512 9.09196C126.433 10.1719 125.97 11.145 125.159 11.8632C124.548 12.351 123.873 12.6269 123.105 12.7473C123.058 12.7549 123.011 12.7624 122.963 12.7702C122.849 12.7886 122.735 12.8067 122.621 12.8247C122.433 16.2176 122.244 19.6104 122.056 23.0033C122.053 23.0535 122.051 23.1037 122.048 23.1554C121.987 24.2461 121.927 25.3368 121.866 26.4275C121.837 26.9623 121.807 27.4972 121.777 28.032C121.775 28.0853 121.772 28.1385 121.769 28.1933C121.673 29.9195 121.577 31.6457 121.481 33.3718C121.383 35.1452 121.285 36.9186 121.186 38.6919C121.172 38.9422 121.159 39.1925 121.145 39.4428C121.142 39.4921 121.139 39.5414 121.136 39.5921C121.092 40.3861 121.048 41.1802 121.004 41.9742C120.96 42.7718 120.916 43.5694 120.872 44.3671C120.845 44.8414 120.819 45.3157 120.793 45.79C120.773 46.1435 120.753 46.4971 120.734 46.8507C120.726 46.9941 120.718 47.1376 120.71 47.2811C120.699 47.4753 120.688 47.6695 120.678 47.8637C120.675 47.9202 120.671 47.9766 120.668 48.0347C120.665 48.0864 120.663 48.1381 120.66 48.1914C120.656 48.258 120.656 48.258 120.652 48.326C120.647 48.4634 120.646 48.6003 120.647 48.7378C121.206 47.5585 121.762 46.3785 122.308 45.1934C122.458 44.8689 122.608 44.5446 122.758 44.2204C122.803 44.1226 122.803 44.1226 122.85 44.0229C123.221 43.2206 123.595 42.4191 123.968 41.6176C124.084 41.3682 124.2 41.1188 124.316 40.8694C124.341 40.8167 124.341 40.8167 124.366 40.7628C124.633 40.1891 124.899 39.6149 125.165 39.0406C125.404 38.523 125.644 38.006 125.885 37.489C126.123 36.9784 126.36 36.4674 126.597 35.9561C126.849 35.4114 127.101 34.8671 127.354 34.323C127.371 34.2879 127.387 34.2527 127.404 34.2165C127.537 33.9311 127.67 33.6458 127.803 33.3604C127.919 33.111 128.035 32.8616 128.151 32.6122C128.176 32.5595 128.176 32.5595 128.201 32.5057C128.468 31.9319 128.734 31.3578 128.999 30.7834C129.239 30.2659 129.479 29.7488 129.72 29.2318C129.989 28.6555 130.256 28.0786 130.523 27.5016C130.723 27.07 130.923 26.6388 131.124 26.2077C131.443 25.5216 131.762 24.8351 132.08 24.1482C132.127 24.0472 132.174 23.9463 132.221 23.8453C132.489 23.2673 132.752 22.688 132.998 22.0999C132.96 22.0791 132.923 22.0582 132.884 22.0368C131.937 21.5045 131.322 20.7035 131.003 19.6679C130.757 18.6584 130.887 17.6356 131.376 16.7184C131.948 15.7907 132.817 15.1332 133.875 14.8748C134.946 14.666 135.962 14.8489 136.889 15.4262C137.094 15.5816 137.274 15.7509 137.453 15.9352C137.497 15.9783 137.541 16.0213 137.586 16.0656C138.3 16.8004 138.604 17.7862 138.593 18.7984C138.538 19.6592 138.262 20.4051 137.735 21.0818C137.706 21.1207 137.677 21.1596 137.648 21.1996C137.077 21.9175 136.148 22.3747 135.253 22.4957C134.801 22.5234 134.345 22.527 133.9 22.4392C133.887 22.5123 133.874 22.5854 133.861 22.6607C133.771 23.1102 133.634 23.5468 133.503 23.9856C133.474 24.0836 133.445 24.1816 133.416 24.2795C133.354 24.4893 133.292 24.6991 133.229 24.9088C133.079 25.4163 132.929 25.9241 132.779 26.4318C132.727 26.6068 132.675 26.7817 132.623 26.9566C132.309 28.0189 131.998 29.082 131.689 30.1456C131.619 30.3827 131.55 30.6199 131.481 30.857C131.467 30.9045 131.454 30.952 131.439 31.0009C131.411 31.0972 131.383 31.1935 131.355 31.2899C131.327 31.3866 131.299 31.4833 131.27 31.58C130.918 32.7903 130.564 34.0003 130.209 35.2103C130.194 35.2647 130.178 35.3192 130.161 35.3753C129.659 37.0909 129.156 38.8062 128.653 40.5215C128.187 42.1112 127.721 43.7012 127.256 45.2914C126.809 46.8172 126.363 48.343 125.915 49.8685C125.61 50.9071 125.306 51.9459 125.002 52.9848C124.985 53.0417 124.969 53.0986 124.951 53.1572C124.802 53.6684 124.652 54.1796 124.503 54.6908C124.472 54.7968 124.441 54.9028 124.41 55.0089C124.395 55.061 124.379 55.1131 124.364 55.1668C124.243 55.5806 124.121 55.9943 124 56.4079C123.904 56.7365 123.808 57.0653 123.712 57.3941C123.647 57.6208 123.58 57.8474 123.514 58.074C123.483 58.1811 123.452 58.2883 123.421 58.3955C122.994 59.8698 122.446 61.0688 121.38 62.1981C121.313 62.2712 121.313 62.2712 121.244 62.3457C119.751 63.9108 117.702 64.8593 115.684 65.5349C115.642 65.5496 115.6 65.5644 115.556 65.5795C114.656 65.891 113.71 66.0899 112.775 66.2661C112.666 66.2867 112.556 66.308 112.447 66.3293C111.223 66.5513 109.977 66.5746 108.737 66.5706C108.669 66.5705 108.602 66.5704 108.532 66.5703C107.485 66.5676 106.458 66.5359 105.42 66.3833C105.352 66.3736 105.285 66.3639 105.215 66.3539C103.28 66.0684 101.374 65.543 99.6115 64.6866C99.5334 64.6497 99.4553 64.6128 99.3773 64.5759C98.2619 64.041 97.2618 63.3614 96.3681 62.5047C96.3119 62.451 96.2555 62.3975 96.1989 62.3444C95.0146 61.2323 94.4279 59.8993 93.9838 58.3538C93.9581 58.2653 93.9324 58.1768 93.9066 58.0883C93.8514 57.8981 93.7963 57.708 93.7414 57.5177C93.6527 57.2107 93.5636 56.9037 93.4744 56.5968C93.3799 56.2714 93.2854 55.9459 93.191 55.6204C92.8772 54.5386 92.561 53.4576 92.2443 52.3767C92.1488 52.0506 92.0533 51.7245 91.9579 51.3983C91.942 51.344 91.9261 51.2897 91.9097 51.2337C91.8775 51.1237 91.8453 51.0138 91.8131 50.9038C91.7648 50.7386 91.7164 50.5735 91.6681 50.4083C91.4588 49.6935 91.2496 48.9786 91.0405 48.2638C90.3822 46.0137 89.7234 43.7637 89.0634 41.5141C88.5806 39.8687 88.0988 38.223 87.6173 36.5772C87.2092 35.1824 86.801 33.7877 86.3918 32.3933C85.9313 30.824 85.4715 29.2544 85.0121 27.6848C84.9874 27.6005 84.9874 27.6005 84.9623 27.5145C84.4673 25.8232 83.9731 24.1317 83.4824 22.4392C83.3922 22.4528 83.3922 22.4528 83.3002 22.4666C82.1928 22.6183 81.1295 22.4202 80.222 21.7358C80.1425 21.6696 80.0637 21.6025 79.9859 21.5343C79.9525 21.5062 79.9191 21.478 79.8847 21.449C79.2547 20.8736 78.7994 19.962 78.7373 19.1075C78.6844 17.9451 78.9311 16.9003 79.725 16.0201C80.4871 15.2176 81.4738 14.8128 82.573 14.7794C83.594 14.7884 84.5306 15.1793 85.2555 15.8992C85.4258 16.0753 85.5921 16.2473 85.7382 16.4443C85.7622 16.4762 85.7862 16.5081 85.8109 16.541C86.3746 17.363 86.5164 18.4145 86.348 19.3781C86.2158 20.0632 85.9454 20.5921 85.5126 21.1384C85.4765 21.1862 85.4403 21.2341 85.4031 21.2833C85.2828 21.4262 85.1587 21.5357 85.0121 21.6509C84.9657 21.6878 84.9193 21.7246 84.8715 21.7625C84.713 21.8812 84.5496 21.9904 84.3847 22.0999C84.4133 22.1601 84.4419 22.2203 84.4714 22.2824C85.0199 23.4371 85.5656 24.5928 86.1007 25.7538C86.2599 26.0985 86.4203 26.4427 86.5806 26.7869C86.6139 26.8586 86.6473 26.9302 86.6806 27.0019C86.8425 27.3496 87.0045 27.6974 87.1666 28.0451C87.2297 28.1807 87.2929 28.3162 87.356 28.4518C87.3719 28.4859 87.3878 28.5199 87.4041 28.555C87.6117 29.0009 87.8185 29.4472 88.0246 29.8938C88.0579 29.9658 88.0579 29.9658 88.0918 30.0393C88.1373 30.1379 88.1828 30.2365 88.2282 30.335C88.6056 31.1529 88.9851 31.9696 89.3684 32.7847C89.6796 33.4464 89.9878 34.1095 90.2945 34.7733C90.4845 35.1844 90.6755 35.595 90.8666 36.0056C90.9 36.0772 90.9333 36.1488 90.9666 36.2204C91.1286 36.5682 91.2906 36.916 91.4526 37.2637C91.5158 37.3993 91.5789 37.5349 91.6421 37.6705C91.6579 37.7045 91.6738 37.7386 91.6901 37.7737C91.8978 38.2195 92.1046 38.6658 92.3107 39.1124C92.3328 39.1604 92.355 39.2085 92.3779 39.258C92.4233 39.3566 92.4688 39.4551 92.5143 39.5537C92.8917 40.3715 93.2711 41.1883 93.6545 42.0033C93.9657 42.665 94.2738 43.3281 94.5806 43.9919C94.8033 44.4737 95.0272 44.9549 95.2513 45.4359C95.2843 45.5068 95.3173 45.5776 95.3503 45.6484C95.3667 45.6836 95.3831 45.7188 95.4 45.755C95.5029 45.976 95.6055 46.1972 95.7079 46.4185C95.7775 46.5688 95.8471 46.719 95.9168 46.8693C95.9647 46.9727 96.0125 47.0763 96.0603 47.1798C96.2276 47.5406 96.3999 47.8982 96.5779 48.2538C96.5986 48.2951 96.6192 48.3365 96.6405 48.3791C96.6909 48.4798 96.7413 48.5805 96.7917 48.6812C96.79 48.6504 96.7883 48.6196 96.7865 48.5878C96.6 45.2322 96.4135 41.8767 96.2271 38.5211C96.2244 38.471 96.2216 38.4209 96.2187 38.3693C96.1582 37.2805 96.0978 36.1917 96.0373 35.1029C96.0077 34.569 95.978 34.035 95.9484 33.5011C95.9439 33.4214 95.9439 33.4214 95.9394 33.3401C95.8437 31.6171 95.748 29.894 95.6522 28.171C95.5538 26.4008 95.4555 24.6306 95.3572 22.8603C95.3434 22.6105 95.3295 22.3606 95.3156 22.1107C95.3115 22.0369 95.3115 22.0369 95.3073 21.9617C95.2633 21.1691 95.2193 20.3766 95.1752 19.5841C95.1309 18.7878 95.0867 17.9916 95.0425 17.1953C95.0163 16.7219 94.99 16.2485 94.9636 15.7751C94.9439 15.4221 94.9244 15.0691 94.9048 14.7161C94.8969 14.5729 94.8889 14.4298 94.8809 14.2866C94.8701 14.0926 94.8594 13.8987 94.8487 13.7048C94.8455 13.6486 94.8423 13.5924 94.8391 13.5345C94.8251 13.2787 94.8141 13.0245 94.8178 12.7681C94.7754 12.7673 94.7329 12.7665 94.6892 12.7657C93.6412 12.7185 92.6598 12.3102 91.9417 11.5239C91.1361 10.5008 90.8638 9.44079 91.0054 8.15238C91.1529 7.38128 91.5496 6.69054 92.1109 6.15104C92.1482 6.11182 92.1856 6.0726 92.2241 6.03219C92.9223 5.3426 93.8614 5.0643 94.8178 5.05527C95.9481 5.06501 96.8158 5.47413 97.635 6.2562C98.2405 6.8963 98.5945 7.76405 98.6527 8.63951C98.6571 8.70042 98.6571 8.70042 98.6615 8.76257C98.7024 9.80696 98.2917 10.7401 97.6341 11.5239C97.1625 12.0341 96.596 12.3646 95.9458 12.5984C95.9862 13.0167 96.0818 13.4185 96.1786 13.8268C96.1975 13.9074 96.2165 13.9881 96.2354 14.0688C96.2771 14.2466 96.3189 14.4243 96.3609 14.602C96.4309 14.8985 96.5006 15.195 96.5702 15.4916C96.663 15.8863 96.7558 16.281 96.8487 16.6756C97.0516 17.5376 97.2539 18.3997 97.4561 19.2619C97.529 19.5727 97.6019 19.8836 97.6748 20.1944C97.6934 20.274 97.7121 20.3535 97.7307 20.433C97.9442 21.3434 98.1579 22.2538 98.3715 23.1641C98.4613 23.5468 98.5511 23.9294 98.6409 24.312C98.6508 24.354 98.6607 24.3961 98.6708 24.4394C98.8914 25.3792 99.1119 26.3189 99.3323 27.2586C99.3416 27.2981 99.3509 27.3376 99.3604 27.3783C99.4445 27.7367 99.5286 28.0951 99.6127 28.4535C99.7343 28.9718 99.8559 29.4901 99.9775 30.0084C100.062 30.3687 100.147 30.7291 100.231 31.0894C100.24 31.129 100.25 31.1687 100.259 31.2095C100.524 32.339 100.789 33.4685 101.054 34.5981C101.235 35.3677 101.415 36.1373 101.596 36.9069C101.605 36.9464 101.614 36.9859 101.624 37.0266C102.07 38.9299 102.517 40.8332 102.965 42.7364C102.974 42.7747 102.983 42.8129 102.992 42.8523C103.256 43.9778 103.521 45.1031 103.786 46.2285C103.819 46.3683 103.851 46.508 103.884 46.6478C103.964 46.9862 104.043 47.3247 104.123 47.6632C104.58 43.309 105.032 38.9544 105.478 34.5991C105.531 34.0789 105.585 33.5587 105.638 33.0384C105.644 32.9816 105.644 32.9815 105.65 32.9235C105.669 32.7305 105.689 32.5375 105.709 32.3445C105.847 31.0018 105.984 29.6591 106.122 28.3164C106.254 27.0261 106.386 25.7359 106.518 24.4457C106.522 24.4056 106.527 24.3656 106.531 24.3243C106.617 23.4838 106.703 22.6433 106.789 21.8027C106.825 21.4508 106.861 21.0989 106.897 20.747C106.909 20.6311 106.921 20.5152 106.933 20.3993C107.054 19.2184 107.175 18.0375 107.296 16.8567C107.408 15.7643 107.52 14.672 107.632 13.5796C107.69 13.0149 107.748 12.4501 107.805 11.8854C107.842 11.5241 107.879 11.1628 107.916 10.8015C107.93 10.6641 107.944 10.5267 107.958 10.3893C107.977 10.2097 107.995 10.0301 108.014 9.85055C108.019 9.80031 108.024 9.75006 108.029 9.69829C108.054 9.45669 108.084 9.21804 108.127 8.97885C108.071 8.96711 108.014 8.95537 107.956 8.94328C106.883 8.70712 106.081 8.17696 105.459 7.26449C104.9 6.36756 104.719 5.3751 104.923 4.33065C105.165 3.33494 105.708 2.49668 106.566 1.92348C107.967 1.08275 109.763 1.02755 111.073 2.11193ZM100.119 57.3343C100.078 57.3485 100.036 57.3628 99.9937 57.3775C99.1365 57.6751 98.3001 58.0116 97.5812 58.5785C97.5401 58.6105 97.4991 58.6424 97.4568 58.6753C97.046 59.0131 96.8181 59.3611 96.7401 59.8939C96.7247 60.3866 97.0076 60.7746 97.331 61.12C99.0406 62.7779 102.075 63.1733 104.317 63.453C104.387 63.4617 104.456 63.4705 104.528 63.4795C105.892 63.6401 107.255 63.69 108.628 63.6862C108.709 63.6861 108.79 63.686 108.871 63.6859C110.132 63.6833 111.385 63.6553 112.639 63.4989C112.707 63.4905 112.707 63.4905 112.776 63.4819C116.872 63.0115 116.872 63.0115 120.219 60.8547C120.453 60.5227 120.579 60.208 120.559 59.7967C120.457 59.2019 120.036 58.7938 119.57 58.4495C117.152 56.7857 113.86 56.4691 111.003 56.2597C110.949 56.2557 110.894 56.2516 110.838 56.2474C107.368 56.0031 103.42 56.1688 100.119 57.3343Z" fill="#8B8B8B"/>
<path d="M1.14795 83.3495C3.8679 83.3466 6.58786 83.3439 9.30781 83.3423C9.34811 83.3423 9.38842 83.3423 9.42994 83.3423C10.306 83.3417 11.1821 83.3413 12.0581 83.3408C12.4878 83.3406 12.9174 83.3404 13.3471 83.3402C13.3899 83.3402 13.4326 83.3401 13.4767 83.3401C14.8606 83.3394 16.2446 83.3381 17.6286 83.3366C19.0517 83.335 20.4748 83.3339 21.8979 83.3336C22.0992 83.3335 22.3006 83.3335 22.5019 83.3334C22.5415 83.3334 22.5811 83.3334 22.622 83.3334C23.2579 83.3332 23.8939 83.3324 24.5298 83.3314C25.1703 83.3304 25.8108 83.33 26.4513 83.3302C26.7978 83.3304 27.1444 83.3302 27.4909 83.3293C27.809 83.3284 28.127 83.3284 28.445 83.329C28.5594 83.3291 28.6737 83.3289 28.788 83.3283C29.7498 83.3241 30.7191 83.3887 31.6438 83.6747C31.6923 83.6893 31.7409 83.7038 31.7909 83.7188C33.3439 84.1978 34.6807 85.0301 35.8311 86.1773C35.8715 86.2175 35.8715 86.2175 35.9128 86.2585C37.6053 87.9658 38.4881 90.3831 38.5028 92.7661C38.4863 95.4448 37.4045 97.8518 35.5146 99.7273C34.3621 100.813 32.9312 101.609 31.3902 101.981C31.232 102.021 31.079 102.073 30.9247 102.126C30.982 102.145 30.982 102.145 31.0405 102.164C32.5457 102.659 33.8373 103.219 34.9852 104.332C35.0333 104.377 35.0814 104.422 35.131 104.469C37.4838 106.739 38.3247 110.213 39.3414 113.219C39.5262 113.764 39.7131 114.309 39.9037 114.853C39.9232 114.909 39.9426 114.964 39.9627 115.022C40.0561 115.288 40.1499 115.555 40.2442 115.822C40.278 115.918 40.3118 116.014 40.3456 116.11C40.3608 116.153 40.3761 116.196 40.3918 116.24C40.4939 116.532 40.5567 116.806 40.6247 117.113C42.0019 117.113 43.3791 117.113 44.798 117.113C44.798 118.047 44.798 118.98 44.798 119.941C40.8526 119.941 36.9071 119.941 32.8422 119.941C32.391 117.873 32.391 117.873 32.1725 116.845C32.1395 116.69 32.1066 116.535 32.0735 116.38C32.0535 116.286 32.0335 116.192 32.0135 116.097C31.973 115.907 31.9309 115.718 31.8834 115.53C31.8638 115.449 31.8442 115.368 31.8248 115.286C31.4631 113.785 31.0805 112.299 30.5863 110.836C30.5663 110.776 30.5463 110.716 30.5257 110.655C30.1227 109.463 29.613 108.315 29.0103 107.212C28.958 107.116 28.9071 107.019 28.8564 106.923C27.857 105.023 26.3371 103.718 24.3018 103.081C23.8038 102.931 23.3024 102.795 22.7967 102.674C22.7438 102.661 22.691 102.648 22.6365 102.635C20.1139 102.057 17.2457 102.319 14.7956 102.296C14.7956 107.186 14.7956 112.075 14.7956 117.113C16.5264 117.113 18.2572 117.113 20.0404 117.113C20.0404 118.047 20.0404 118.98 20.0404 119.941C13.7687 119.941 7.49694 119.941 1.03516 119.941C1.03516 119.008 1.03516 118.075 1.03516 117.113C2.76593 117.113 4.49671 117.113 6.27993 117.113C6.27993 106.886 6.27993 96.6583 6.27993 86.1208C4.58637 86.1208 2.89282 86.1208 1.14795 86.1208C1.14795 85.2062 1.14795 84.2917 1.14795 83.3495ZM14.852 86.1208C14.852 90.5067 14.852 94.8926 14.852 99.4114C16.392 99.4161 17.9321 99.4208 19.5187 99.4256C20.0031 99.4276 20.4875 99.4297 20.9865 99.4318C21.4247 99.4326 21.4247 99.4326 21.8629 99.433C22.0565 99.4332 22.2501 99.4341 22.4436 99.4353C23.9645 99.4579 23.9645 99.4579 25.4544 99.1852C25.5202 99.1666 25.5202 99.1666 25.5873 99.1476C26.5886 98.8621 27.4795 98.3886 28.2741 97.7147C28.3459 97.6556 28.3459 97.6556 28.4191 97.5952C28.5777 97.4629 28.5777 97.4629 28.7253 97.3189C28.7253 97.2815 28.7253 97.2442 28.7253 97.2057C28.7625 97.2057 28.7997 97.2057 28.8381 97.2057C28.9304 97.1006 29.0151 96.9958 29.0989 96.8841C29.124 96.8507 29.1491 96.8173 29.175 96.7829C30.2888 95.281 30.694 93.5423 30.4343 91.6818C30.1529 90.0125 29.2322 88.5086 27.8622 87.5099C26.0652 86.2403 24.1025 86.0928 21.9719 86.1036C21.7454 86.1046 21.519 86.1046 21.2926 86.1047C20.6343 86.1056 19.9761 86.108 19.3178 86.1101C17.1073 86.1154 17.1073 86.1154 14.852 86.1208Z" fill="#8B8B8B"/>
<path d="M78.3496 85.8403C78.3825 85.8646 78.4153 85.8889 78.4492 85.914C79.574 86.7512 80.655 87.7115 81.5641 88.7812C81.6328 88.8605 81.6328 88.8605 81.7029 88.9414C82.6074 89.991 83.3881 91.1322 84.0452 92.353C84.0994 92.4528 84.1553 92.5515 84.2114 92.6502C85.4476 94.8718 86.1422 97.4521 86.3577 99.9793C86.3626 100.036 86.3626 100.036 86.3676 100.094C86.6296 103.31 86.0568 106.584 84.7254 109.519C84.6696 109.642 84.6154 109.766 84.5614 109.89C83.5024 112.278 81.7479 114.572 79.7594 116.267C79.7068 116.313 79.6542 116.359 79.5999 116.406C78.8685 117.04 78.0933 117.613 77.278 118.134C77.2456 118.155 77.2132 118.175 77.1798 118.197C74.3722 119.975 71.1662 120.98 67.86 121.198C67.7521 121.206 67.7521 121.206 67.642 121.213C66.8917 121.258 66.1497 121.25 65.3998 121.202C65.3439 121.198 65.3439 121.198 65.2869 121.195C64.4837 121.142 63.6912 121.037 62.8972 120.905C62.8472 120.897 62.7973 120.889 62.7458 120.881C61.3532 120.654 60.0173 120.156 58.724 119.604C58.65 119.573 58.65 119.573 58.5746 119.542C57.0095 118.882 55.5846 117.96 54.2537 116.91C54.0884 116.78 53.9205 116.653 53.7532 116.525C53.6159 116.41 53.4929 116.282 53.3664 116.154C53.2523 116.047 53.1365 115.942 53.021 115.836C52.5274 115.382 52.0514 114.914 51.6181 114.401C51.5732 114.35 51.5283 114.298 51.482 114.246C48.1492 110.413 46.5385 105.284 46.8506 100.234C47.1708 95.946 48.9187 91.8068 51.8257 88.642C51.9331 88.5242 52.0369 88.4046 52.1398 88.2828C52.5818 87.7732 53.0722 87.2876 53.592 86.8583C53.6217 86.8333 53.6514 86.8084 53.6821 86.7827C58.288 82.9231 64.2574 81.2771 78.3496 85.8403ZM59.1751 89.2902C58.5043 90.0626 57.994 90.9526 57.4833 91.8352C57.4562 91.8819 57.4291 91.9286 57.4013 91.9767C56.2558 93.9785 55.6088 96.2916 55.2838 98.5654C55.2753 98.6236 55.2668 98.6818 55.258 98.7417C54.9855 100.694 54.983 102.781 55.2838 104.73C55.2938 104.796 55.3038 104.861 55.3141 104.929C55.6238 106.909 56.1739 108.799 57.0321 110.612C57.0539 110.658 57.0757 110.705 57.0982 110.753C57.387 111.36 57.7397 111.922 58.1107 112.482C58.1321 112.514 58.1535 112.546 58.1755 112.58C58.5948 113.21 59.0548 113.791 59.5699 114.345C59.6086 114.386 59.6472 114.428 59.6871 114.471C61.4533 116.315 63.8277 117.218 66.342 117.296C69.2692 117.35 71.5963 116.325 73.7046 114.313C73.9445 114.079 74.1545 113.831 74.3561 113.563C74.3875 113.522 74.4189 113.48 74.4512 113.437C76.5783 110.589 77.7254 107.239 78.0676 103.712C78.0729 103.66 78.0782 103.608 78.0837 103.555C78.1394 102.94 78.1377 102.324 78.1381 101.708C78.1381 101.649 78.1382 101.59 78.1382 101.53C78.1376 100.549 78.0914 99.5936 77.9548 98.622C77.9472 98.5649 77.9397 98.5079 77.9319 98.4492C77.6703 96.5131 77.1065 94.6129 76.2629 92.8532C76.245 92.815 76.2271 92.7768 76.2087 92.7374C75.274 90.7429 73.9788 88.7868 72.0897 87.5935C72.0379 87.5594 71.9861 87.5253 71.9328 87.4901C67.8999 84.896 62.4933 85.6946 59.1751 89.2902Z" fill="#8B8B8B"/>
<path d="M131.25 83.416C143.198 83.416 155.146 83.416 167.456 83.416C167.456 87.578 167.456 91.7399 167.456 96.028C166.525 96.028 165.595 96.028 164.636 96.028C164.634 95.7201 164.632 95.4121 164.63 95.0948C164.628 94.8979 164.626 94.701 164.624 94.5041C164.621 94.1926 164.618 93.8811 164.617 93.5697C164.615 93.3181 164.613 93.0665 164.61 92.815C164.609 92.7197 164.608 92.6245 164.608 92.5293C164.601 90.8116 164.048 89.2366 162.838 87.9968C161.729 86.9083 160.205 86.2815 158.655 86.2846C158.597 86.2843 158.538 86.284 158.477 86.2836C158.282 86.2827 158.087 86.2825 157.892 86.2823C157.751 86.2818 157.611 86.2812 157.47 86.2806C157.168 86.2794 156.866 86.2785 156.565 86.2779C156.128 86.2771 155.692 86.2757 155.256 86.2741C154.548 86.2715 153.84 86.2694 153.131 86.2677C152.444 86.266 151.757 86.264 151.069 86.2618C151.005 86.2616 151.005 86.2616 150.939 86.2613C150.604 86.2602 150.269 86.2591 149.933 86.258C148.292 86.2525 146.651 86.2483 145.01 86.2438C145.01 90.5364 145.01 94.829 145.01 99.2517C149.198 99.5355 149.198 99.5355 152.697 97.821C152.926 97.556 153.097 97.263 153.258 96.9541C153.285 96.9041 153.285 96.9041 153.313 96.853C153.714 96.0404 153.731 95.1891 153.738 94.3031C153.742 93.9205 153.747 93.5379 153.752 93.1437C154.589 93.1437 155.427 93.1437 156.29 93.1437C156.29 98.2015 156.29 103.259 156.29 108.47C155.452 108.47 154.615 108.47 153.752 108.47C153.734 107.223 153.734 107.223 153.73 106.834C153.718 106.047 153.684 105.276 153.343 104.55C153.326 104.513 153.309 104.475 153.291 104.436C153.14 104.115 152.96 103.827 152.737 103.55C152.703 103.507 152.67 103.465 152.635 103.421C152.056 102.722 151.206 102.169 150.298 102.039C150.199 102.023 150.199 102.023 150.142 101.966C148.449 101.724 146.721 101.874 145.01 101.853C145.01 106.911 145.01 111.969 145.01 117.18C148.493 117.173 148.493 117.173 152.046 117.166C152.777 117.165 153.509 117.164 154.263 117.163C154.922 117.161 154.922 117.161 155.581 117.159C155.873 117.158 156.165 117.158 156.457 117.158C156.831 117.158 157.205 117.157 157.579 117.155C157.716 117.155 157.852 117.154 157.989 117.155C159.663 117.158 161.19 116.825 162.493 115.71C162.538 115.673 162.583 115.636 162.629 115.598C163.736 114.653 164.407 113.242 164.58 111.807C164.609 111.411 164.607 111.014 164.609 110.618C164.609 110.506 164.611 110.395 164.612 110.283C164.614 109.993 164.616 109.702 164.617 109.412C164.619 109.061 164.623 108.711 164.626 108.361C164.63 107.832 164.633 107.303 164.636 106.774C165.567 106.774 166.497 106.774 167.456 106.774C167.456 111.141 167.456 115.508 167.456 120.008C155.508 120.008 143.56 120.008 131.25 120.008C131.25 119.075 131.25 118.141 131.25 117.18C132.962 117.18 134.674 117.18 136.438 117.18C136.438 106.971 136.438 96.7621 136.438 86.2438C134.726 86.2438 133.014 86.2438 131.25 86.2438C131.25 85.3106 131.25 84.3775 131.25 83.416Z" fill="#8B8B8B"/>
<path d="M174.105 83.4707C180.191 83.4707 186.277 83.4707 192.547 83.4707C192.547 84.3666 192.547 85.2624 192.547 86.1854C192.3 86.1869 192.052 86.1883 191.798 86.1898C191.6 86.1916 191.402 86.1936 191.204 86.1958C190.995 86.198 190.787 86.1998 190.578 86.2007C190.377 86.2016 190.176 86.2035 189.975 86.2062C189.861 86.2075 189.748 86.2076 189.634 86.2077C189.197 86.2147 188.851 86.2378 188.514 86.546C188.255 86.831 188.172 87.1428 188.184 87.5198C188.259 88.0262 188.62 88.397 188.944 88.7678C189.097 88.9428 189.238 89.1246 189.378 89.3101C189.599 89.6025 189.828 89.8867 190.062 90.1691C190.329 90.4921 190.591 90.8179 190.848 91.1488C191.045 91.401 191.245 91.6497 191.447 91.8976C191.675 92.1782 191.901 92.4604 192.124 92.7459C192.411 93.1142 192.704 93.4768 192.999 93.839C193.166 94.0453 193.332 94.253 193.497 94.4611C193.686 94.6975 193.878 94.932 194.069 95.1669C194.307 95.4612 194.542 95.7584 194.774 96.0585C194.889 96.2071 195.003 96.3501 195.141 96.4786C195.17 96.4422 195.2 96.4058 195.23 96.3684C195.496 96.0408 195.766 95.7167 196.038 95.3948C196.201 95.2028 196.361 95.0092 196.519 94.8137C196.742 94.5387 196.972 94.2697 197.203 94.0011C197.417 93.7514 197.625 93.4979 197.832 93.2423C198.003 93.0339 198.177 92.8287 198.351 92.6234C198.513 92.4315 198.673 92.2379 198.831 92.0425C199.054 91.7675 199.284 91.4984 199.515 91.2298C199.729 90.98 199.938 90.7263 200.145 90.4706C200.417 90.1382 200.696 89.812 200.973 89.4845C201.932 88.4963 201.932 88.4963 202.319 87.2518C202.287 86.9282 202.153 86.6899 201.912 86.4752C201.638 86.2847 201.432 86.2279 201.099 86.2239C201.028 86.2228 200.957 86.2217 200.884 86.2205C200.807 86.2198 200.73 86.2192 200.652 86.2185C200.573 86.2175 200.494 86.2164 200.415 86.2152C200.207 86.2123 199.999 86.2101 199.791 86.208C199.578 86.2057 199.366 86.2028 199.153 86.2C198.737 86.1945 198.321 86.19 197.904 86.1854C197.904 85.2895 197.904 84.3937 197.904 83.4707C202.762 83.4707 207.619 83.4707 212.624 83.4707C212.624 84.3666 212.624 85.2624 212.624 86.1854C212.323 86.1886 212.323 86.1886 212.016 86.1918C211.818 86.1944 211.621 86.1973 211.423 86.2002C211.288 86.2021 211.152 86.2037 211.016 86.205C209.001 86.2247 207.749 86.6373 206.311 88.099C206.134 88.285 205.966 88.4779 205.8 88.6739C205.749 88.7327 205.699 88.7916 205.649 88.8504C205.533 88.9852 205.418 89.1201 205.303 89.2551C205.184 89.3939 205.066 89.5325 204.947 89.6709C204.65 90.0165 204.357 90.3646 204.071 90.7187C203.916 90.9065 203.759 91.0911 203.6 91.2754C203.357 91.559 203.118 91.8458 202.883 92.1364C202.738 92.3129 202.592 92.4871 202.444 92.6611C202.254 92.8855 202.066 93.1113 201.88 93.3397C201.568 93.7246 201.247 94.1021 200.926 94.4802C200.617 94.8455 200.31 95.2126 200.009 95.5843C199.837 95.7932 199.663 95.9992 199.488 96.2052C199.326 96.3971 199.166 96.5907 199.008 96.7861C198.813 97.0263 198.613 97.2621 198.412 97.4966C197.984 97.9947 197.57 98.5023 197.171 99.0236C197.637 99.6552 198.127 100.267 198.626 100.872C198.858 101.153 199.084 101.437 199.308 101.725C199.504 101.977 199.705 102.226 199.906 102.474C200.161 102.786 200.411 103.101 200.658 103.419C200.886 103.711 201.12 103.998 201.354 104.286C201.55 104.527 201.742 104.77 201.933 105.015C202.164 105.313 202.402 105.605 202.642 105.895C202.907 106.217 203.169 106.542 203.425 106.871C203.621 107.124 203.821 107.372 204.023 107.62C204.277 107.933 204.528 108.247 204.775 108.565C205.003 108.857 205.237 109.145 205.471 109.432C205.667 109.673 205.859 109.916 206.05 110.162C206.281 110.459 206.518 110.751 206.758 111.042C207.024 111.364 207.285 111.688 207.542 112.018C207.768 112.309 208 112.595 208.233 112.881C208.436 113.13 208.634 113.382 208.831 113.636C209.085 113.963 209.355 114.271 209.635 114.577C209.701 114.652 209.766 114.727 209.832 114.803C210.064 115.069 210.298 115.334 210.537 115.595C210.607 115.672 210.607 115.672 210.679 115.751C211.593 116.714 212.755 117.204 214.082 117.246C214.182 117.249 214.282 117.251 214.382 117.253C214.43 117.254 214.477 117.255 214.525 117.256C214.7 117.26 214.874 117.263 215.049 117.266C215.439 117.275 215.83 117.283 216.233 117.291C216.233 118.187 216.233 119.083 216.233 120.006C213.72 120.014 211.208 120.023 208.695 120.03C208.399 120.031 208.102 120.032 207.806 120.033C207.747 120.033 207.688 120.034 207.627 120.034C206.671 120.037 205.714 120.04 204.758 120.043C203.777 120.047 202.796 120.05 201.815 120.053C201.21 120.054 200.604 120.056 199.998 120.059C199.584 120.06 199.169 120.061 198.754 120.062C198.514 120.063 198.275 120.064 198.035 120.065C197.816 120.066 197.597 120.066 197.378 120.067C197.298 120.067 197.219 120.067 197.139 120.068C197.032 120.068 196.924 120.068 196.817 120.069C196.727 120.069 196.727 120.069 196.635 120.069C196.494 120.062 196.494 120.062 196.382 120.006C196.382 119.11 196.382 118.214 196.382 117.291C196.64 117.29 196.898 117.29 197.164 117.289C197.328 117.288 197.493 117.286 197.657 117.285C197.918 117.283 198.178 117.28 198.439 117.28C198.649 117.28 198.859 117.278 199.069 117.276C199.149 117.275 199.229 117.275 199.309 117.275C199.793 117.276 200.213 117.253 200.611 116.952C200.832 116.682 200.957 116.416 200.967 116.065C200.969 116.019 200.972 115.973 200.974 115.926C200.912 115.51 200.646 115.193 200.382 114.881C200.316 114.801 200.25 114.721 200.185 114.641C200.152 114.602 200.119 114.563 200.085 114.522C199.947 114.354 199.814 114.183 199.681 114.011C199.459 113.725 199.232 113.443 199.004 113.163C198.776 112.882 198.55 112.6 198.327 112.314C198.012 111.909 197.688 111.511 197.365 111.113C197.109 110.797 196.857 110.479 196.607 110.159C196.355 109.837 196.101 109.518 195.842 109.202C195.418 108.684 194.997 108.164 194.586 107.637C194.389 107.384 194.187 107.134 193.985 106.885C193.749 106.595 193.514 106.303 193.283 106.008C193.245 105.96 193.245 105.96 193.206 105.91C193.066 105.731 192.93 105.549 192.797 105.365C192.729 105.277 192.729 105.277 192.66 105.188C192.622 105.188 192.585 105.188 192.547 105.188C192.469 105.274 192.396 105.363 192.325 105.453C192.279 105.51 192.234 105.567 192.187 105.625C192.163 105.656 192.139 105.686 192.114 105.717C191.989 105.873 191.859 106.025 191.729 106.178C191.539 106.402 191.351 106.628 191.165 106.857C190.853 107.241 190.532 107.619 190.211 107.997C189.902 108.362 189.595 108.729 189.293 109.101C189.122 109.31 188.948 109.516 188.773 109.722C188.611 109.914 188.451 110.108 188.292 110.303C188.069 110.578 187.84 110.847 187.609 111.116C187.395 111.365 187.186 111.619 186.979 111.874C186.835 112.051 186.688 112.225 186.541 112.399C186.35 112.624 186.162 112.849 185.977 113.078C185.791 113.306 185.603 113.532 185.413 113.756C185.178 114.033 184.947 114.312 184.719 114.594C184.633 114.7 184.545 114.806 184.457 114.911C184.412 114.965 184.367 115.019 184.32 115.075C184.28 115.123 184.239 115.171 184.197 115.221C183.972 115.523 183.828 115.833 183.876 116.217C183.962 116.624 184.159 116.886 184.495 117.123C184.727 117.251 184.962 117.243 185.224 117.246C185.284 117.247 185.284 117.247 185.346 117.248C185.478 117.25 185.611 117.251 185.743 117.253C185.835 117.254 185.927 117.255 186.019 117.256C186.261 117.259 186.503 117.262 186.744 117.265C187.035 117.268 187.325 117.272 187.615 117.276C188.056 117.281 188.497 117.286 188.937 117.291C188.937 118.187 188.937 119.083 188.937 120.006C183.745 120.006 178.553 120.006 173.203 120.006C173.203 119.11 173.203 118.214 173.203 117.291C173.406 117.288 173.608 117.286 173.817 117.283C174.015 117.28 174.214 117.277 174.413 117.273C174.55 117.271 174.686 117.269 174.823 117.267C176.614 117.244 178.038 117.032 179.35 115.708C179.387 115.652 179.425 115.596 179.463 115.538C179.5 115.538 179.537 115.538 179.576 115.538C179.599 115.488 179.599 115.488 179.622 115.436C179.687 115.315 179.752 115.231 179.846 115.132C179.877 115.1 179.907 115.067 179.939 115.033C179.972 114.999 180.004 114.965 180.038 114.93C180.105 114.858 180.172 114.787 180.239 114.715C180.271 114.681 180.303 114.647 180.336 114.612C180.501 114.435 180.659 114.251 180.817 114.068C180.873 114.003 180.929 113.938 180.985 113.874C181.306 113.504 181.623 113.133 181.931 112.752C182.074 112.576 182.221 112.403 182.367 112.229C182.557 112.006 182.744 111.782 182.928 111.554C183.151 111.279 183.38 111.01 183.611 110.742C183.825 110.492 184.034 110.239 184.241 109.983C184.385 109.806 184.532 109.632 184.68 109.458C184.87 109.234 185.058 109.008 185.244 108.78C185.455 108.519 185.671 108.263 185.887 108.007C186.05 107.815 186.21 107.621 186.368 107.426C186.591 107.151 186.821 106.882 187.051 106.613C187.265 106.363 187.474 106.11 187.681 105.854C187.852 105.646 188.026 105.441 188.2 105.235C188.362 105.043 188.522 104.85 188.68 104.654C188.875 104.414 189.074 104.179 189.276 103.944C189.686 103.466 190.089 102.983 190.46 102.474C190.397 102.39 190.333 102.306 190.27 102.223C190.234 102.176 190.199 102.129 190.163 102.081C190.075 101.96 190.075 101.96 189.953 101.908C189.929 101.869 189.906 101.83 189.882 101.789C189.755 101.578 189.602 101.395 189.445 101.205C189.379 101.123 189.312 101.042 189.246 100.961C189.213 100.92 189.18 100.88 189.146 100.838C189.008 100.669 188.874 100.497 188.74 100.324C188.487 99.9997 188.229 99.6797 187.969 99.3606C187.774 99.1196 187.581 98.8765 187.39 98.6313C187.159 98.3338 186.922 98.0417 186.682 97.7511C186.281 97.2655 185.891 96.7727 185.509 96.272C185.483 96.2385 185.458 96.2049 185.431 96.1704C185.361 96.078 185.291 95.9855 185.221 95.8929C185.113 95.7504 185.113 95.7504 185.019 95.6599C184.885 95.5257 184.774 95.3736 184.658 95.2238C184.336 94.8095 184.007 94.4018 183.676 93.9949C183.576 93.8724 183.477 93.7495 183.378 93.6265C183.345 93.5856 183.312 93.5447 183.278 93.5025C183.216 93.4243 183.153 93.3461 183.09 93.2677C182.972 93.1219 182.857 92.9825 182.724 92.8511C182.607 92.7314 182.538 92.6066 182.452 92.4631C182.343 92.3197 182.228 92.1813 182.114 92.0425C182.047 91.9613 181.981 91.8801 181.914 91.7988C181.881 91.7583 181.848 91.7178 181.814 91.676C181.677 91.5064 181.543 91.3346 181.409 91.1623C181.156 90.8377 180.898 90.5176 180.638 90.1988C180.493 90.0202 180.349 89.841 180.209 89.6581C179.873 89.2189 179.514 88.8121 179.134 88.4112C178.996 88.2655 178.863 88.1168 178.733 87.9634C178.587 87.793 178.43 87.6491 178.257 87.5067C178.166 87.4296 178.166 87.4296 178.032 87.2882C177.104 86.4021 175.893 86.2433 174.669 86.2077C174.605 86.2056 174.54 86.2035 174.474 86.2013C174.416 86.1996 174.357 86.1979 174.297 86.1961C174.162 86.1854 174.162 86.1854 174.105 86.1288C174.105 85.2517 174.105 84.3745 174.105 83.4707Z" fill="#8B8B8B"/>
<path d="M91.2656 83.416C97.5932 83.416 103.921 83.416 110.44 83.416C110.44 84.3492 110.44 85.2824 110.44 86.2438C108.691 86.2438 106.941 86.2438 105.139 86.2438C105.139 96.4528 105.139 106.662 105.139 117.18C111.879 117.869 111.879 117.869 119.745 116.275C119.801 116.244 119.857 116.214 119.914 116.182C121.034 115.515 121.876 114.407 122.332 113.196C122.348 113.156 122.363 113.116 122.379 113.074C122.697 112.178 122.704 111.278 122.707 110.338C122.708 110.204 122.709 110.07 122.71 109.935C122.712 109.585 122.714 109.234 122.716 108.883C122.718 108.461 122.721 108.038 122.724 107.616C122.728 106.977 122.731 106.338 122.734 105.699C123.665 105.699 124.595 105.699 125.554 105.699C125.554 110.402 125.554 115.106 125.554 119.951C114.239 119.951 102.924 119.951 91.2656 119.951C91.2656 119.037 91.2656 118.122 91.2656 117.18C93.015 117.18 94.7644 117.18 96.5668 117.18C96.5668 106.971 96.5668 96.7621 96.5668 86.2438C94.836 86.2438 93.1052 86.2438 91.322 86.2438C91.3034 86.2252 91.2848 86.2065 91.2656 86.1873C91.2656 85.2728 91.2656 84.3582 91.2656 83.416Z" fill="#8B8B8B"/>
</g>
<defs>
<clipPath id="clip0_203_1924">
<rect width="216.558" height="122.161" fill="white" transform="translate(0.128906 0.330078)"/>
</clipPath>
</defs>
</svg>
