<svg width="259" height="137" viewBox="0 0 259 137" fill="none" xmlns="http://www.w3.org/2000/svg">
<g clip-path="url(#clip0_203_1982)">
<path d="M150.597 14.8351C151.451 15.641 152.25 16.4603 152.975 17.3842C153.054 17.48 153.132 17.5759 153.213 17.6747C153.952 18.5955 154.582 19.5757 155.194 20.5828C155.238 20.6551 155.283 20.7273 155.328 20.8018C156.987 23.5408 158.055 26.6431 158.624 29.779C158.64 29.8661 158.657 29.9533 158.674 30.0431C159.229 33.0963 159.103 36.4359 158.523 39.4749C158.491 39.6406 158.491 39.6406 158.459 39.8097C157.213 46.0901 153.845 51.902 149.243 56.3679C148.974 56.6331 148.707 56.8999 148.442 57.1691C147.768 57.8508 147.077 58.4765 146.318 59.0667C146.195 59.1656 146.072 59.2647 145.949 59.3639C145.249 59.9256 144.546 60.4699 143.797 60.9659C144.358 61.081 144.908 61.0862 145.478 61.0931C145.585 61.0947 145.692 61.0963 145.803 61.098C146.787 61.112 147.771 61.1198 148.755 61.1259C149.416 61.13 150.076 61.1361 150.737 61.1468C151.376 61.1572 152.016 61.1626 152.656 61.1646C152.899 61.1662 153.143 61.1695 153.386 61.1746C153.727 61.1814 154.067 61.1819 154.408 61.181C154.508 61.1844 154.608 61.1878 154.712 61.1914C155.148 61.1843 155.396 61.167 155.711 60.8518C155.893 60.5968 156.051 60.3401 156.203 60.0663C156.298 59.9128 156.394 59.7596 156.49 59.6067C156.579 59.4581 156.668 59.3093 156.758 59.1604C157.141 58.5307 157.526 57.9208 158.018 57.3674C158.075 57.3033 158.131 57.2391 158.19 57.173C158.755 56.5712 159.414 56.1896 160.254 56.1547C160.427 56.1551 160.427 56.1551 160.603 56.1554C160.719 56.1552 160.834 56.1549 160.954 56.1547C161.246 56.1679 161.246 56.1679 161.448 56.2679C161.316 56.6895 161.154 57.0705 160.948 57.4619C160.889 57.5763 160.829 57.6907 160.767 57.8086C160.702 57.9323 160.637 58.0559 160.571 58.1796C160.503 58.3094 160.435 58.4393 160.367 58.5692C159.792 59.662 159.206 60.7484 158.616 61.8335C158.327 62.3662 158.04 62.9 157.754 63.4344C157.696 63.5439 157.696 63.5439 157.636 63.6555C157.482 63.9434 157.328 64.2314 157.174 64.5194C157.069 64.7176 156.963 64.9157 156.857 65.1138C156.796 65.2274 156.736 65.341 156.673 65.458C156.618 65.5589 156.562 65.6599 156.505 65.7639C156.446 65.8952 156.446 65.8952 156.386 66.0291C156.203 66.2637 156.203 66.2637 155.9 66.3255C155.775 66.3252 155.65 66.3248 155.521 66.3245C155.451 66.325 155.381 66.3255 155.309 66.326C155.074 66.3271 154.84 66.3245 154.605 66.322C154.437 66.3221 154.268 66.3223 154.1 66.3228C153.641 66.3233 153.182 66.3208 152.723 66.3177C152.239 66.3149 151.754 66.3149 151.269 66.3146C150.451 66.3137 149.632 66.3109 148.813 66.3069C147.676 66.3013 146.539 66.299 145.402 66.2974C138.769 66.2872 138.769 66.2872 135.537 66.2176C135.449 66.2158 135.36 66.2139 135.268 66.2119C134.008 66.1838 132.75 66.1273 131.492 66.0638C131.631 65.7769 131.756 65.5804 131.994 65.3653C132.053 65.3115 132.112 65.2578 132.172 65.2024C132.235 65.1465 132.297 65.0906 132.362 65.033C132.426 64.9747 132.49 64.9164 132.557 64.8563C132.934 64.5154 133.315 64.1799 133.701 63.8491C134.158 63.4508 134.601 63.0382 135.047 62.6279C135.218 62.4705 135.39 62.314 135.563 62.1576C136.377 61.417 137.165 60.6521 137.947 59.8789C137.997 59.8297 138.047 59.7805 138.098 59.7298C138.675 59.1602 139.233 58.5804 139.763 57.9672C139.905 57.8128 140.048 57.6586 140.191 57.5049C140.705 56.9406 141.174 56.3459 141.642 55.7444C141.773 55.5763 141.906 55.4093 142.039 55.2425C143.034 53.9887 143.905 52.6539 144.705 51.27C144.754 51.1849 144.803 51.0997 144.854 51.012C149.076 43.659 150.54 34.6906 148.304 26.4667C147.302 22.941 145.66 19.6999 143.293 16.8844C143.225 16.804 143.225 16.804 143.156 16.722C142.183 15.5659 141.169 14.5116 139.964 13.5858C139.911 13.5439 139.857 13.5021 139.802 13.459C136.465 10.8695 132.355 9.36158 128.164 8.88774C128.082 8.87831 128 8.86889 127.916 8.85918C121.912 8.23838 115.737 9.82107 110.989 13.5462C110.579 13.876 110.193 14.2291 109.807 14.5854C109.675 14.6982 109.542 14.8107 109.41 14.9227C108.471 15.7394 107.668 16.616 106.919 17.6035C106.785 17.7791 106.648 17.9525 106.511 18.1257C102.997 22.6277 101.415 28.5394 101.41 34.1647C101.41 34.2377 101.41 34.3108 101.41 34.3861C101.422 42.4828 104.561 50.2973 109.762 56.4927C109.963 56.7338 110.158 56.9792 110.355 57.2238C111.276 58.3333 112.302 59.3496 113.324 60.3662C113.413 60.4546 113.502 60.5429 113.593 60.634C114.036 61.072 114.485 61.4956 114.96 61.8997C115.294 62.1871 115.613 62.4893 115.934 62.7902C116.37 63.1971 116.806 63.6028 117.25 64.0013C117.728 64.4316 118.197 64.8705 118.657 65.3204C118.71 65.3717 118.764 65.423 118.818 65.4758C118.945 65.6013 119.067 65.7322 119.187 65.8639C119.187 65.9299 119.187 65.9958 119.187 66.0638C110.957 66.4261 102.71 66.2626 94.4759 66.1638C94.4301 66.0753 94.3842 65.9869 94.3369 65.8958C94.1641 65.5627 93.991 65.2298 93.818 64.8968C93.7436 64.7536 93.6692 64.6104 93.5949 64.4672C93.17 63.6481 92.7405 62.8328 92.2885 62.028C91.732 61.0279 91.2025 60.0145 90.6759 58.9988C90.5791 58.812 90.4821 58.6252 90.3849 58.4386C90.2475 58.1744 90.1108 57.91 89.9742 57.6455C89.9328 57.5659 89.8913 57.4863 89.8486 57.4043C89.6404 56.9991 89.4631 56.6058 89.332 56.1679C90.1348 55.9626 90.9019 56.0175 91.6518 56.3679C92.7533 57.0129 93.4189 58.0618 94.041 59.1355C94.4207 59.7858 94.7858 60.398 95.2828 60.9659C95.2828 61.0319 95.2828 61.0979 95.2828 61.1659C99.1438 61.1329 103.005 61.0999 106.983 61.0659C106.45 60.6701 105.918 60.2742 105.369 59.8664C104.578 59.218 103.807 58.5532 103.049 57.8672C102.948 57.7765 102.847 57.6858 102.746 57.5951C101.963 56.8897 101.201 56.176 100.511 55.3792C100.31 55.1507 100.104 54.9288 99.8972 54.7061C99.3341 54.0857 98.8167 53.4343 98.3087 52.7694C98.2566 52.7013 98.2045 52.6332 98.1509 52.5631C94.2166 47.3809 91.8241 41.0395 91.8346 34.527C91.8347 34.4571 91.8348 34.3873 91.8348 34.3153C91.8376 33.1271 91.8879 31.9562 92.0553 30.7786C92.074 30.6454 92.074 30.6454 92.0931 30.5094C93.0668 23.8393 96.4561 17.5711 101.839 13.3859C101.953 13.293 102.066 13.2 102.18 13.1067C103.131 12.3297 104.128 11.6428 105.167 10.9869C105.229 10.9476 105.291 10.9084 105.354 10.868C110.37 7.70738 116.301 5.92919 122.213 5.48916C122.287 5.48352 122.361 5.47788 122.438 5.47208C132.59 4.73928 143.129 7.84472 150.597 14.8351Z" fill="#8B8B8B"/>
<path d="M96.7975 79.1582C96.8641 79.1582 96.9306 79.1582 96.9992 79.1582C99.6519 87.1215 99.6519 87.1215 100.93 91.1147C101.115 91.6925 101.301 92.2702 101.486 92.8478C102.659 96.4946 103.816 100.146 104.965 103.8C105.203 104.555 105.44 105.309 105.678 106.064C106.515 108.723 107.351 111.382 108.185 114.042C108.209 114.12 108.233 114.197 108.258 114.277C108.38 114.666 108.502 115.054 108.624 115.443C108.66 115.558 108.66 115.558 108.696 115.675C108.744 115.828 108.792 115.982 108.84 116.135C109.642 118.693 110.448 121.25 111.258 123.806C111.671 125.109 112.083 126.412 112.491 127.716C112.526 127.827 112.561 127.937 112.597 128.051C112.628 128.152 112.659 128.253 112.692 128.357C112.719 128.445 112.747 128.533 112.776 128.625C112.834 128.837 112.834 128.837 112.834 129.037C110.272 129.037 107.709 129.037 105.068 129.037C104.208 126.454 103.368 123.865 102.559 121.266C102.537 121.195 102.516 121.125 102.493 121.053C101.926 119.23 101.364 117.406 100.805 115.58C100.589 114.877 100.373 114.173 100.157 113.469C100.131 113.382 100.104 113.295 100.077 113.205C99.147 110.174 98.1883 107.155 97.1971 104.143C97.0374 103.657 96.8786 103.171 96.7199 102.685C96.4438 101.839 96.1671 100.994 95.8898 100.149C95.462 100.943 95.1235 101.765 94.7876 102.599C94.621 103.012 94.4527 103.425 94.2847 103.838C94.2502 103.922 94.2157 104.007 94.1802 104.094C93.587 105.551 92.9731 106.998 92.3596 108.446C92.3228 108.533 92.2859 108.62 92.2479 108.71C91.1842 111.22 90.1086 113.726 89.0133 116.223C88.8366 116.626 88.6602 117.029 88.484 117.433C88.2673 117.929 88.0504 118.425 87.8335 118.92C87.6252 119.397 87.4172 119.873 87.2094 120.35C86.546 121.87 85.8762 123.388 85.2031 124.905C84.3865 126.745 83.5806 128.59 82.7778 130.437C82.678 130.437 82.5781 130.437 82.4753 130.437C82.4481 130.371 82.4209 130.306 82.393 130.239C80.8142 126.445 79.206 122.664 77.5802 118.889C77.2282 118.072 76.8771 117.254 76.5264 116.436C75.4954 114.031 74.4583 111.63 73.4002 109.237C73.1579 108.689 72.9167 108.14 72.676 107.591C71.9385 105.91 71.1977 104.231 70.4516 102.554C70.3652 102.359 70.2789 102.165 70.1926 101.971C70.073 101.701 69.953 101.432 69.833 101.162C69.797 101.081 69.7611 101 69.724 100.916C69.5838 100.558 69.5838 100.558 69.3633 100.249C69.3422 100.319 69.321 100.388 69.2992 100.459C68.2185 103.998 67.1281 107.534 66.016 111.064C65.9904 111.145 65.9649 111.226 65.9385 111.309C65.7093 112.037 65.48 112.765 65.2506 113.492C64.8026 114.912 64.3558 116.333 63.9105 117.755C63.8754 117.866 63.8404 117.978 63.8042 118.094C63.3305 119.606 62.8604 121.119 62.3921 122.633C62.3656 122.719 62.3392 122.804 62.3119 122.893C62.0488 123.743 61.7858 124.594 61.5233 125.445C61.4261 125.76 61.3287 126.075 61.2314 126.39C61.1861 126.537 61.1408 126.684 61.0956 126.831C60.8681 127.569 60.6377 128.306 60.3867 129.037C59.5397 129.04 58.6926 129.041 57.8456 129.043C57.4521 129.043 57.0587 129.044 56.6653 129.045C56.2847 129.046 55.904 129.047 55.5234 129.047C55.3792 129.047 55.2349 129.047 55.0906 129.048C54.2288 129.051 53.3774 129.026 52.5195 128.937C52.5788 128.414 52.7039 127.945 52.8824 127.449C52.938 127.29 52.9936 127.132 53.0492 126.973C53.0937 126.848 53.0937 126.848 53.1391 126.72C53.7325 125.041 54.295 123.354 54.8393 121.659C54.8732 121.554 54.9071 121.448 54.9419 121.34C55.112 120.81 55.2817 120.28 55.4512 119.75C55.6338 119.18 55.8177 118.61 56.002 118.04C57.1523 114.479 58.2644 110.906 59.3611 107.329C64.3524 91.0511 64.3524 91.0511 67.8252 81.2636C67.8639 81.1565 67.8639 81.1565 67.9033 81.0473C67.9749 80.8496 68.0472 80.6522 68.1199 80.4549C68.1606 80.3439 68.2012 80.2328 68.2431 80.1184C68.3547 79.8579 68.3547 79.8579 68.5564 79.658C69.0218 80.5597 69.4541 81.4685 69.855 82.4006C69.9398 82.5962 70.0246 82.7917 70.1095 82.9873C70.1696 83.1257 70.2297 83.2641 70.2897 83.4026C70.6244 84.1746 70.9639 84.9445 71.3032 85.7145C72.8508 89.227 74.3775 92.7482 75.8995 96.2716C76.1825 96.9266 76.466 97.5813 76.7502 98.2358C77.6938 100.409 78.6183 102.59 79.5364 104.775C79.6507 105.046 79.765 105.318 79.8793 105.589C80.7957 107.768 81.7004 109.95 82.5761 112.144C83.4062 110.337 84.2213 108.525 85.014 106.702C85.3989 105.817 85.7873 104.934 86.1752 104.05C86.3955 103.549 86.6157 103.047 86.8359 102.545C87.2983 101.49 87.2983 101.49 87.496 101.04C88.6921 98.316 89.8699 95.5841 91.0484 92.8525C91.1121 92.7049 91.1121 92.7049 91.1771 92.5543C92.7152 88.9894 94.2122 85.4082 95.6906 81.8185C96.0564 80.9304 96.423 80.0427 96.7975 79.1582Z" fill="#8B8B8B"/>
<path d="M193.118 82.4602C193.266 82.5379 193.414 82.6156 193.562 82.6933C195.512 83.7288 197.286 85.0098 198.899 86.5089C199.129 86.7215 199.364 86.9254 199.604 87.127C199.932 87.409 200.215 87.7131 200.496 88.0411C200.706 88.285 200.924 88.5209 201.142 88.7576C202.195 89.917 202.195 89.917 202.195 90.3569C201.951 90.5496 201.71 90.7225 201.451 90.8942C201.293 91.0024 201.134 91.1106 200.975 91.219C200.893 91.2748 200.811 91.3306 200.726 91.3881C200.342 91.6512 199.964 91.922 199.585 92.1936C199.475 92.273 199.475 92.273 199.362 92.354C198.351 93.0799 197.343 93.8119 196.345 94.5551C195.961 94.4063 195.809 94.2031 195.583 93.8679C195.115 93.21 194.585 92.6369 194.025 92.0562C193.951 91.9768 193.876 91.8974 193.799 91.8157C191.112 89.0405 186.872 87.1776 183.032 86.8584C182.953 86.8518 182.875 86.8452 182.795 86.8385C178.416 86.4959 173.784 87.6551 170.323 90.4194C170.154 90.5636 169.986 90.7094 169.819 90.8567C169.733 90.9306 169.648 91.0046 169.56 91.0808C169.306 91.3026 169.058 91.5283 168.81 91.7563C168.738 91.8212 168.666 91.8862 168.592 91.9531C165.147 95.1864 163.4 100.148 163.267 104.75C163.219 107.845 164.069 111.046 165.583 113.747C165.637 113.849 165.692 113.95 165.748 114.055C167.995 118.088 171.997 120.97 176.406 122.269C180.888 123.494 185.811 122.932 189.89 120.744C189.996 120.688 190.102 120.631 190.21 120.573C191.67 119.758 192.91 118.751 194.091 117.581C194.229 117.444 194.368 117.309 194.511 117.178C195.939 115.852 196.946 114.108 197.789 112.379C197.83 112.295 197.871 112.21 197.914 112.124C198.133 111.662 198.317 111.2 198.478 110.716C198.513 110.609 198.548 110.502 198.585 110.393C198.625 110.272 198.625 110.272 198.665 110.149C198.582 110.149 198.499 110.149 198.414 110.149C196.394 110.151 194.375 110.153 192.355 110.154C191.378 110.154 190.402 110.155 189.425 110.156C188.574 110.157 187.722 110.158 186.871 110.158C186.42 110.158 185.97 110.158 185.519 110.159C185.095 110.16 184.67 110.16 184.246 110.16C184.09 110.16 183.935 110.16 183.779 110.161C183.566 110.161 183.353 110.161 183.14 110.161C183.021 110.161 182.902 110.161 182.779 110.161C182.391 110.147 182.005 110.096 181.62 110.049C181.62 107.707 181.62 105.365 181.62 102.952C189.941 102.952 198.262 102.952 206.835 102.952C206.835 105.31 206.835 105.31 206.759 106.225C206.75 106.334 206.741 106.442 206.732 106.554C206.254 111.956 204.229 117.262 200.581 121.344C200.508 121.428 200.435 121.511 200.36 121.597C199.911 122.103 199.44 122.585 198.961 123.062C198.904 123.119 198.847 123.176 198.788 123.235C196.95 125.05 194.764 126.563 192.412 127.648C192.276 127.711 192.14 127.775 192.004 127.839C187.374 130.051 181.935 130.698 176.879 129.84C176.739 129.817 176.739 129.817 176.596 129.793C172.77 129.127 169.027 127.548 165.986 125.142C165.892 125.068 165.798 124.994 165.701 124.918C164.073 123.617 162.522 122.192 161.276 120.52C161.14 120.338 161.001 120.157 160.862 119.977C160.22 119.134 159.646 118.268 159.128 117.346C159.081 117.263 159.034 117.18 158.985 117.094C155.702 111.237 154.904 104.335 156.71 97.8722C157.621 94.7981 159.134 91.8652 161.145 89.3573C161.216 89.2678 161.287 89.1782 161.36 89.0859C162.553 87.6092 163.879 86.228 165.381 85.0591C165.48 84.98 165.58 84.9009 165.682 84.8194C169.462 81.8621 174.194 79.9823 178.997 79.5614C179.063 79.5552 179.13 79.5491 179.198 79.5427C183.977 79.1159 188.909 80.1969 193.118 82.4602Z" fill="#8B8B8B"/>
<path d="M30.0269 79.8597C30.1736 79.8887 30.1736 79.8887 30.3233 79.9183C32.6262 80.3878 34.873 81.1361 36.9863 82.1588C37.0502 82.1895 37.1141 82.2202 37.18 82.2518C39.2633 83.2667 41.1685 84.6646 42.8362 86.257C42.9029 86.3204 42.9695 86.3837 43.0382 86.449C43.995 87.3629 44.8764 88.2921 45.6603 89.3558C45.7469 89.4708 45.8334 89.5859 45.92 89.7009C46.5289 90.5194 47.0738 91.3684 47.5767 92.2545C47.6205 92.3317 47.6644 92.4089 47.7095 92.4884C49.4276 95.5472 50.5464 98.9615 50.9051 102.45C50.9163 102.547 50.9275 102.643 50.939 102.742C51.5771 109.203 49.4585 115.724 45.3577 120.743C45.0338 121.12 44.6912 121.481 44.3491 121.842C44.2266 121.981 44.1047 122.121 43.9835 122.261C43.3808 122.944 42.7333 123.541 42.0179 124.108C41.8282 124.26 41.6413 124.415 41.4577 124.575C36.3424 128.993 29.5918 130.501 22.9729 130.07C18.0705 129.693 13.4484 127.706 9.65295 124.641C9.59794 124.597 9.54293 124.553 9.48625 124.507C8.10306 123.386 6.80873 122.149 5.71937 120.743C5.61717 120.615 5.51485 120.488 5.41246 120.361C3.61849 118.111 2.20782 115.563 1.28149 112.846C1.25371 112.765 1.22594 112.684 1.19732 112.601C0.527727 110.614 0.0649778 108.523 0.0471241 106.424C0.0461362 106.328 0.04515 106.232 0.0441322 106.133C0.0275463 104.104 0.0253756 102.14 0.474601 100.151C0.496753 100.048 0.518904 99.9441 0.541727 99.8374C1.01457 97.6429 1.7017 95.5715 2.69354 93.554C2.73294 93.4738 2.77233 93.3937 2.81292 93.3111C3.95469 91.0184 5.44757 88.9958 7.23229 87.1567C7.3033 87.083 7.3033 87.083 7.37575 87.0079C8.02691 86.3354 8.71126 85.7318 9.45123 85.1575C9.55173 85.0774 9.65224 84.9972 9.75578 84.9146C10.5868 84.2583 11.4623 83.6943 12.3762 83.1583C12.446 83.1171 12.5158 83.0759 12.5877 83.0334C15.2863 81.4522 18.1885 80.4709 21.252 79.8597C21.3392 79.8417 21.4265 79.8236 21.5164 79.805C24.1931 79.272 27.3566 79.3215 30.0269 79.8597ZM12.269 92.3732C11.6328 93.0846 11.0917 93.8633 10.5607 94.6535C10.5192 94.7148 10.4777 94.7761 10.435 94.8393C7.82445 98.7499 6.88367 103.939 7.75326 108.536C7.81036 108.808 7.87247 109.078 7.93831 109.347C7.95939 109.434 7.98047 109.52 8.00219 109.609C8.46066 111.41 9.21951 113.1 10.2581 114.645C10.3246 114.748 10.391 114.85 10.4594 114.956C11.1432 115.998 11.9259 116.935 12.7796 117.844C12.8426 117.912 12.9055 117.979 12.9703 118.049C16.0648 121.258 20.8781 122.869 25.2737 122.97C30.2409 123.019 34.6118 121.197 38.1966 117.844C38.2719 117.775 38.3472 117.705 38.4247 117.634C41.6014 114.612 43.362 109.956 43.4701 105.649C43.4998 104.1 43.4584 102.573 43.1388 101.051C43.122 100.969 43.1053 100.888 43.088 100.804C42.1348 96.314 39.4533 92.2058 35.5597 89.6818C32.876 87.9842 29.7088 86.7678 26.49 86.733C26.4146 86.732 26.3392 86.731 26.2615 86.73C20.8327 86.6736 16.0279 88.4457 12.269 92.3732Z" fill="#8B8B8B"/>
<path d="M232.052 77.7598C232.337 78.1059 232.536 78.4866 232.739 78.8831C232.794 78.9894 232.794 78.9894 232.85 79.0978C232.928 79.2495 233.006 79.4014 233.084 79.5533C233.248 79.8731 233.413 80.1925 233.578 80.512C233.661 80.6718 233.743 80.8316 233.826 80.9915C234.145 81.611 234.468 82.2287 234.794 82.8451C236.602 86.2712 238.405 89.7034 240.128 93.172C240.321 93.5571 240.516 93.9398 240.72 94.319C241.278 95.3576 241.816 96.4051 242.346 97.4578C242.382 97.5298 242.419 97.6019 242.456 97.6761C242.758 98.2768 243.06 98.8778 243.362 99.4787C243.624 100.001 243.886 100.522 244.149 101.044C244.186 101.116 244.222 101.189 244.26 101.263C244.65 102.038 245.042 102.81 245.454 103.574C245.944 104.484 246.408 105.406 246.872 106.329C246.913 106.41 246.954 106.491 246.996 106.575C247.336 107.251 247.676 107.928 248.016 108.604C248.311 109.191 248.607 109.778 248.902 110.365C248.963 110.486 248.963 110.486 249.025 110.61C249.495 111.541 249.968 112.47 250.463 113.388C251.079 114.536 251.652 115.705 252.236 116.868C252.814 118.021 253.396 119.17 254.004 120.308C254.329 120.914 254.641 121.526 254.947 122.141C255.299 122.843 255.655 123.542 256.025 124.234C256.204 124.569 256.383 124.905 256.561 125.24C256.594 125.302 256.628 125.365 256.662 125.429C256.897 125.869 257.13 126.309 257.362 126.751C257.441 126.901 257.521 127.05 257.601 127.2C257.714 127.411 257.825 127.623 257.936 127.835C257.971 127.898 258.005 127.962 258.04 128.027C258.24 128.412 258.276 128.587 258.276 129.038C255.547 129.038 252.817 129.038 250.005 129.038C248.835 126.834 248.835 126.834 248.283 125.74C248.243 125.661 248.203 125.582 248.162 125.5C248.121 125.42 248.08 125.339 248.038 125.255C247.951 125.084 247.864 124.912 247.777 124.74C247.598 124.385 247.419 124.031 247.24 123.676C247.01 123.22 246.78 122.765 246.549 122.31C246.371 121.958 246.193 121.606 246.016 121.254C245.931 121.085 245.846 120.917 245.761 120.749C245.643 120.517 245.525 120.284 245.408 120.051C245.373 119.981 245.338 119.912 245.301 119.841C245.063 119.365 245.063 119.365 245.063 119.142C244.953 119.143 244.843 119.143 244.73 119.143C242.039 119.145 239.347 119.147 236.656 119.148C235.354 119.148 234.053 119.149 232.751 119.15C231.615 119.151 230.478 119.152 229.342 119.152C228.742 119.152 228.142 119.152 227.542 119.153C224.807 119.156 222.077 119.137 219.343 119.042C219.312 119.137 219.281 119.231 219.249 119.329C219.157 119.597 219.057 119.827 218.922 120.076C218.877 120.159 218.833 120.242 218.787 120.327C218.738 120.418 218.689 120.509 218.639 120.602C218.093 121.625 217.566 122.657 217.045 123.693C217.006 123.769 216.968 123.846 216.928 123.924C216.651 124.475 216.374 125.026 216.097 125.577C215.816 126.136 215.535 126.695 215.254 127.254C215.142 127.476 215.031 127.697 214.92 127.919C214.852 128.053 214.785 128.187 214.718 128.321C214.629 128.497 214.629 128.497 214.539 128.676C214.401 128.938 214.401 128.938 214.3 129.038C214.037 129.048 213.775 129.051 213.511 129.05C213.429 129.05 213.346 129.05 213.261 129.05C212.986 129.05 212.712 129.049 212.437 129.048C212.247 129.048 212.058 129.048 211.868 129.048C211.367 129.047 210.867 129.046 210.366 129.045C209.856 129.044 209.345 129.044 208.835 129.043C207.833 129.042 206.83 129.04 205.828 129.038C205.945 128.675 206.071 128.333 206.246 127.994C206.289 127.911 206.332 127.829 206.375 127.744C206.421 127.656 206.467 127.568 206.514 127.477C206.563 127.383 206.611 127.29 206.661 127.193C206.816 126.894 206.971 126.595 207.127 126.296C207.227 126.101 207.328 125.907 207.429 125.712C207.935 124.734 208.445 123.758 208.959 122.784C209.551 121.661 210.133 120.534 210.714 119.405C210.926 118.992 211.138 118.579 211.351 118.167C211.404 118.064 211.457 117.961 211.511 117.855C211.855 117.187 212.199 116.521 212.544 115.854C213.469 114.069 214.389 112.282 215.288 110.484C215.65 109.761 216.02 109.044 216.402 108.331C216.964 107.279 217.498 106.214 218.032 105.148C218.219 104.775 218.406 104.403 218.593 104.03C218.634 103.95 218.674 103.869 218.715 103.786C219.007 103.205 219.311 102.631 219.617 102.057C220.101 101.149 220.568 100.234 221.029 99.3152C221.167 99.0415 221.305 98.768 221.442 98.4944C221.735 97.9137 222.027 97.3328 222.319 96.7518C222.658 96.077 222.998 95.4023 223.337 94.7277C223.471 94.4621 223.604 94.1964 223.738 93.9307C224.146 93.1198 224.559 92.3128 224.988 91.5122C225.483 90.5848 225.959 89.6481 226.431 88.7086C226.579 88.4147 226.727 88.121 226.874 87.8273C227.188 87.2038 227.502 86.5801 227.816 85.9563C228.18 85.232 228.544 84.5077 228.909 83.7836C229.053 83.4981 229.196 83.2125 229.34 82.9268C229.926 81.7625 230.528 80.608 231.144 79.4591C231.243 79.2733 231.342 79.0876 231.441 78.9019C231.515 78.7648 231.588 78.6277 231.661 78.4907C231.7 78.4182 231.739 78.3458 231.779 78.2711C231.87 78.1006 231.961 77.9302 232.052 77.7598ZM232.052 94.1529C231.27 95.6065 230.522 97.0758 229.783 98.5511C229.162 99.7894 228.54 101.026 227.885 102.247C227.374 103.205 226.89 104.177 226.404 105.148C225.751 106.453 225.087 107.75 224.398 109.036C224.119 109.559 223.843 110.084 223.567 110.609C223.509 110.718 223.451 110.828 223.391 110.941C223.337 111.045 223.282 111.149 223.226 111.256C223.153 111.394 223.153 111.394 223.079 111.535C222.967 111.721 222.967 111.721 222.974 111.846C224.019 111.936 225.055 111.959 226.102 111.957C226.269 111.957 226.437 111.957 226.604 111.957C227.053 111.957 227.502 111.956 227.951 111.956C228.422 111.955 228.894 111.955 229.365 111.955C230.255 111.954 231.145 111.954 232.035 111.953C233.049 111.952 234.064 111.951 235.078 111.95C237.162 111.949 239.247 111.948 241.331 111.945C241.278 111.84 241.225 111.735 241.17 111.626C240.809 110.911 240.448 110.195 240.088 109.479C239.716 108.74 239.344 108.002 238.972 107.263C238.749 106.821 238.526 106.379 238.303 105.936C238.085 105.502 237.866 105.068 237.647 104.634C237.565 104.471 237.483 104.308 237.401 104.145C236.88 103.11 236.347 102.082 235.8 101.06C235.534 100.561 235.279 100.057 235.027 99.5506C234.113 97.7279 233.134 95.9406 232.153 94.1529C232.12 94.1529 232.086 94.1529 232.052 94.1529Z" fill="#8B8B8B"/>
<path d="M118.887 80.5566C128.739 80.5566 138.591 80.5566 148.742 80.5566C148.742 82.9316 148.742 85.3067 148.742 87.7536C141.386 87.7536 134.03 87.7536 126.451 87.7536C126.451 92.2068 126.451 96.6599 126.451 101.248C133.574 101.248 140.697 101.248 148.036 101.248C148.036 103.623 148.036 105.998 148.036 108.445C140.913 108.445 133.79 108.445 126.451 108.445C126.451 112.865 126.451 117.285 126.451 121.839C128.485 121.838 128.485 121.838 130.559 121.836C131.423 121.835 132.287 121.835 133.151 121.834C134.52 121.834 135.888 121.833 137.257 121.832C138.254 121.831 139.251 121.83 140.248 121.83C140.775 121.83 141.302 121.83 141.828 121.829C142.327 121.828 142.825 121.828 143.324 121.828C143.504 121.828 143.684 121.828 143.864 121.827C145.493 121.824 147.112 121.885 148.742 121.939C148.742 124.281 148.742 126.623 148.742 129.036C138.889 129.036 129.037 129.036 118.887 129.036C118.887 113.038 118.887 97.0397 118.887 80.5566Z" fill="#8B8B8B"/>
</g>
<defs>
<clipPath id="clip0_203_1982">
<rect width="258.204" height="136.043" fill="white" transform="translate(0.0703125 0.388672)"/>
</clipPath>
</defs>
</svg>
