<svg width="52" height="16" viewBox="0 0 52 16" fill="none" xmlns="http://www.w3.org/2000/svg">
<rect x="0.533775" y="0.751914" width="50.3548" height="14.4961" rx="4.95918" stroke="white" stroke-width="0.254317"/>
<path d="M10.3082 6.24908V9.94824H9.87467L7.85892 7.04382H7.82279V9.94824H7.37485V6.24908H7.80834L9.83132 9.16073H9.86744V6.24908H10.3082ZM12.3099 10.006C12.0426 10.006 11.812 9.94704 11.6181 9.82903C11.4255 9.70982 11.2768 9.54365 11.172 9.33051C11.0684 9.11617 11.0167 8.86691 11.0167 8.58273C11.0167 8.29855 11.0684 8.04809 11.172 7.83134C11.2768 7.61339 11.4225 7.4436 11.6091 7.32198C11.7969 7.19916 12.0161 7.13775 12.2666 7.13775C12.4111 7.13775 12.5538 7.16183 12.6946 7.21C12.8355 7.25816 12.9638 7.33643 13.0794 7.44481C13.195 7.55198 13.2871 7.69407 13.3557 7.87108C13.4244 8.04809 13.4587 8.26604 13.4587 8.52493V8.70556H11.3201V8.33709H13.0252C13.0252 8.18055 12.9939 8.04086 12.9313 7.91804C12.8698 7.79522 12.7819 7.69828 12.6676 7.62724C12.5544 7.55619 12.4207 7.52067 12.2666 7.52067C12.0968 7.52067 11.9499 7.56281 11.8258 7.64711C11.703 7.73019 11.6085 7.83857 11.5423 7.97223C11.476 8.10589 11.4429 8.24918 11.4429 8.40211V8.64776C11.4429 8.85728 11.4791 9.03489 11.5513 9.18059C11.6248 9.32509 11.7265 9.43527 11.8566 9.51113C11.9866 9.58579 12.1377 9.62312 12.3099 9.62312C12.4219 9.62312 12.5231 9.60747 12.6134 9.57616C12.7049 9.54365 12.7838 9.49548 12.85 9.43166C12.9162 9.36664 12.9674 9.28596 13.0035 9.18963L13.4153 9.30522C13.372 9.44491 13.2991 9.56773 13.1968 9.6737C13.0944 9.77846 12.968 9.86034 12.8175 9.91934C12.6669 9.97714 12.4978 10.006 12.3099 10.006ZM14.7357 9.94824L13.8904 7.17387H14.3383L14.938 9.298H14.9669L15.5593 7.17387H16.0145L16.5997 9.29077H16.6286L17.2283 7.17387H17.6762L16.8309 9.94824H16.4119L15.805 7.81689H15.7616L15.1547 9.94824H14.7357ZM20.7974 10.006C20.5373 10.006 20.3133 9.94463 20.1255 9.82181C19.9376 9.69898 19.7931 9.5298 19.692 9.31426C19.5908 9.09871 19.5403 8.85246 19.5403 8.57551C19.5403 8.29374 19.592 8.04508 19.6956 7.82953C19.8004 7.61279 19.9461 7.4436 20.1327 7.32198C20.3205 7.19916 20.5397 7.13775 20.7902 7.13775C20.9852 7.13775 21.161 7.17387 21.3176 7.24612C21.4741 7.31837 21.6024 7.41952 21.7023 7.54957C21.8023 7.67962 21.8643 7.83134 21.8884 8.00474H21.4621C21.4296 7.8783 21.3573 7.76632 21.2453 7.66878C21.1346 7.57004 20.9852 7.52067 20.7974 7.52067C20.6312 7.52067 20.4855 7.56402 20.3603 7.65072C20.2363 7.73621 20.1393 7.85723 20.0695 8.01377C20.0008 8.16911 19.9665 8.35154 19.9665 8.56106C19.9665 8.7754 20.0002 8.96204 20.0677 9.12099C20.1363 9.27994 20.2326 9.40336 20.3567 9.49127C20.4819 9.57917 20.6288 9.62312 20.7974 9.62312C20.9082 9.62312 21.0087 9.60385 21.099 9.56532C21.1893 9.52679 21.2658 9.4714 21.3284 9.39915C21.391 9.3269 21.4356 9.2402 21.4621 9.13905H21.8884C21.8643 9.30282 21.8047 9.45032 21.7095 9.58158C21.6156 9.71163 21.491 9.81518 21.3356 9.89225C21.1815 9.96811 21.0021 10.006 20.7974 10.006ZM23.6386 10.006C23.3881 10.006 23.1684 9.94644 22.9793 9.82722C22.7915 9.70801 22.6446 9.54124 22.5386 9.3269C22.4338 9.11256 22.3815 8.8621 22.3815 8.57551C22.3815 8.28651 22.4338 8.03424 22.5386 7.8187C22.6446 7.60315 22.7915 7.43578 22.9793 7.31657C23.1684 7.19735 23.3881 7.13775 23.6386 7.13775C23.8891 7.13775 24.1082 7.19735 24.2961 7.31657C24.4851 7.43578 24.632 7.60315 24.7368 7.8187C24.8427 8.03424 24.8957 8.28651 24.8957 8.57551C24.8957 8.8621 24.8427 9.11256 24.7368 9.3269C24.632 9.54124 24.4851 9.70801 24.2961 9.82722C24.1082 9.94644 23.8891 10.006 23.6386 10.006ZM23.6386 9.62312C23.8288 9.62312 23.9854 9.57435 24.1082 9.47682C24.231 9.37928 24.3219 9.25104 24.381 9.09209C24.44 8.93314 24.4695 8.76095 24.4695 8.57551C24.4695 8.39007 24.44 8.21727 24.381 8.05712C24.3219 7.89697 24.231 7.76752 24.1082 7.66878C23.9854 7.57004 23.8288 7.52067 23.6386 7.52067C23.4483 7.52067 23.2918 7.57004 23.169 7.66878C23.0461 7.76752 22.9552 7.89697 22.8962 8.05712C22.8372 8.21727 22.8077 8.39007 22.8077 8.57551C22.8077 8.76095 22.8372 8.93314 22.8962 9.09209C22.9552 9.25104 23.0461 9.37928 23.169 9.47682C23.2918 9.57435 23.4483 9.62312 23.6386 9.62312ZM25.9727 6.24908V9.94824H25.5464V6.24908H25.9727ZM27.1797 6.24908V9.94824H26.7534V6.24908H27.1797ZM29.1237 10.006C28.8563 10.006 28.6257 9.94704 28.4319 9.82903C28.2392 9.70982 28.0905 9.54365 27.9857 9.33051C27.8822 9.11617 27.8304 8.86691 27.8304 8.58273C27.8304 8.29855 27.8822 8.04809 27.9857 7.83134C28.0905 7.61339 28.2362 7.4436 28.4228 7.32198C28.6107 7.19916 28.8298 7.13775 29.0803 7.13775C29.2248 7.13775 29.3675 7.16183 29.5084 7.21C29.6493 7.25816 29.7775 7.33643 29.8931 7.44481C30.0087 7.55198 30.1008 7.69407 30.1695 7.87108C30.2381 8.04809 30.2724 8.26604 30.2724 8.52493V8.70556H28.1338V8.33709H29.8389C29.8389 8.18055 29.8076 8.04086 29.745 7.91804C29.6836 7.79522 29.5957 7.69828 29.4813 7.62724C29.3681 7.55619 29.2344 7.52067 29.0803 7.52067C28.9105 7.52067 28.7636 7.56281 28.6396 7.64711C28.5168 7.73019 28.4222 7.83857 28.356 7.97223C28.2898 8.10589 28.2567 8.24918 28.2567 8.40211V8.64776C28.2567 8.85728 28.2928 9.03489 28.365 9.18059C28.4385 9.32509 28.5402 9.43527 28.6703 9.51113C28.8003 9.58579 28.9515 9.62312 29.1237 9.62312C29.2356 9.62312 29.3368 9.60747 29.4271 9.57616C29.5186 9.54365 29.5975 9.49548 29.6637 9.43166C29.7299 9.36664 29.7811 9.28596 29.8172 9.18963L30.2291 9.30522C30.1857 9.44491 30.1129 9.56773 30.0105 9.6737C29.9082 9.77846 29.7817 9.86034 29.6312 9.91934C29.4807 9.97714 29.3115 10.006 29.1237 10.006ZM32.0479 10.006C31.7878 10.006 31.5639 9.94463 31.376 9.82181C31.1882 9.69898 31.0437 9.5298 30.9425 9.31426C30.8414 9.09871 30.7908 8.85246 30.7908 8.57551C30.7908 8.29374 30.8426 8.04508 30.9461 7.82953C31.0509 7.61279 31.1966 7.4436 31.3833 7.32198C31.5711 7.19916 31.7903 7.13775 32.0407 7.13775C32.2358 7.13775 32.4116 7.17387 32.5681 7.24612C32.7247 7.31837 32.8529 7.41952 32.9529 7.54957C33.0528 7.67962 33.1148 7.83134 33.1389 8.00474H32.7126C32.6801 7.8783 32.6079 7.76632 32.4959 7.66878C32.3851 7.57004 32.2358 7.52067 32.0479 7.52067C31.8818 7.52067 31.7361 7.56402 31.6108 7.65072C31.4868 7.73621 31.3899 7.85723 31.32 8.01377C31.2514 8.16911 31.2171 8.35154 31.2171 8.56106C31.2171 8.7754 31.2508 8.96204 31.3182 9.12099C31.3869 9.27994 31.4832 9.40336 31.6072 9.49127C31.7325 9.57917 31.8794 9.62312 32.0479 9.62312C32.1587 9.62312 32.2593 9.60385 32.3496 9.56532C32.4399 9.52679 32.5164 9.4714 32.579 9.39915C32.6416 9.3269 32.6861 9.2402 32.7126 9.13905H33.1389C33.1148 9.30282 33.0552 9.45032 32.9601 9.58158C32.8662 9.71163 32.7415 9.81518 32.5862 9.89225C32.4321 9.96811 32.2526 10.006 32.0479 10.006ZM34.9686 7.17387V7.53512H33.5309V7.17387H34.9686ZM33.9499 6.50918H34.3762V9.1535C34.3762 9.27392 34.3936 9.36423 34.4286 9.42444C34.4647 9.48344 34.5104 9.52318 34.5658 9.54365C34.6224 9.56291 34.682 9.57255 34.7446 9.57255C34.7916 9.57255 34.8301 9.57014 34.8602 9.56532C34.8903 9.5593 34.9144 9.55448 34.9325 9.55087L35.0192 9.93379C34.9903 9.94463 34.95 9.95547 34.8982 9.9663C34.8464 9.97835 34.7808 9.98437 34.7013 9.98437C34.5809 9.98437 34.4629 9.95848 34.3473 9.9067C34.2329 9.85492 34.1378 9.77605 34.0619 9.67008C33.9872 9.56412 33.9499 9.43046 33.9499 9.2691V6.50918ZM35.6098 9.94824V7.17387H36.0361V9.94824H35.6098ZM35.8266 6.71148C35.7435 6.71148 35.6718 6.68318 35.6116 6.62659C35.5526 6.56999 35.5231 6.50196 35.5231 6.42248C35.5231 6.34301 35.5526 6.27497 35.6116 6.21838C35.6718 6.16178 35.7435 6.13349 35.8266 6.13349C35.9097 6.13349 35.9807 6.16178 36.0397 6.21838C36.0999 6.27497 36.13 6.34301 36.13 6.42248C36.13 6.50196 36.0999 6.56999 36.0397 6.62659C35.9807 6.68318 35.9097 6.71148 35.8266 6.71148ZM37.9439 10.006C37.6935 10.006 37.4737 9.94644 37.2847 9.82722C37.0968 9.70801 36.9499 9.54124 36.8439 9.3269C36.7392 9.11256 36.6868 8.8621 36.6868 8.57551C36.6868 8.28651 36.7392 8.03424 36.8439 7.8187C36.9499 7.60315 37.0968 7.43578 37.2847 7.31657C37.4737 7.19735 37.6935 7.13775 37.9439 7.13775C38.1944 7.13775 38.4135 7.19735 38.6014 7.31657C38.7904 7.43578 38.9374 7.60315 39.0421 7.8187C39.1481 8.03424 39.2011 8.28651 39.2011 8.57551C39.2011 8.8621 39.1481 9.11256 39.0421 9.3269C38.9374 9.54124 38.7904 9.70801 38.6014 9.82722C38.4135 9.94644 38.1944 10.006 37.9439 10.006ZM37.9439 9.62312C38.1342 9.62312 38.2907 9.57435 38.4135 9.47682C38.5364 9.37928 38.6273 9.25104 38.6863 9.09209C38.7453 8.93314 38.7748 8.76095 38.7748 8.57551C38.7748 8.39007 38.7453 8.21727 38.6863 8.05712C38.6273 7.89697 38.5364 7.76752 38.4135 7.66878C38.2907 7.57004 38.1342 7.52067 37.9439 7.52067C37.7537 7.52067 37.5971 7.57004 37.4743 7.66878C37.3515 7.76752 37.2606 7.89697 37.2016 8.05712C37.1426 8.21727 37.1131 8.39007 37.1131 8.57551C37.1131 8.76095 37.1426 8.93314 37.2016 9.09209C37.2606 9.25104 37.3515 9.37928 37.4743 9.47682C37.5971 9.57435 37.7537 9.62312 37.9439 9.62312ZM40.278 8.27929V9.94824H39.8518V7.17387H40.2636V7.60737H40.2997C40.3647 7.46648 40.4635 7.35329 40.5959 7.2678C40.7284 7.1811 40.8994 7.13775 41.1089 7.13775C41.2967 7.13775 41.4611 7.17628 41.602 7.25335C41.7429 7.32921 41.8525 7.44481 41.9307 7.60014C42.009 7.75428 42.0481 7.94935 42.0481 8.18536V9.94824H41.6219V8.21426C41.6219 7.99631 41.5653 7.82652 41.4521 7.7049C41.3389 7.58208 41.1836 7.52067 40.9861 7.52067C40.85 7.52067 40.7284 7.55017 40.6212 7.60917C40.5153 7.66818 40.4316 7.75428 40.3702 7.86747C40.3087 7.98066 40.278 8.11793 40.278 8.27929ZM44.7923 7.79522L44.4093 7.90359C44.3852 7.83977 44.3497 7.77776 44.3028 7.71755C44.257 7.65614 44.1944 7.60556 44.1149 7.56583C44.0354 7.52609 43.9337 7.50622 43.8097 7.50622C43.6399 7.50622 43.4984 7.54535 43.3852 7.62362C43.2732 7.70069 43.2172 7.79883 43.2172 7.91804C43.2172 8.02401 43.2558 8.10769 43.3328 8.16911C43.4099 8.23052 43.5303 8.28169 43.6941 8.32264L44.1059 8.42378C44.3539 8.48399 44.5388 8.57611 44.6604 8.70014C44.782 8.82296 44.8428 8.98131 44.8428 9.17518C44.8428 9.33412 44.7971 9.47621 44.7056 9.60145C44.6152 9.72668 44.4888 9.82542 44.3262 9.89767C44.1637 9.96992 43.9746 10.006 43.7591 10.006C43.4761 10.006 43.2419 9.94463 43.0565 9.82181C42.871 9.69898 42.7536 9.51956 42.7042 9.28355L43.1088 9.1824C43.1474 9.33172 43.2202 9.4437 43.3274 9.51836C43.4358 9.59302 43.5773 9.63035 43.7519 9.63035C43.9505 9.63035 44.1083 9.5882 44.2251 9.50391C44.3431 9.41841 44.4021 9.31606 44.4021 9.19685C44.4021 9.10052 44.3684 9.01984 44.301 8.95482C44.2335 8.88859 44.13 8.83922 43.9903 8.8067L43.5279 8.69833C43.2738 8.63812 43.0872 8.5448 42.968 8.41837C42.85 8.29073 42.7909 8.13118 42.7909 7.93971C42.7909 7.78317 42.8349 7.6447 42.9228 7.52428C43.0119 7.40387 43.1329 7.30934 43.2859 7.2407C43.44 7.17207 43.6146 7.13775 43.8097 7.13775C44.0842 7.13775 44.2998 7.19796 44.4563 7.31837C44.614 7.43879 44.726 7.59774 44.7923 7.79522Z" fill="white"/>
</svg>
