<svg width="23" height="4" viewBox="0 0 23 4" fill="none" xmlns="http://www.w3.org/2000/svg">
<path d="M0.348904 1.23974V0.688804H2.94464V1.23974H1.97703V3.84937H1.31652V1.23974H0.348904ZM3.35977 3.84937V1.47894H4.01719V3.84937H3.35977ZM3.69002 1.17338C3.59229 1.17338 3.50844 1.14097 3.43848 1.07616C3.36954 1.01031 3.33508 0.931608 3.33508 0.840042C3.33508 0.749505 3.36954 0.671829 3.43848 0.607012C3.50844 0.541167 3.59229 0.508245 3.69002 0.508245C3.78776 0.508245 3.8711 0.541167 3.94003 0.607012C4.00999 0.671829 4.04497 0.749505 4.04497 0.840042C4.04497 0.931608 4.00999 1.01031 3.94003 1.07616C3.8711 1.14097 3.78776 1.17338 3.69002 1.17338ZM4.54382 3.84937V1.47894H5.17038V1.89716H5.19816C5.24754 1.75827 5.32985 1.6487 5.44508 1.56845C5.56031 1.4882 5.69817 1.44808 5.85867 1.44808C6.02122 1.44808 6.1596 1.48872 6.2738 1.57C6.388 1.65024 6.46413 1.7593 6.5022 1.89716H6.52689C6.57525 1.76136 6.6627 1.65282 6.78924 1.57154C6.91682 1.48923 7.06754 1.44808 7.24141 1.44808C7.46261 1.44808 7.64214 1.51855 7.78 1.6595C7.9189 1.79942 7.98834 1.99799 7.98834 2.2552V3.84937H7.33246V2.38483C7.33246 2.25314 7.29748 2.15437 7.22752 2.08853C7.15756 2.02268 7.07011 1.98976 6.96517 1.98976C6.84583 1.98976 6.75272 2.02782 6.68584 2.10396C6.61897 2.17906 6.58553 2.27834 6.58553 2.4018V3.84937H5.94817V2.37094C5.94817 2.25468 5.91474 2.16209 5.84786 2.09315C5.78202 2.02422 5.69508 1.98976 5.58706 1.98976C5.51401 1.98976 5.44816 2.00828 5.38952 2.04531C5.33191 2.08132 5.28612 2.13225 5.25217 2.1981C5.21822 2.26291 5.20124 2.33905 5.20124 2.4265V3.84937H4.54382ZM9.58791 3.89566C9.34408 3.89566 9.1342 3.84628 8.95827 3.74751C8.78337 3.64771 8.64859 3.50677 8.55394 3.32466C8.45929 3.14153 8.41196 2.92496 8.41196 2.67496C8.41196 2.43113 8.45929 2.21713 8.55394 2.03297C8.64859 1.84881 8.78182 1.70529 8.95364 1.6024C9.12648 1.49952 9.32916 1.44808 9.56168 1.44808C9.71806 1.44808 9.86364 1.47329 9.99841 1.5237C10.1342 1.57308 10.2525 1.64767 10.3534 1.74747C10.4552 1.84727 10.5344 1.97278 10.591 2.12402C10.6476 2.27423 10.6759 2.45016 10.6759 2.65181V2.83237H8.67431V2.42495H10.0571C10.0571 2.3303 10.0365 2.24645 9.99533 2.1734C9.95417 2.10036 9.89707 2.04326 9.82403 2.0021C9.75201 1.95992 9.66816 1.93883 9.57248 1.93883C9.47268 1.93883 9.3842 1.96198 9.30704 2.00828C9.23091 2.05355 9.17124 2.11476 9.12803 2.19192C9.08481 2.26806 9.06269 2.35293 9.06167 2.44656V2.83391C9.06167 2.9512 9.08327 3.05254 9.12648 3.13793C9.17072 3.22332 9.23297 3.28917 9.31321 3.33547C9.39346 3.38176 9.48863 3.40491 9.59871 3.40491C9.67176 3.40491 9.73864 3.39462 9.79934 3.37405C9.86004 3.35347 9.91199 3.32261 9.9552 3.28145C9.99841 3.2403 10.0313 3.18989 10.054 3.13021L10.662 3.17034C10.6311 3.31643 10.5679 3.44401 10.4722 3.55306C10.3775 3.66109 10.2551 3.74545 10.1049 3.80615C9.95572 3.86583 9.78339 3.89566 9.58791 3.89566Z" fill="#22B4BE"/>
<path d="M12.0891 3.84937V3.45275L13.6663 1.23974H12.086V0.688804H14.5058V1.08542L12.9271 3.29843H14.5089V3.84937H12.0891ZM16.0803 3.89566C15.8406 3.89566 15.6333 3.84474 15.4584 3.74288C15.2845 3.64 15.1503 3.49699 15.0556 3.31386C14.961 3.1297 14.9136 2.91622 14.9136 2.67341C14.9136 2.42855 14.961 2.21456 15.0556 2.03143C15.1503 1.84727 15.2845 1.70426 15.4584 1.6024C15.6333 1.49952 15.8406 1.44808 16.0803 1.44808C16.3201 1.44808 16.5268 1.49952 16.7007 1.6024C16.8756 1.70426 17.0104 1.84727 17.105 2.03143C17.1997 2.21456 17.247 2.42855 17.247 2.67341C17.247 2.91622 17.1997 3.1297 17.105 3.31386C17.0104 3.49699 16.8756 3.64 16.7007 3.74288C16.5268 3.84474 16.3201 3.89566 16.0803 3.89566ZM16.0834 3.38639C16.1925 3.38639 16.2835 3.35553 16.3566 3.2938C16.4296 3.23104 16.4847 3.14565 16.5217 3.03762C16.5598 2.92959 16.5788 2.80665 16.5788 2.66878C16.5788 2.53092 16.5598 2.40798 16.5217 2.29995C16.4847 2.19192 16.4296 2.10653 16.3566 2.04377C16.2835 1.98101 16.1925 1.94963 16.0834 1.94963C15.9733 1.94963 15.8807 1.98101 15.8056 2.04377C15.7316 2.10653 15.6755 2.19192 15.6374 2.29995C15.6004 2.40798 15.5819 2.53092 15.5819 2.66878C15.5819 2.80665 15.6004 2.92959 15.6374 3.03762C15.6755 3.14565 15.7316 3.23104 15.8056 3.2938C15.8807 3.35553 15.9733 3.38639 16.0834 3.38639ZM18.3319 2.47897V3.84937H17.6745V1.47894H18.3011V1.89716H18.3288C18.3813 1.7593 18.4693 1.65024 18.5927 1.57C18.7162 1.48872 18.8659 1.44808 19.0418 1.44808C19.2064 1.44808 19.35 1.48409 19.4724 1.55611C19.5948 1.62812 19.69 1.73101 19.7579 1.86476C19.8258 1.99747 19.8597 2.15591 19.8597 2.34007V3.84937H19.2023V2.45736C19.2033 2.3123 19.1663 2.19912 19.0912 2.11785C19.0161 2.03554 18.9127 1.99439 18.781 1.99439C18.6925 1.99439 18.6143 2.01342 18.5464 2.05149C18.4796 2.08955 18.4271 2.14511 18.389 2.21816C18.352 2.29018 18.333 2.37711 18.3319 2.47897ZM21.4581 3.89566C21.2143 3.89566 21.0044 3.84628 20.8285 3.74751C20.6536 3.64771 20.5188 3.50677 20.4242 3.32466C20.3295 3.14153 20.2822 2.92496 20.2822 2.67496C20.2822 2.43113 20.3295 2.21713 20.4242 2.03297C20.5188 1.84881 20.6521 1.70529 20.8239 1.6024C20.9967 1.49952 21.1994 1.44808 21.4319 1.44808C21.5883 1.44808 21.7339 1.47329 21.8687 1.5237C22.0045 1.57308 22.1228 1.64767 22.2236 1.74747C22.3255 1.84727 22.4047 1.97278 22.4613 2.12402C22.5178 2.27423 22.5461 2.45016 22.5461 2.65181V2.83237H20.5445V2.42495H21.9273C21.9273 2.3303 21.9067 2.24645 21.8656 2.1734C21.8244 2.10036 21.7673 2.04326 21.6943 2.0021C21.6222 1.95992 21.5384 1.93883 21.4427 1.93883C21.3429 1.93883 21.2544 1.96198 21.1773 2.00828C21.1011 2.05355 21.0415 2.11476 20.9983 2.19192C20.9551 2.26806 20.9329 2.35293 20.9319 2.44656V2.83391C20.9319 2.9512 20.9535 3.05254 20.9967 3.13793C21.041 3.22332 21.1032 3.28917 21.1835 3.33547C21.2637 3.38176 21.3589 3.40491 21.469 3.40491C21.542 3.40491 21.6089 3.39462 21.6696 3.37405C21.7303 3.35347 21.7822 3.32261 21.8254 3.28145C21.8687 3.2403 21.9016 3.18989 21.9242 3.13021L22.5322 3.17034C22.5014 3.31643 22.4381 3.44401 22.3424 3.55306C22.2478 3.66109 22.1253 3.74545 21.9751 3.80615C21.826 3.86583 21.6536 3.89566 21.4581 3.89566Z" fill="#FF4242"/>
</svg>
